<svg version="1.0" id="Layer_1" xmlns="http://www.w3.org/2000/svg" x="0" y="0" viewBox="0 0 1000 1000" xml:space="preserve"><style>@keyframes translate{0%{transform:translateY(0)}50%{transform:translateY(-100px)}}@keyframes scaleanim{0%{transform:scale(0,0)}50%{transform:scale(1.2,1.2)}60%{transform:scale(1,1)}90%{transform:scale(.9,.9)}}.st2{fill:#6b6fd4}.st4{fill:#ffcd42}.st5{fill:#a1b5ff}.st7{fill:#f7567e}.st8{fill:#221473}.st9{fill:#fff}.st10,.st9{opacity:.2}.st11{fill:#ff332c}.st12{fill:#ff99a5}.st15{fill:#ffb1d0}.st16{fill:#e3b63d}.st17{fill:#cca437}.st19{fill:#ff8996}.st20{fill:#7d3d0b}.st21{fill:#2b2b57}.st22{fill:#46468c}.st24{fill:#5b5bb5}.st27{fill:#313cc4}.st29{fill:#4f5cff}.st30{fill:#fff}.st34{fill:#e3e5ff}.st36{fill:#c4c9ff}.st42{fill:#43b3ff}.st44{fill:#c94667}.st45{fill:#f78aa5}.st47{enable-background:new}.st48{fill:#2f2f8e}.st49{fill:#7070cf}.st50{fill:#4343b0}.st55{fill:#dee0ff}.st67{fill:#d64b6d}.st70{fill:#2831a1}.st71{fill:#cfd1ff}.st72{fill:#bdbfff}.st73{fill:#d42e57}.st74{fill:#f78fa9}.st75{fill:#a6203f}</style><linearGradient id="SVGID_1_" gradientUnits="userSpaceOnUse" x1="459.3" y1="70.5" x2="729.1" y2="493.3"><stop offset=".3" stop-color="#6262c4"/><stop offset=".5" stop-color="#5454a8"/><stop offset=".7" stop-color="#2c2c59"/><stop offset="1" stop-color="#36366e"/></linearGradient><path d="M741.2 171.9L487.4 25.4c-6.6-3.8-12.6-4.2-16.9-1.7l-20.1 11.7c4.3-2.5 10.3-2.2 16.9 1.7L721 183.6a52 52 0 0123.6 40.9L742.9 838c0 7.5-2.7 12.7-6.9 15.2l20.1-11.7c4.3-2.5 6.9-7.7 6.9-15.2l1.7-613.5c.1-15-10.4-33.4-23.5-40.9z" fill="url(#SVGID_1_)"/><linearGradient id="SVGID_2_" gradientUnits="userSpaceOnUse" x1="466.3" y1="712.6" x2="738.4" y2="137.3"><stop offset="0" stop-color="#46468c"/><stop offset="1" stop-color="#5959b3"/></linearGradient><path d="M721 183.6a52 52 0 0123.6 40.9L742.9 838c0 15-10.7 21.1-23.8 13.6L465.4 705.1a52 52 0 01-23.6-40.9l1.7-613.5c0-15 10.7-21.1 23.8-13.6L721 183.6z" fill="url(#SVGID_2_)"/><path class="st2" d="M443.5 57.5c0-15 10.7-21.1 23.8-13.6L721 190.4a52.2 52.2 0 0123.6 40v-6a52 52 0 00-23.6-40.9L467.3 37.1c-13.1-7.6-23.7-1.5-23.8 13.6v6.8z"/><path d="M720.9 229.2c3.7 2.1 6.7 7.3 6.7 11.6L726 816.5c0 4.2-3 6-6.7 3.8l-261-150.7a14.7 14.7 0 01-6.7-11.6l1.6-575.7c0-4.2 3-6 6.7-3.8l261 150.7z" fill="#d6e3ff"/><path class="st4" d="M497.1 417.9l-.1 36.6 31.5 18.2.1-36.6z"/><path class="st5" d="M545 508.2l-.1 36.6L678.8 622l.1-36.5zM507.1 369.9c-3.6-2.1-6.6-.4-6.6 3.8s2.9 9.3 6.6 11.4l90.9 52.5c3.7 2.1 6.6.4 6.6-3.8s-2.9-9.3-6.6-11.4l-90.9-52.5zM507.3 302.5c-3.6-2.1-6.6-.4-6.6 3.8s2.9 9.3 6.6 11.4l46.9 27.1c3.7 2.1 6.6.4 6.6-3.8s-2.9-9.3-6.6-11.4l-46.9-27.1zM507.2 336.2c-3.6-2.1-6.6-.4-6.6 3.8s2.9 9.3 6.6 11.4l164.2 94.8c3.7 2.1 6.6.4 6.6-3.8s-2.9-9.3-6.6-11.4l-164.2-94.8zM580.6 344.9c-3.6-2.1-6.6-.4-6.6 3.8s2.9 9.3 6.6 11.4l76.2 44c3.7 2.1 6.6.4 6.6-3.8s-2.9-9.3-6.6-11.4l-76.2-44z"/><path d="M497.7 153l-.2 108.1c0 3.9 2 7.4 5.4 9.4l171.2 98.9a5 5 0 007.5-4.3l.2-109.8c0-3.9-2-7.4-5.4-9.4l-169.8-98a5.9 5.9 0 00-8.9 5.1z" fill="#f0f5ff"/><path class="st5" d="M496.9 480.4l-.1 36.6 31.6 18.2.1-36.6zM496.7 542.9l-.1 36.6 31.6 18.2.1-36.6zM496.5 605.4l-.1 36.6 31.6 18.2.1-36.6z"/><path class="st4" d="M545.2 445.7l-.1 36.6 133.8 77.3.1-36.6z"/><path class="st5" d="M544.7 633.2l-.1 36.6L678.4 747l.1-36.5zM544.8 570.7l-.1 36.6 133.9 77.3.1-36.6z"/><path class="st7" d="M570.5 211.7a45.2 45.2 0 0114.4 14.1c1.7 2.8 3 5.7 3.9 8.6.9 3 1.4 5.9 1.4 8.7 0 4.3-.9 7.7-2.8 10.2a21.7 21.7 0 01-6.7 6.1l-7.5 4.3-6.7 3.7.3.8 19.5 11.3c2.6 1.5 4.6 5.1 4.6 8v.9c0 2.9-2.1 4.1-4.6 2.7l-27.7-16c-4-2.3-7.3-8-7.3-12.6 0-2.3.8-4 2.2-4.7l7.3-4.1 3.8-2.1 3.6-2 3-1.7 2-1.3 2.5-2c.7-.6 1.3-1.2 1.8-1.9.4-.7.8-1.5 1-2.3.2-.8.4-1.8.4-3a17 17 0 00-8.5-13.1c-2.6-1.5-4.7-1.8-6.1-1a4 4 0 00-1.4 1.2c-.9 1-2.3.9-3.8.1a12 12 0 01-1.8-1.5l-1.9-2c-2.6-2.8-3.6-7-2.1-8.9 1-1.3 2.4-2.2 4-2.8 1.6-.6 3.6-.7 5.8-.4 2.1.2 4.6 1.1 7.4 2.7zM617.4 240.4c3.5 2 6.3 6.9 6.3 10.9l-.2 54.7c0 3.6-2.6 5.1-5.7 3.3a12.4 12.4 0 01-5.7-9.9l.1-46.5-5.7-.5c-.7-.1-1.4-.3-2.1-.7a11.3 11.3 0 01-4.9-6.6c-1.1-3.7 0-6.6 2.7-6.5l11.5.5c.8 0 1.8.3 2.7.9l1 .4z"/><path class="st8" d="M589.6 122.2c4.1 2.4 7.5 8.2 7.5 13 0 4.8-3.4 6.7-7.5 4.3a16.7 16.7 0 01-7.5-13c0-4.8 3.3-6.7 7.5-4.3z"/><path class="st9" d="M508.2 729.8l55.7 32.2 164-573.3c-2.2-2-4.5-3.7-6.8-5.1l-51.8-29.9-161.1 576.1zM676.4 826.9l67.4-426.8.8-153.4-149.1 533.5z"/><g><path class="st2" d="M760.7 331.4c-.9-.5-2-.4-3.3.3a10.3 10.3 0 00-4.7 8.1l.2 57.7c0 1.5.5 2.5 1.4 3l2.6 1.5c-.8-.5-1.4-1.5-1.4-3l-.2-57.7c0-3 2.1-6.6 4.7-8.1 1.3-.8 2.5-.8 3.3-.3l-2.6-1.5z"/><path class="st8" d="M759.9 333.2c2.6-1.5 4.7-.3 4.7 2.7l.2 57.7c0 3-2.1 6.6-4.7 8.1s-4.7.3-4.7-2.7l-.2-57.7c0-3 2.1-6.6 4.7-8.1z"/></g><g><path class="st2" d="M760.7 428.9c-.9-.5-2-.4-3.3.3a10.3 10.3 0 00-4.7 8.1l.1 21.7c0 1.5.5 2.5 1.4 3l2.6 1.5c-.8-.5-1.4-1.5-1.4-3l-.1-21.7c0-3 2.1-6.6 4.7-8.1 1.3-.8 2.5-.8 3.3-.3l-2.6-1.5z"/><path class="st8" d="M760 430.7c2.6-1.5 4.7-.3 4.7 2.7l.1 21.7c0 3-2.1 6.6-4.7 8.1s-4.7.3-4.7-2.7l-.1-21.7c0-3 2.1-6.6 4.7-8.1z"/></g><path class="st10" d="M325.4 747c18.9 0 34.1 8.6 34.1 19.1 0 3.8-2 7.3-5.3 10.3-3 17 32.1 22.7 48.3 25.9 29.6 0 53.5 10.5 53.5 23.5s-24 23.5-53.5 23.5c-29.6 0-53.5-10.5-53.5-23.5 0-4 2.3-7.7 6.2-11 6.2-11-29.8-29.6-29.8-29.6-18.9 0-34.1-8.6-34.1-19.1s15.2-19.1 34.1-19.1z"/><path class="st11" d="M507.6 523.3l-12.9-20.6c-1-1.6-.5-3.8 1.1-4.8s3.8-.5 4.8 1.1l9.4 15 29.4-15.7a3.5 3.5 0 013.2 6.2l-35 18.8z" style="animation:scaleanim 700ms ease 0ms infinite alternate;transform-origin:51.1% 51%"/><path class="st11" d="M507.6 455.3l-12.9-20.6c-1-1.6-.5-3.8 1.1-4.8s3.8-.5 4.8 1.1l9.4 15 29.4-15.7a3.5 3.5 0 013.2 6.2l-35 18.8z" style="animation:scaleanim 1000ms ease 0ms infinite alternate;transform-origin:50.9% 44.9%"/><path class="st11" d="M507.6 583.3l-12.9-20.6c-1-1.6-.5-3.8 1.1-4.8s3.8-.5 4.8 1.1l9.4 15 29.4-15.7a3.5 3.5 0 013.2 6.2l-35 18.8z" style="animation:scaleanim 1200ms ease 0ms infinite alternate;transform-origin:51.1% 57.3%"/><path class="st11" d="M507.6 645.3l-12.9-20.6c-1-1.6-.5-3.8 1.1-4.8s3.8-.5 4.8 1.1l9.4 15 29.4-15.7a3.5 3.5 0 013.2 6.2l-35 18.8z" style="animation:scaleanim 600ms ease 0ms infinite alternate;transform-origin:51.1% 63.6%"/><g><path class="st12" d="M315.2 611s.7 11.6 1.7 15.3c0 0 7.2 0 15.4-3.4 4.2-1.8 4.7-3.8 4.7-3.8s-4.9-11.3-6.2-12.9l-15.6 4.8z"/><path class="st12" d="M337 619.1s2.2 2.4 2.9 4.8c0 0 6.1 7.2 5.1 8.5-1 1.4-2.2 4.2-3 4.9-.8.6-7.9 1.8-12 .3-4.2-1.5-12.2-6.5-13-11.4l20-7.1z"/><path d="M314 612.7s11.6 2.7 19.4-7.2l-2.2-6.5-20.1 7.9 2.9 5.8z" fill="#d4dcff"/><path d="M322.7 449c-16.1-1.4-26.8 40.2-32.3 65.5-5.5 25.3-6.4 29.1-4.4 36 2 6.8 7.1 27 15.2 36.1 8.1 9.1 5.9 21.3 10.1 22.5 4.1 1.2 22.7-4.6 21.8-11.3-.9-6.6-7.9-13.4-9.4-19.9-1.5-6.6-12-36.5-12-36.5s14.4-26.7 17.9-36.8c3.3-10.2 15.6-53.7-6.9-55.6z" fill="#37376e"/><path class="st12" d="M479.7 508.2s-1.1-8.3.3-12.6c1.4-4.3 2.2-9.1 3.8-9.7 1.6-.6 6.4-3.9 7.9-3 1.5 1 1.1 3.9 1.1 3.9l-13.1 21.4z"/><path class="st15" d="M478.5 510.5l7.3-22.6s14.7-4.8 26.6 13.5c0 0-12.3 16.9-17.7 17.3l-16.2-8.2z"/><path class="st15" d="M486 488.1s8.8-24.8 12.6-27.5c3.8-2.6 3.9 2.1 2.5 5.6-1.4 3.5-4.2 15.2-4.2 15.2s3-2.3 4.8-.2c1.9 2 .6 3.5.6 3.5s2.5-1.1 4.4.9c1.9 2 1.8 4 1.8 4s4.7 1.7 3.8 4c0 0 1.6 5.9.3 7.5l-26.6-13zM381.8 441.4c-2.8-.4-4.4 1.8-4.6 4.1l-.9 14.3s-9 6.9-16.7 4.3c-7.7-2.6-13.5-6.4-13.3-11.1.2-4.7 3.4-7.3 4-11.4s2.1-12.3.9-16.1c-1.2-3.8 10-2.6 16.3 1.6 6.4 4.2 8.8 6 8.8 6l5.5 8.3z"/><circle transform="rotate(-80.8 369.1 402.4)" class="st15" cx="369.1" cy="402.4" r="29.3"/><path class="st16" d="M339.6 396s-4.5 1.6-4.3 8.2c.2 6.6 12.4 18.2 13.2 21.3.8 3.1 3 6.2 3 6.2s1.1-.7 5.6-.9c4.5-.1 7.8 2.8 7.8 2.8l8.9-10.4 4.5-12.2 2.3-14.8-41-.2z"/><path class="st17" d="M367.2 414.4s-1.9 7.7.5 10.5 4.4.3 4.4.3l-4.9-10.8zM370.4 399.5c-5.9 1.8-16.1 3.2-17.6 6.9s0 8.4 0 8.4-4.7-3.3-4-7.7l.6-4.3s-7 4.8-9.4 1.8c-2.4-3-.5-8.6-.5-8.6l30.9 3.5z"/><path d="M401.6 380.7c-1-8.1-4.4-10.9-10.5-12.8-6.1-2-7.4-2.2-12.2-4.7-4.8-2.5-8.2-.9-9.5 1.3 0 0-12.4-2.9-17.1-1.7-4.7 1.2-4.2 7.6-4.2 7.6s-4.6-2.1-7 2.1c-2.4 4.2-2 8.3-2 8.3s-4.8 1-5.4 6.1c-.6 5.1 5.4 11.8 18.6 13 13.2 1.2 22-.4 28.3-3.5 6.2-3.2 16-3.3 16-3.3l5.1-6.5v-5.9z" fill="#ffd461"/><path class="st16" d="M374.5 386.7s-9.8-4.2-16-5.2c-6.3-1.1-15.6-2.1-15.6-2.1l-1.2-1.1s11.2-4.1 18.6-1.5c7.4 2.5 14.2 9.9 14.2 9.9zM364.6 372.4c7.1 2.4 15 5.5 15 5.5s-10.2-8-14.3-9.9a26.3 26.3 0 00-13.4-.7c-1.6.5-2.4 2.9-2.4 2.9s10.1.5 15.1 2.2zM398.1 398s6-11.3 3.5-17.4c0 0-.8 9.5-6.8 11.3-5.9 1.8-13.1 1.5-15.7 5.9-2 3.4-1.5 16.5-1.1 22.4a2.6 2.6 0 004.4 1.8l.1-.1 3.8-8.7s-1.1-6.5-.8-9.3l12.6-5.9z"/><path class="st17" d="M369.4 364.4s9.8 2.9 11.3 3.6c0 0-6.3-4.7-8.6-4.5-2.2.3-2.7.9-2.7.9zM348.2 370.3s10.3-.5 16.5 2.1c0 0-6.7-4.4-12.7-5.1-2.1-.2-3.8 3-3.8 3zM339.2 380.7c6.8-1 15.3-.5 19.3.8 0 0-10.8-4.6-14.1-4.3-3.3.3-5.2 3.5-5.2 3.5z"/><path class="st15" d="M398.4 402.4s.7 11-.9 20.6c-1.6 9.6-5 13.9-4.7 16.2.3 2.2-4.5 2.6-8.3 2.3-3.8-.3-8.8 0-9.8-4.4s-.9-5.9-.9-5.9l24.6-28.8z"/><path class="st19" d="M391.2 441.1c-4.3.1-14.8-5.5-16.5-3.9-1.6 1.6-.3 8.6-.6 10.6s2.6 3.7 2.6 3.7.3-9 2.3-9.5 5.7-.3 7.6-.3c1.8-.1 4.6-.6 4.6-.6z"/><path class="st15" d="M398.4 410.3s3 10.5 3.2 13c.2 2.5-6.7 2.3-6.7 2.3l3.5-15.3z"/><path class="st20" d="M384.1 828.8l-.9 10.1s6.7 3.9 13.1 3.1c6.3-.8 9.8-5.1 14.5-7.2 4.7-2.1 11.7-1.7 18-4.8 6.3-3.1 7.4-11.8 6.3-15.6-1.1-3.8-12-.6-16.7 0-4.6.6-15.5 5-15.5 5l-18.8 9.4zM307.1 772.1L306 779s2.8 3.2 7.6 3.3c4.9.2 12-2.4 13.9-5.1 1.9-2.7 2.3-8.9 5.9-12.6 3.6-3.7 5.7-12.2 1.7-15.5s-9.6 1.1-9.6 1.1l-18.4 21.9z"/><path class="st21" d="M321.8 551.7s-8 13.1-7.2 28.5c.8 15.5 3.5 26.7 3.5 26.7s-4.5 69-5.7 74.3l-7.2 20.6c-1.3 3.6-1.4 44.9 0 54.4s0 17 0 17 2.8 4.2 7.8 4.2 15-9.8 15-9.8l-1.5-18.7 7.6-42.9s6.1-11.7 6.4-14.8l.9-7.8s15.5-35 19.5-59.6l-8.1-59.5-31-12.6z"/><path class="st21" d="M343.7 570.2s-4.5 26.6 2 39.1 13.5 17.5 13.5 17.5 14.7 78.8 15.5 89.4c.7 10.7-5 24.2-1.9 37.5s11.3 54.4 11.3 54.4L382 830s6.1 3 11.8 3.8c5.7.8 19-10.4 19-10.4l-2-27.1s-.1-59.4-3-77c0 0 5.4-52.4 5.1-82.3a216.6 216.6 0 00-13.9-70.6l-2.9-6-52.4 9.8z"/><path class="st22" d="M314.2 495.9c-.5-3.4-.8-7-.8-11.1.2-21.2-.6-35.5 11.6-39.5s34.3 1.5 34.3 1.5l22.4 13.2c11.6 7.3 30.3 20.4 30.7 33.4.4 13-12.7 58.4-11.8 68.3.5 5.4 8.1 21.7 8.8 32.6.6 9.1-8.1 13.4-8.1 13.4s-25.7 12.5-49.5 3.2a4.6 4.6 0 01-2.6-2.7l-4.8-14.6-1.9 6.7c-.9 3.1-4.2 3.6-7.1 2.2-8.7-4.2-23.6-14-23.6-23.3 0-7.7 4.3-19.5 6.9-32.2 1.7-8.4.8-27.8-1.9-40.2-1-3.3-2-6.9-2.6-10.9z"/><path d="M381.8 460l-2.7-9.2s-12.2-9.8-28.2-13.1l-6.4 6.2s-.2 3 9.4 6.4c9.4 3.6 25.3 7.8 27.9 9.7z" fill="#ebeeff"/><path class="st24" d="M388.9 464.7s-10.1-10.5-15.1-12.7c-5-2.3-20.5-6.3-26.1-11.2l-10.8 3.2s-2.2 7.4 7.5 11.3c9.7 3.9 36.9 6.4 44.5 9.4z"/><path class="st19" d="M377.3 425.9s-1.1 3.5-6.4.7l1.2-2.2 5.2 1.5z"/><path class="st15" d="M378.3 411.1s-.8-5.7-5.6-4.5-7.4 10.3-3.7 15c3.7 4.7 4.2 5.3 8.4 4.3l.9-14.8z"/><path class="st19" d="M376 410.3s-1.5-2.6-3.9-.7-4.1 6.5-2.1 9.2c0 0 .6-6.7 2.6-7.3l3.4-1.2zM401.6 423.2s-2.9 1.5-6.7.4l2.2 1.9s4.5 0 4.5-2.3z"/><path d="M493.9 521.8l2.2-4.2-4.8-5c-2.2-2.2-8.4-2.6-10.6-2.4l-2.2.2-2.1 4 17.5 7.4z" fill="#abc2fe"/><path class="st22" d="M495.4 520.9s-2.6-5.5-10.9-7.6c-8.3-2.1-10 1.1-11.2 3.8a90 90 0 01-19.5 16.9c-6.3 3.9-23 14.6-26.6 21.6s18.4 25.8 18.4 25.8 15.3-10.4 22.9-19.2c7.5-8.8 18.7-31.2 21.5-33.7s5.2-4.3 5.4-7.6z"/><path class="st24" d="M410.1 488.3c11.5 2.3 24.3 47.4 30.6 56.7 6.3 9.3 18.4 27.1 4.8 36.4-13.6 9.3-33.6-24.3-45.3-36.4-11.7-12.2-18.8-42.7-10.3-50.7 8.5-7.9 13.9-7.3 20.2-6z"/><path class="st22" d="M412.8 823.3l-10-17.9s-9.9-66.8-8.4-69.5l6.5-11.5s-1.1-6.7-8-11.5c-6.8-4.8 3-22.1 3-33.3 0-11.2-8-48.4-8-53s14.8-11 21.4-22.1c1.9 10.4 3.3 21.7 3.4 32.5.4 29.9-5.1 82.3-5.1 82.3 2.9 17.6 3 77 3 77l2.2 27zM321.6 745.3l7.1-40.6 8.6-13.8s-2.3-5.6-4-10.7c-1.7-5.2 3.3-10.6 6.9-16 2.9-4.2 14.3-24 18.8-31.8-5.6 23.4-17.7 50.8-17.7 50.8l-.9 7.8a85.6 85.6 0 01-6.4 14.8l-7.6 42.9 1.5 18.7s-2.9 2.9-6.4 5.5v-27.6z"/></g><g><path d="M860.2 376.4c-2.6 1.3-5.4 2.6-8 4.1 4.7 3 8.5 9.5 8.7 15 2.4-1.5 5-2.8 7.6-4.1a20.7 20.7 0 00-8.3-15z" fill="#626df6"/><path class="st27" d="M860.9 395.6v.5l-.2 54c0 2.9-1 4.9-2.7 5.9l7.6-4.4c1.6-1 2.7-3 2.7-5.9l.2-54v-.2c-2.6 1.4-5.2 2.6-7.6 4.1z"/><path d="M859.4 375.9l-47-27.1c-2.5-1.5-4.8-1.6-6.5-.6l-7.6 4.4c1.7-1 4-.8 6.5.6l47 27.1.4.3c2.6-1.5 5.4-2.8 8-4.1l-.8-.6z" fill="#828bf6"/><path class="st29" d="M851.8 380.3c5 2.9 9.1 10 9.1 15.8l-.2 54c0 5.8-4.1 8.1-9.2 5.2l-47-27.1c-5-2.9-9.1-10-9.1-15.8l.2-54c0-5.8 4.1-8.1 9.2-5.2l47 27.1z"/><path class="st30" d="M849.2 416l-.7-1.1-.3-.4.3.4c.4-.5.6-1.3.6-2.2 0-1.4-.5-3-1.3-4.3a9 9 0 00-3.1-3.3l-14.7-8.5v-13.5c0-1.4-.5-3-1.3-4.3a9 9 0 00-3.1-3.3l-1.6-.9c-.8-.4-1.5-.5-2-.3s-.9.8-1 1.6a26 26 0 01-.7 4c-.4 1.5-1 3-2 4a28.3 28.3 0 00-3.5 5.3l-.3.5-1-.8-4.4-2.6c-.8-.5-1.6-.5-2.1-.2s-.9 1-.9 1.9l-.1 22c0 .9.3 2 .9 2.9.5.9 1.3 1.7 2.1 2.2l4.4 2.6c.8.5 1.6.5 2.1.2.4-.2.7-.6.8-1.2l-1.1-1.5 1.1 1.5.4.5 2.6 3.1 1.4 1.4 1.5 1.1 19.2 11.1c1.2.7 2.3.8 3.1.3.8-.5 1.3-1.4 1.3-2.8l-.3-2.1c.8.2 1.4.1 2-.2.8-.5 1.3-1.4 1.3-2.8a7 7 0 00-.6-2.8c.3 0 .5-.1.7-.3.8-.5 1.3-1.4 1.3-2.8.3-1.4-.2-3-1-4.4zm-1.6-2zm-31.6-2.1zm-6.9-.1l.1-22 4.4 2.6-.1 22-4.4-2.6zm5.2 1.8l.1.1-.1-.1zm30.3 5l-5.9-3.4c-.8-.5-1.5-.1-1.5.8s.7 2.1 1.5 2.5l5.9 3.4c.4.2.8.6 1 1.1.3.5.4 1 .4 1.4 0 .5-.2.8-.4.9-.3.2-.6.1-1-.1l-2.9-1.7-2.9-1.7c-.8-.5-1.5-.1-1.5.8s.7 2.1 1.5 2.5l2.9 1.7c.4.2.8.6 1 1.1.3.5.4 1 .4 1.4 0 .5-.2.8-.4.9-.3.1-.6.1-1-.1L822.5 419l-.8-.6-1.8-1.9c-1-1.1-1.9-2.4-2.6-3.4l-.6-.9.1-18.4 1-2.3c.7-1.4 1.8-3.2 3.2-4.8a12 12 0 002.4-4.8c.5-1.7.7-3.3.8-4.5l1.6.9c.4.2.8.6 1 1.1.3.5.4 1 .4 1.4V396c0 .9.7 2.1 1.5 2.5l16.2 9.4c.4.2.8.6 1 1.1.3.5.4 1 .4 1.4 0 .5-.2.8-.4.9-.3.2-.6.1-1-.1l-4.4-2.6-1.5-.9c-.8-.5-1.5-.1-1.5.8s.7 2.1 1.5 2.5l1.5.9 4.4 2.6 1.5.9c.4.2.8.6 1 1.1.3.5.4 1 .4 1.4 0 .5-.2.8-.4.9-.3.2-.6.1-1-.1l-1.8-.1a10.9 10.9 0 000 0zm-5.9-8v-.1.1zm1.3 2l-.1-.1.1.1z"/></g><g><path d="M856.5 487c-2.6 1.3-5.4 2.6-8 4.1 4.7 3 8.5 9.5 8.7 15 2.4-1.5 5-2.8 7.6-4.1a20.3 20.3 0 00-8.3-15z" fill="#f2cb63"/><path class="st16" d="M857.2 506.1v.5l-.2 54c0 2.9-1 4.9-2.7 5.9l7.6-4.4c1.6-1 2.7-3 2.7-5.9l.2-54v-.2c-2.6 1.4-5.2 2.6-7.6 4.1z"/><path d="M855.7 486.4l-47-27.1c-2.5-1.5-4.8-1.6-6.5-.6l-7.6 4.4c1.7-1 4-.8 6.5.6l47 27.1.4.3c2.6-1.5 5.4-2.8 8-4.1l-.8-.6z" fill="#ffe291"/><path d="M848.1 490.9c5 2.9 9.1 10 9.1 15.8l-.2 54c0 5.8-4.1 8.1-9.2 5.2l-47-27.1c-5-2.9-9.1-10-9.1-15.8l.2-54c0-5.8 4.1-8.1 9.2-5.2l47 27.1z" fill="#ffcd45"/><g><path class="st30" d="M825.9 505.6c0-1-.7-2.1-1.5-2.6s-1.5-.1-1.5.9v9.9c-1.8-.3-3 .9-3 3.2 0 2.3 1.3 4.9 3 6.7v2.9c0 1 .7 2.1 1.5 2.6s1.5.1 1.5-.9v-2.9c1.8.3 3-.9 3-3.2 0-2.3-1.3-4.9-3-6.7v-9.9zm-1.6 15.7a3.5 3.5 0 01-1.5-2.6c0-1 .7-1.4 1.5-.9.8.5 1.5 1.7 1.5 2.6.1 1-.6 1.4-1.5.9z"/><path class="st30" d="M841.4 516.3l2.3-1.3c.3-.2.4-.5.4-1s-.2-1-.4-1.5l-4.3-7.4c-.3-.5-.7-.9-1.1-1.1-.4-.2-.8-.3-1.1-.1l-2.5 1.4a42.7 42.7 0 00-5.9-6.1v-2.3l1.5.9c.8.5 1.5.1 1.5-.9s-.7-2.1-1.5-2.6l-3-1.7-6.1-3.5-3-1.7c-.8-.5-1.5-.1-1.5.9s.7 2.1 1.5 2.6l1.5.9v2.3c-2.1-.7-4.1-.9-5.9-.7l-2.4-4.2c-.3-.5-.7-.9-1.1-1.1-.4-.2-.8-.3-1.1-.1l-4.3 2.5c-.3.2-.4.5-.4 1s.2 1 .4 1.5l2.3 3.9a16.4 16.4 0 00-3.5 11.1 45 45 0 0020.5 35.3c11.3 6.5 20.5 1.2 20.5-11.8.2-5-1.1-10.2-3.3-15.2zm-3.1-8.1l2.1 3.7-.9.5a45 45 0 00-2.2-3.7l1-.5zm-15.5-14.8l3 1.7v1.7l-3-1.7v-1.7zm-12.4-1.3l1 1.7-2.2 1.1-.9-1.6 2.1-1.2zm13.9 47.5a38.4 38.4 0 01-17.5-30.1c0-4.4 1.3-7.8 3.4-9.9h.1l.3-.3c3.2-2.8 8.1-2.9 13.7.3 5.5 3.2 10.5 9 13.7 15.4l.3.7.1.2c2.1 4.6 3.4 9.4 3.4 13.8 0 10.9-7.8 15.4-17.5 9.9z"/></g></g><g><path class="st34" d="M875.7 333.2a9 9 0 014.1 7.2l-.1 24.5c0 2.6-1.9 3.7-4.2 2.4L854.2 355a9 9 0 01-4.1-7.2l.1-24.5c0-2.6 1.9-3.7 4.2-2.4l21.3 12.3z"/></g><g><path class="st34" d="M835.3 584.4c1.4.8 2.5 2.7 2.5 4.3v14.5c0 1.6-1.1 2.2-2.5 1.4l-12.6-7.3a5.4 5.4 0 01-2.5-4.3v-14.5c0-1.6 1.1-2.2 2.5-1.4l12.6 7.3z"/></g><g><path class="st34" d="M909.2 573.9c2.6 1.5 4.8 5.2 4.8 8.3l-.1 28.3c0 3-2.2 4.3-4.8 2.7L884.5 599a10.6 10.6 0 01-4.8-8.3l.1-28.3c0-3 2.2-4.3 4.8-2.7l24.6 14.2z"/></g><g><ellipse transform="rotate(-.2 190.9 747.8)" cx="190.9" cy="747.8" rx="48.6" ry="28.1" opacity=".1"/><path class="st36" d="M251.8 671.9h-121l19.6 78.4h.1c.5 4.3 4.2 8.8 10.3 12.3a62 62 0 0030.3 7.2 63 63 0 0030.5-7.2c6.2-3.6 9.9-8 10.5-12.3h.1l19.6-78.4z"/><ellipse transform="rotate(-.2 191.3 671.5)" cx="191.3" cy="671.5" rx="60.5" ry="35" fill="#dee1ff"/><path d="M191.1 696.4c14.3 0 28.3-3.3 38.2-9 8.4-4.9 13.2-11 13.2-16.9 0-5.8-4.7-11.9-13-16.7-9.9-5.7-23.7-9-38.1-9a79.3 79.3 0 00-38.2 9c-8.4 4.9-13.2 11-13.2 16.9 0 5.8 4.7 11.9 13 16.7 9.9 5.7 23.7 9 38.1 9z" fill="#b35810"/><path class="st36" d="M153.3 668.5c9.9-5.7 23.9-9 38.2-9 14.3 0 28.2 3.3 38.1 9 4.8 2.8 8.4 6 10.6 9.3 1.6-2.4 2.4-4.9 2.4-7.4 0-5.8-4.7-11.9-13-16.7-9.9-5.7-23.7-9-38.1-9a79.3 79.3 0 00-38.2 9c-8.4 4.9-13.2 11-13.2 16.9 0 2.4.8 4.9 2.4 7.4 2.2-3.4 5.9-6.6 10.8-9.5z"/><path d="M181.9 670c-5.7-5.3-4.6-15-.5-21.6s10.4-11.7 14.9-18.1c6.1-8.7 3.3-19 6.2-29.2s12.3-21 20.5-27.8c8.2-6.7 17.7-6.8 24.8 1.2 1.4 12.9-2 23.7-9.5 34.2-7.5 10.5-15.8 21.6-16.5 34.5-.4 7.8 2 16.4-2 23.1-5 8.6-16.9 9.3-26.8 9.1l-11.1-5.4z" fill="#2b73a3"/><path d="M191.2 673.9c4.2-6.8 1.1-15.9-3.6-22.4-4.7-6.5-10.9-12.1-13.8-19.6-3.2-8.4-1.6-17.8-2.1-26.9a41.5 41.5 0 00-10.4-26.3c-6.6-7-17-10.7-26.3-7.9-9.2 2.7-16.2 12.7-14.3 22.1 1.3 6.5 6.2 11.6 9.8 17.2a48 48 0 017.4 27.1c-.2 5.7-1.5 11.7.5 17 2.8 7.6 11 11.5 18.7 14 5.9 1.9 12.2 3.6 17.2 7.1a11 11 0 0010.4 1.2l6.5-2.6z" fill="#3ea6ed"/><path d="M187.3 678.8c5.6 1.7 11.6-.5 14.8-5.3 10-15 14-35.4 6-50.9-3.6-6.9-3.1-13.1-4.5-20.7-3.3-18.1 6.5-34.1 2.1-51.9a21.3 21.3 0 00-12.9-14.5 21.1 21.1 0 00-19.3 2.5c-10.7 7.5-12 23-9.7 35.9 2.3 12.9 7.3 25.8 5.1 38.7-2 11.9-9.8 24.2-4.8 35.2 2.6 5.6 8 9.3 12.5 13.6 4.5 4.3 8.4 10.4 6.7 16.3l4 1.1z" fill="#3896d6"/><g><path class="st42" d="M187.9 680.2c-.4 0-.8-.1-1.1-.4-.8-.6-1-1.8-.4-2.6 5.4-7.3 6.4-18.3 3-32.5l-1.9-7.4c-2.4-9-4.9-18.4-3.9-27.9.5-4.5 1.7-8.8 2.9-13a106 106 0 002.4-9.3c.7-4 1.8-13.9-4.3-19.6-.8-.7-.8-1.9-.1-2.7.7-.8 1.9-.8 2.7-.1 5.3 5 7.2 13.4 5.5 23.1-.6 3.3-1.6 6.6-2.5 9.7-1.2 4.2-2.4 8.2-2.8 12.4-.9 8.8 1.5 17.8 3.8 26.5l1.9 7.5c3.7 15.3 2.4 27.3-3.7 35.6a2 2 0 01-1.5.7z"/></g></g><g><path d="M790.2 931.8L570.8 800.9l-57.7 32.2 224.2 129.7z"/><path fill="#aeb4f2" d="M545.2 675.7l20.7 130.8 216.9 125.2L762 800.9z"/><path class="st36" d="M782.8 931.7l4.4-3.5-20.7-130.8-4.5 3.5z"/><path class="st44" d="M766.7 830.5l4.5-3.5-4.7-29.6-4.5 3.5z"/><path class="st45" d="M762 800.9l4.5-3.5-216.9-125.2-4.4 3.5z"/><path class="st7" d="M545.2 675.7l4.7 29.8 216.8 125.2-4.7-29.8z"/><path fill="#dbdeff" d="M543.8 674.9l-23.2 158.4 216.8 125.2 23.2-158.4z"/><path class="st36" d="M737.4 958.5l6.1-2.6 23.2-158.3-6.1 2.5z"/><path class="st44" d="M755.7 833.8l6-2.6 5-33.6-6.1 2.5z"/><path class="st45" d="M760.6 800.1l6.1-2.5-216.9-125.3-6 2.6z"/><path class="st7" d="M543.8 674.9l-4.9 33.5 216.8 125.2 4.9-33.5z"/><path class="st30" d="M631.7 779.3l-2.3 15.7 24.1 13.9 2.3-15.7zM658.4 794.7l-2.3 15.7 24 13.9 2.3-15.7z"/><path class="st7" d="M685.1 810.1l-2.3 15.7 24 13.9 2.3-15.7zM709 844l-2.3 15.7 24 13.8 2.3-15.7zM711.7 825.5l-2.3 15.7 24 13.8 2.3-15.6z"/><g class="st47"><path class="st30" d="M543.7 788.6l-2.3 15.7 24 13.9 2.3-15.7zM546.4 770.1l-2.3 15.7 24 13.9 2.3-15.7zM549.1 751.6l-2.3 15.7 24 13.9 2.3-15.7z"/></g><path class="st30" d="M573 785.5l-2.3 15.7 24 13.9 2.3-15.7zM575.7 767l-2.3 15.7 24.1 13.9 2.3-15.7zM594.3 837.9l-2.3 15.7 24 13.8 2.3-15.7z"/><g class="st47"><path class="st30" d="M597 819.4l-2.3 15.7 24 13.9 2.3-15.7zM599.7 800.9l-2.3 15.7 24 13.9 2.3-15.7z"/></g><path class="st30" d="M602.4 782.4l-2.3 15.7 24 13.9 2.3-15.7zM629 797.8l-2.3 15.7 24.1 13.9 2.3-15.7zM650.3 850.2l-2.3 15.7 24 13.8 2.3-15.7zM653 831.7l-2.3 15.7 24 13.8 2.3-15.7zM655.7 813.2l-2.3 15.7 24 13.9 2.3-15.7z"/><path class="st7" d="M679.6 847.1l-2.3 15.7 24.1 13.8 2.3-15.7zM682.4 828.6l-2.3 15.7 24 13.8 2.3-15.6z"/><path class="st30" d="M626.3 816.3L624 832l24.1 13.9 2.3-15.7z"/><path class="st7" d="M703.6 880.9l-2.3 15.7 24 13.9 2.3-15.7zM706.3 862.5l-2.3 15.7 24 13.8 2.3-15.7z"/><path class="st30" d="M567.6 822.5l-2.3 15.7 24 13.9 2.3-15.7zM570.3 804l-2.3 15.7 24 13.9 2.3-15.7zM620.9 853.3l-2.3 15.7 24 13.8 2.3-15.7zM623.6 834.8l-2.3 15.7 24 13.8 2.3-15.7z"/><path class="st7" d="M676.9 865.6l-2.3 15.7 24.1 13.8 2.3-15.7z"/><path class="st30" d="M540.9 807.1l-2.3 15.7 24.1 13.9L565 821z"/><g><path class="st44" d="M744.9 798.4c-2.5-1.5-4.6-.3-4.6 2.6s2 6.5 4.6 8c2.5 1.5 4.6.3 4.6-2.6 0-3-2.1-6.6-4.6-8z"/><g class="st47"><path class="st48" d="M754.8 782.9l-2.6-1.5 1.2 1c.7 1 1.1 2.3 1.2 4 0 1.3-.2 2.6-.6 4l2.6 1.5c.4-1.3.6-2.7.6-4v-.4-.2-.4-.4-.1l-.1-.3-.1-.4-.1-.4-.1-.3-.3-.6-.1-.2a.8.8 0 01-.2-.4l-.1-.2-.3-.3-.1-.1-.1-.1-.1-.1-.2-.2c-.4.2-.5.2-.5.1zM741 800.6l2.4 1.4.2.1.2.1.2.1.5.2.3.1H745.4c.9 0 1.8-.2 2.9-.6.3-.1.3-.1 0 0a8 8 0 00-1.5-2.1l-.2.1c-1.5.9-3 1.2-4.2 1-.5 0-1-.1-1.4-.4z"/><path class="st49" d="M746.5 776.8c3.4-2 6.5-2.2 8.8-.9l2.6 1.5c-2.3-1.3-5.4-1.1-8.8.9a27 27 0 00-12.3 21.4c0 3.9 1.4 6.6 3.6 7.9l-2.6-1.5c-2.2-1.3-3.6-4-3.6-7.9 0-7.9 5.5-17.5 12.3-21.4z"/><path class="st50" d="M749.1 778.3l.4-.2.3-.2.4-.2.4-.2.4-.2.4-.1 1-.3.7-.2.3-.1h2l.3.1.4.1h.1l.4.1.3.1.2.1.2.1h.1l.1.1.1.1h.1c2.2 1.3 3.6 4 3.6 7.9 0 2.7-.6 5.6-1.8 8.5l-3.3-1.9c.4-1.3.6-2.7.6-4v-.4-.2-.4-.4-.1l-.1-.3-.1-.4-.1-.4-.1-.3-.3-.6-.1-.2a.8.8 0 01-.2-.4l-.1-.2-.3-.3-.1-.1-.1-.1-.1-.1-.2-.2-.3-.2c-.4-.3-.9-.4-1.5-.5-1.2-.2-2.6.2-4.2 1a17.2 17.2 0 00-7.9 13.6c0 1.7.4 3.1 1.1 4 .3.4.6.7 1 .9l.4.2.2.1.5.2.3.1H745.1c.9 0 1.8-.2 2.9-.6.3-.1.3-.1 0 0a10 10 0 011.2 4.2v.3l-.3.2c-3.4 2-6.5 2.2-8.8.9l-.1-.1-.1-.1-.3-.2-.2-.1-.6-.6-.1-.1-.2-.3-.1-.2-.2-.3-.1-.1-.2-.3-.2-.4-.1-.2-.1-.3-.1-.2-.2-.5-.1-.2v-.1l-.1-.4-.1-.3-.1-.3-.1-.5v-.2-.4-.3-.4-.3-.5c.1-7.5 5.6-17 12.4-21z"/></g><path class="st44" d="M707.8 777.2c-2.5-1.5-4.6-.3-4.6 2.6s2 6.5 4.6 8c2.5 1.5 4.6.3 4.6-2.6 0-3-2.1-6.5-4.6-8z"/><g class="st47"><path class="st48" d="M717.6 761.8l-2.6-1.5 1.2 1c.7 1 1.1 2.3 1.2 4 0 1.3-.2 2.6-.6 4l2.6 1.5c.4-1.3.6-2.7.6-4v-.4-.2-.4-.4-.1l-.1-.3-.1-.4-.1-.4-.1-.3-.3-.6-.1-.2a.8.8 0 01-.2-.4l-.1-.2-.3-.3-.1-.1-.1-.1-.1-.1-.2-.2c-.3.2-.4.1-.5.1zM703.8 779.5l2.4 1.4.2.1.2.1.2.1.5.2.3.1H708.2c.9 0 1.8-.2 2.9-.6.3-.1.3-.1 0 0a8 8 0 00-1.5-2.1l-.2.1c-1.5.9-3 1.2-4.2 1-.4 0-.9-.2-1.4-.4z"/><path class="st49" d="M709.4 755.7c3.4-2 6.5-2.2 8.8-.9l2.6 1.5c-2.3-1.3-5.4-1.1-8.8.9a27 27 0 00-12.3 21.4c0 3.9 1.4 6.6 3.6 7.9l-2.6-1.5c-2.2-1.3-3.6-4-3.6-7.9a27 27 0 0112.3-21.4z"/><path class="st50" d="M712 757.2l.4-.2.3-.2.4-.2.4-.2.4-.2.4-.1 1-.3.7-.2.3-.1h2l.3.1.4.1h.1l.4.1.3.1.2.1.2.1h.1l.1.1.1.1h.1c2.2 1.3 3.6 4 3.6 7.9 0 2.7-.6 5.6-1.8 8.5l-3.3-1.9c.4-1.3.6-2.7.6-4v-.4-.2-.4-.4-.1l-.1-.3-.1-.4-.1-.4-.1-.3-.3-.6-.1-.2a.8.8 0 01-.2-.4l-.1-.2-.3-.3-.1-.1-.1-.1-.1-.1-.2-.2-.3-.2c-.4-.3-.9-.4-1.5-.5-1.2-.2-2.6.2-4.2 1a17.2 17.2 0 00-7.9 13.6c0 1.7.4 3.1 1.1 4 .3.4.6.7 1 .9l.4.2.2.1.5.2.3.1H708c.9 0 1.8-.2 2.9-.6.3-.1.3-.1 0 0a10 10 0 011.2 4.2v.3l-.3.2c-3.4 2-6.5 2.2-8.8.9l-.1-.1-.1-.1-.3-.2-.2-.1-.6-.6-.1-.1-.2-.3-.1-.2-.2-.3-.1-.1-.2-.3-.2-.4-.1-.2-.1-.3-.1-.2-.2-.5-.1-.2v-.1l-.1-.4-.1-.3-.1-.3-.1-.5v-.2-.4-.3-.4-.3-.5c0-7.5 5.6-17.1 12.4-21z"/></g></g><g><path class="st44" d="M667 753.8c-2.5-1.5-4.6-.3-4.6 2.6s2 6.5 4.6 8c2.5 1.5 4.6.3 4.6-2.6s-2.1-6.5-4.6-8z"/><g class="st47"><path class="st48" d="M676.8 738.4l-2.6-1.5 1.2 1c.7 1 1.1 2.3 1.2 4 0 1.3-.2 2.6-.6 4l2.6 1.5c.4-1.3.6-2.7.6-4v-.4-.2-.4-.4-.1l-.1-.3-.1-.4-.1-.4-.1-.3-.3-.6-.1-.2a.8.8 0 01-.2-.4l-.1-.2-.3-.3-.1-.1-.1-.1-.1-.1-.2-.2c-.3.2-.4.1-.5.1zM663.1 756.1l2.4 1.4.2.1.2.1.2.1.5.2.3.1H667.5c.9 0 1.8-.2 2.9-.6.3-.1.3-.1 0 0a8 8 0 00-1.5-2.1l-.2.1c-1.5.9-3 1.2-4.2 1-.5 0-1-.1-1.4-.4z"/><path class="st49" d="M668.6 732.3c3.4-2 6.5-2.2 8.8-.9l2.6 1.5c-2.3-1.3-5.4-1.1-8.8.9a27 27 0 00-12.3 21.4c0 3.9 1.4 6.6 3.6 7.9l-2.6-1.5c-2.2-1.3-3.6-4-3.6-7.9a27 27 0 0112.3-21.4z"/><path class="st50" d="M671.2 733.8l.4-.2.3-.2.4-.2.4-.2.4-.2.4-.1 1-.3.7-.2.3-.1h2l.3.1.4.1h.1l.4.1.3.1.2.1.2.1h.1l.1.1.1.1h.1c2.2 1.3 3.6 4 3.6 7.9 0 2.7-.6 5.6-1.8 8.5l-3.3-1.9c.4-1.3.6-2.7.6-4v-.4-.2-.4-.4-.1l-.1-.3-.1-.4-.1-.4-.1-.3-.3-.6-.1-.2a.8.8 0 01-.2-.4l-.1-.2-.3-.3-.1-.1-.1-.1-.1-.1-.2-.2-.3-.2c-.4-.3-.9-.4-1.5-.5-1.2-.2-2.6.2-4.2 1a17.2 17.2 0 00-7.9 13.6c0 1.7.4 3.1 1.1 4 .3.4.6.7 1 .9l.4.2.2.1.5.2.3.1H667.2c.9 0 1.8-.2 2.9-.6.3-.1.3-.1 0 0a10 10 0 011.2 4.2v.3l-.3.2c-3.4 2-6.5 2.2-8.8.9l-.1-.1-.1-.1-.3-.2-.2-.1-.6-.6-.1-.1-.2-.3-.1-.2-.2-.3-.1-.1-.2-.3-.2-.4-.1-.2-.1-.3-.1-.2-.2-.5-.1-.2v-.1l-.1-.4-.1-.3-.1-.3-.1-.5v-.2-.4-.3-.4-.3-.5c.1-7.5 5.6-17.1 12.4-21z"/></g><path class="st44" d="M629.9 732.7c-2.5-1.5-4.6-.3-4.6 2.6s2 6.5 4.6 8c2.5 1.5 4.6.3 4.6-2.6s-2.1-6.5-4.6-8z"/><g class="st47"><path class="st48" d="M639.7 717.2l-2.6-1.5 1.2 1c.7 1 1.1 2.3 1.2 4 0 1.3-.2 2.6-.6 4l2.6 1.5c.4-1.3.6-2.7.6-4v-.4-.2-.4-.4-.1l-.1-.3-.1-.4-.1-.4-.1-.3-.3-.6-.1-.2a.8.8 0 01-.2-.4l-.1-.2-.3-.3-.1-.1-.1-.1-.1-.1-.2-.2c-.3.3-.4.2-.5.1 0 .1 0 0 0 0zM625.9 735l2.4 1.4.2.1.2.1.2.1.5.2.3.1H630.3c.9 0 1.8-.2 2.9-.6.3-.1.3-.1 0 0a8 8 0 00-1.5-2.1l-.2.1c-1.5.9-3 1.2-4.2 1-.5 0-.9-.2-1.4-.4z"/><path class="st49" d="M631.5 711.1c3.4-2 6.5-2.2 8.8-.9l2.6 1.5c-2.3-1.3-5.4-1.1-8.8.9a27 27 0 00-12.3 21.4c0 3.9 1.4 6.6 3.6 7.9l-2.6-1.5c-2.2-1.3-3.6-4-3.6-7.9a27.3 27.3 0 0112.3-21.4z"/><path class="st50" d="M634.1 712.7l.4-.2.3-.2.4-.2.4-.2.4-.2.4-.1 1-.3.7-.2.3-.1h2l.3.1.4.1h.1l.4.1.3.1.2.1.2.1h.1l.1.1.1.1h.1c2.2 1.3 3.6 4 3.6 7.9 0 2.7-.6 5.6-1.8 8.5l-3.3-1.9c.4-1.3.6-2.7.6-4v-.4-.2-.4-.4-.1l-.1-.3-.1-.4-.1-.4-.1-.3-.3-.6-.1-.2a.8.8 0 01-.2-.4l-.1-.2-.3-.3-.1-.1-.1-.1-.1-.1-.2-.2-.3-.2c-.4-.3-.9-.4-1.5-.5-1.2-.2-2.6.2-4.2 1a17.2 17.2 0 00-7.9 13.6c0 1.7.4 3.1 1.1 4 .3.4.6.7 1 .9l.4.2.2.1.5.2.3.1H630.1c.9 0 1.8-.2 2.9-.6.3-.1.3-.1 0 0a10 10 0 011.2 4.2v.3l-.3.2c-3.4 2-6.5 2.2-8.8.9l-.1-.1-.1-.1-.3-.2-.2-.1-.6-.6-.1-.1-.2-.3-.1-.2-.2-.3-.1-.1-.2-.3-.2-.4-.1-.2-.1-.3-.1-.2-.2-.5-.1-.2v-.1l-.1-.4-.1-.3-.1-.3-.1-.5v-.2-.4-.3-.4-.3-.5c0-7.5 5.6-17.1 12.4-21z"/></g></g><g><path class="st44" d="M598 713.8c-2.5-1.5-4.6-.3-4.6 2.6s2 6.5 4.6 8c2.5 1.5 4.6.3 4.6-2.6 0-3-2.1-6.6-4.6-8z"/><g class="st47"><path class="st48" d="M607.8 698.3l-2.6-1.5 1.2 1c.7 1 1.1 2.3 1.2 4 0 1.3-.2 2.6-.6 4l2.6 1.5c.4-1.3.6-2.7.6-4v-.4-.2-.4-.4-.1l-.1-.3-.1-.4-.1-.4-.1-.3-.3-.6-.1-.2a.8.8 0 01-.2-.4l-.1-.2-.3-.3-.1-.1-.1-.1-.1-.1-.2-.2c-.3.2-.4.2-.5.1zM594 716l2.4 1.4.2.1.2.1.2.1.5.2.3.1H598.4c.9 0 1.8-.2 2.9-.6.3-.1.3-.1 0 0a8 8 0 00-1.5-2.1l-.2.1c-1.5.9-3 1.2-4.2 1-.4.1-.9-.1-1.4-.4z"/><path class="st49" d="M599.6 692.2c3.4-2 6.5-2.2 8.8-.9l2.6 1.5c-2.3-1.3-5.4-1.1-8.8.9a27 27 0 00-12.3 21.4c0 3.9 1.4 6.6 3.6 7.9l-2.6-1.5c-2.2-1.3-3.6-4-3.6-7.9a27.1 27.1 0 0112.3-21.4z"/><path class="st50" d="M602.2 693.7l.4-.2.3-.2.4-.2.4-.2.4-.2.4-.1 1-.3.7-.2.3-.1h2l.3.1.4.1h.1l.4.1.3.1.2.1.2.1h.1l.1.1.1.1h.1c2.2 1.3 3.6 4 3.6 7.9 0 2.7-.6 5.6-1.8 8.5l-3.3-1.9c.4-1.3.6-2.7.6-4v-.4-.2-.4-.4-.1l-.1-.3-.1-.4-.1-.4-.1-.3-.3-.6-.1-.2a.8.8 0 01-.2-.4l-.1-.2-.3-.3-.1-.1-.1-.1-.1-.1-.2-.2-.3-.2c-.4-.3-.9-.4-1.5-.5-1.2-.2-2.6.2-4.2 1a17.2 17.2 0 00-7.9 13.6c0 1.7.4 3.1 1.1 4 .3.4.6.7 1 .9l.4.2.2.1.5.2.3.1H598.2c.9 0 1.8-.2 2.9-.6.3-.1.3-.1 0 0a10 10 0 011.2 4.2v.3l-.3.2c-3.4 2-6.5 2.2-8.8.9l-.1-.1-.1-.1-.3-.2-.2-.1-.6-.6-.1-.1-.2-.3-.1-.2-.2-.3-.1-.1-.2-.3-.2-.4-.1-.2-.1-.3-.1-.2-.2-.5-.1-.2v-.1l-.1-.4-.1-.3-.1-.3-.1-.5v-.2-.4-.3-.4-.3-.5c.1-7.4 5.6-17 12.4-21z"/></g><path class="st44" d="M560.9 692.6c-2.5-1.5-4.6-.3-4.6 2.6s2 6.5 4.6 8c2.5 1.5 4.6.3 4.6-2.6s-2.1-6.5-4.6-8z"/><g class="st47"><path class="st48" d="M570.7 677.2l-2.6-1.5 1.2 1c.7 1 1.1 2.3 1.2 4 0 1.3-.2 2.6-.6 4l2.6 1.5c.4-1.3.6-2.7.6-4v-.4-.2-.4-.4-.1l-.1-.3-.1-.4-.1-.4-.1-.3-.3-.6-.1-.2a.8.8 0 01-.2-.4l-.1-.2-.3-.3-.1-.1-.1-.1-.1-.1-.2-.2c-.3.2-.4.1-.5.1zM556.9 694.9l2.4 1.4.2.1.2.1.2.1.5.2.3.1H561.3c.9 0 1.8-.2 2.9-.6.3-.1.3-.1 0 0a8 8 0 00-1.5-2.1l-.2.1c-1.5.9-3 1.2-4.2 1-.5 0-.9-.1-1.4-.4z"/><path class="st49" d="M562.5 671.1c3.4-2 6.5-2.2 8.8-.9l2.6 1.5c-2.3-1.3-5.4-1.1-8.8.9a27 27 0 00-12.3 21.4c0 3.9 1.4 6.6 3.6 7.9l-2.6-1.5c-2.2-1.3-3.6-4-3.6-7.9a27 27 0 0112.3-21.4z"/><path class="st50" d="M565.1 672.6l.4-.2.3-.2.4-.2.4-.2.4-.2.4-.1 1-.3.7-.2.3-.1h2l.3.1.4.1h.1l.4.1.3.1.2.1.2.1h.1l.1.1.1.1h.1c2.2 1.3 3.6 4 3.6 7.9 0 2.7-.6 5.6-1.8 8.5l-3.3-1.9c.4-1.3.6-2.7.6-4v-.4-.2-.4-.4-.1l-.1-.3-.1-.4-.1-.4-.1-.3-.3-.6-.1-.2a.8.8 0 01-.2-.4l-.1-.2-.3-.3-.1-.1-.1-.1-.1-.1-.2-.2-.3-.2c-.4-.3-.9-.4-1.5-.5-1.2-.2-2.6.2-4.2 1A17.2 17.2 0 00557 691c0 1.7.4 3.1 1.1 4 .3.4.6.7 1 .9l.4.2.2.1.5.2.3.1H561.1c.9 0 1.8-.2 2.9-.6.3-.1.3-.1 0 0a10 10 0 011.2 4.2v.3l-.3.2c-3.4 2-6.5 2.2-8.8.9l-.1-.1-.1-.1-.3-.2-.2-.1-.6-.6-.1-.1-.2-.3-.1-.2-.2-.3-.1-.1-.2-.3-.2-.4-.1-.2-.1-.3-.1-.2-.2-.5-.1-.2v-.1l-.1-.4-.1-.3-.1-.3-.1-.5v-.2-.4-.3-.4-.3-.5c0-7.5 5.6-17.1 12.4-21z"/></g></g><path class="st36" d="M787.4 928.1v1.5l-4.5 2.2h-20l-19.3 24.1 1-7.7 17.5-21.9z"/><path fill="#9ea4e8" d="M762.1 926.3l-13.1-8.1.9-6.1 32.9 15.7z"/><path fill="#8c93ed" d="M762.1 926.3l-12.9-8.2-4.5 30z"/></g><g style="animation:translate 6000ms ease 500ms infinite"><g class="st47"><path d="M230.2 168.2c-67 38.7-112.9 127.7-102.5 198.8 10.4 71.1 73.2 97.4 140.2 58.7 67-38.7 112.9-127.7 102.5-198.8-10.4-71.1-73.2-97.4-140.2-58.7z" fill="#6666cf"/><path d="M206.4 158c33.7-19.5 66.4-22.5 91.8-11.6l23.8 10.2c-25.4-10.9-58.1-7.9-91.8 11.6-67 38.7-112.9 127.7-102.5 198.8 5.2 35.3 23.3 59.6 48.4 70.3l-23.8-10.2c-25.1-10.7-43.2-35-48.4-70.3-10.4-71.1 35.5-160.1 102.5-198.8z" fill="#7e7eff"/></g><path class="st30" d="M231 188.6c56.6-32.7 109.7-10.5 118.5 49.6 8.8 60.1-30 135.3-86.6 168s-109.7 10.5-118.5-49.6c-8.8-60.1 30-135.3 86.6-168z"/><path class="st55" d="M188.7 236.7c1.1-.6 2.2-.6 3 .1l6.9 6.9c1.1 1.1.9 3.4-.5 5.2l-1.5 1.4c-1.1.6-2.2.6-3-.1l-6.9-6.9c-1.1-1.1-.9-3.4.5-5.2a4 4 0 011.5-1.4zM160.5 291.3c.5-.3 1.1-.5 1.6-.5l10.3.3c1.6.1 2.5 1.8 1.8 3.9a6 6 0 01-2.5 3.3c-.5.3-1.1.5-1.6.5l-10.3-.3c-1.6 0-2.5-1.8-1.8-3.9a5.8 5.8 0 012.5-3.3zM183.2 376.7c1.1-.6 2.2-.6 3 .1 1.1 1.1.9 3.4-.5 5.2l-8.6 11.2-1.5 1.4c-1.1.6-2.2.6-3-.1-1.1-1.1-.9-3.4.5-5.2l8.6-11.2c.5-.6 1-1.1 1.5-1.4zM337.5 241.5c1.7-1 3.4-.3 3.6 1.5.3 1.8-.9 4.2-2.7 5.2l-10.9 6.3c-1.7 1-3.4.3-3.6-1.5-.3-1.8.9-4.2 2.7-5.2l10.9-6.3z"/><g class="st47"><path class="st55" d="M232.3 197.5c1.7-1 3.4-.3 3.6 1.5l1.7 11.5c.3 1.8-.9 4.2-2.7 5.2-1.7 1-3.4.3-3.6-1.5l-1.7-11.5c-.3-1.9.9-4.2 2.7-5.2z"/></g><path class="st55" d="M166.3 340.4c1.7-1 3.4-.3 3.6 1.5.3 1.8-.9 4.2-2.7 5.2l-10.9 6.3c-1.7 1-3.4.3-3.6-1.5-.3-1.8.9-4.2 2.7-5.2l10.9-6.3zM217.1 390.9c.5-.3 1.1-.5 1.6-.5 1.6.1 2.5 1.8 1.8 3.9l-4 13.1a5.5 5.5 0 01-2.5 3.2c-.5.3-1.1.5-1.6.5-1.6-.1-2.5-1.8-1.8-3.9l4-13.1a6.8 6.8 0 012.5-3.2zM258.9 379.2c1.7-1 3.4-.3 3.6 1.5l1.7 11.5c.3 1.8-.9 4.2-2.7 5.2-1.7 1-3.4.3-3.6-1.5l-1.7-11.5c-.2-1.9 1-4.2 2.7-5.2zM297.3 344.6c1.1-.6 2.2-.6 3 .1l6.9 6.9c1.1 1.1.9 3.4-.5 5.2l-1.5 1.4c-1.1.6-2.2.6-3-.1l-6.9-6.9c-1.1-1.1-.9-3.4.5-5.2.5-.6 1-1.1 1.5-1.4zM322.1 296.5c.5-.3 1.1-.5 1.6-.5l10.3.3c1.6.1 2.5 1.8 1.8 3.9a5.5 5.5 0 01-2.5 3.2c-.5.3-1.1.5-1.6.5l-10.3-.3c-1.6-.1-2.5-1.8-1.8-3.9a6.1 6.1 0 012.5-3.2zM318.2 200.3c1.1-.6 2.2-.6 3 .1 1.1 1.1.9 3.4-.5 5.2l-8.6 11.2-1.5 1.4c-1.1.6-2.2.6-3-.1-1.1-1.1-.9-3.4.5-5.2l8.6-11.2a4 4 0 011.5-1.4zM279.7 184.1c.5-.3 1.1-.5 1.6-.5 1.6.1 2.5 1.8 1.8 3.9l-4 13.1a5.5 5.5 0 01-2.5 3.2c-.5.3-1.1.5-1.6.5-1.6-.1-2.5-1.8-1.8-3.9l4-13.1a6.1 6.1 0 012.5-3.2z"/><path d="M303.6 223.3c-.9-.4-2.1-.2-3.1.4-.7.4-1.4 1-2 1.8L247 292.8l-48.4-1.6c-.7 0-1.5.2-2.2.6a7.7 7.7 0 00-3.3 4.3c-.7 2.3-.1 4.3 1.4 4.9l4.8 2c-1.5-.6-2.1-2.6-1.4-4.9a7.3 7.3 0 013.3-4.3c.7-.4 1.4-.6 2.2-.6l48.4 1.6 51.5-67.3c.6-.8 1.3-1.4 2-1.8 1.1-.6 2.2-.8 3.1-.4l-4.8-2z" fill="#6f78f6"/><path d="M305.2 225.7c1.4-.8 2.9-.8 3.9.1 1.5 1.4 1.2 4.5-.6 6.9l-53.4 69.8c-.6.8-1.3 1.4-2 1.8-.7.4-1.5.6-2.2.6l-50.7-1.6c-2.2-.1-3.2-2.4-2.4-5.1a7.3 7.3 0 013.3-4.3c.7-.4 1.4-.6 2.2-.6l48.4 1.6 51.5-67.3a6 6 0 012-1.9z" fill="#3e4bf6"/><g class="st47"><path class="st50" d="M255.5 291.7a15.3 15.3 0 00-7.4 14.4c.8 5.1 5.3 7 10.1 4.2s8.2-9.2 7.4-14.4c-.7-5.1-5.2-7-10.1-4.2z"/><path d="M246 287.7c2.4-1.4 4.8-1.6 6.6-.8l9.5 4.1c-1.8-.8-4.2-.6-6.6.8a15.3 15.3 0 00-7.4 14.4c.4 2.6 1.7 4.3 3.5 5.1l-9.5-4.1c-1.8-.8-3.1-2.5-3.5-5.1-.8-5.2 2.6-11.6 7.4-14.4z" fill="#5151d4"/></g></g><g class="st10"><path d="M712.1 951.3a67.3 67.3 0 01-14.2-8.4c-1.8-1.5-3-2.8-3.7-4.1-.7-1.2-.8-2.2-.3-3 1-1.6 4.4-2 9.4-1.1 4.8.8 10.6 2.7 16.3 5.3a67.3 67.3 0 0114.2 8.4c1.8 1.5 3 2.8 3.7 4.1.7 1.2.8 2.2.3 3-1 1.6-4.4 2-9.4 1.1a74.8 74.8 0 01-16.3-5.3z"/></g><g style="animation:translate 4000ms ease 0ms infinite"><g class="st47"><path d="M692.6 895.3c5.7-2.4 12.9-1.7 20.4 2.6a47.9 47.9 0 0122.8 44.3c-1.2 7.9-5.2 13.3-10.8 15.7l-9.3 4c5.6-2.4 9.6-7.8 10.8-15.7a48 48 0 00-22.8-44.3c-7.5-4.3-14.8-5-20.4-2.6l9.3-4z" fill="#70c5ff"/><path class="st42" d="M703.7 901.9c-14.9-8.6-28.9-2.8-31.2 13.1a48 48 0 0022.8 44.3c14.9 8.6 28.9 2.8 31.2-13.1a47.9 47.9 0 00-22.8-44.3z"/></g><path class="st30" d="M715.2 924.5a4 4 0 011.6 1.6c1.3 1.8 1.3 4.1.2 5l-20.5 16.6c-.6.5-1.5.6-2.3.2l-.4-.2a5.7 5.7 0 01-1.9-1.9l-10.7-18.3c-1.1-1.9-1-4.1.3-4.8.7-.4 1.6-.3 2.5.2.7.4 1.4 1.1 1.9 1.9l8.4 14.4 18.1-14.7c.8-.6 1.8-.6 2.8 0z"/></g><g><path class="st10" d="M233.1 969.6s.4 10.6 10.6 10.6c4.7 0 126.5-73.2 129.6-75.2 2.1-1.3 12.3-17.7 13.2-19.2.9-1.5.8-3.2-1.2-3.3-1.9-.1-152.2 87.1-152.2 87.1z"/><path d="M357.8 883.1l27.1-5c1.8-.3 3 1.8 1.9 3.2l-17.4 21.2-11.6-19.4z" fill="#f7cfd9"/><path d="M369 902l.3.5 17.4-21.2c.3-.4.5-.8.5-1.3l-16.7 16.2-1.5 5.8z" fill="#f7b2c4"/><path d="M386.5 878.6c-.4-.4-1-.6-1.6-.4l-27.1 5 1.7 2.9 1.3.9 1.7-2.7c0-.1 23.5-6.2 24-5.7z" fill="#ffdee6"/><path d="M246.5 947.7l110.3-64.1c1.5-.9 3.5-.7 5.8.6l-110.3 64.1c-2.3-1.3-4.3-1.4-5.8-.6z" fill="#ffdb75"/><ellipse transform="rotate(-30.2 252.2 957.5)" class="st7" cx="252.2" cy="957.6" rx="6.6" ry="11.5"/><path d="M368.2 903.5l-110.2 64c1.5-.8 2.4-2.6 2.4-5.2 0-5.2-3.6-11.4-8.1-14l110.3-64.1a18 18 0 018.1 14c-.1 2.6-1 4.4-2.5 5.3z" fill="#ffc31b"/><path d="M243.7 949.3l2.8-1.6c1.5-.9 3.5-.7 5.8.6l-2.8 1.6c-2.3-1.4-4.3-1.5-5.8-.6z" fill="#8585f7"/><path class="st7" d="M249.5 949.8a18 18 0 018.1 14c0 5.2-3.7 7.2-8.2 4.6a18 18 0 01-8.1-14c.1-5.1 3.7-7.1 8.2-4.6z"/><path class="st49" d="M258 967.5l-2.8 1.6c1.5-.8 2.4-2.6 2.4-5.2 0-5.2-3.6-11.4-8.1-14l2.8-1.6a18 18 0 018.1 14c-.1 2.5-1 4.3-2.4 5.2z"/><path d="M232.7 955.6l11-6.4c1.5-.9 3.5-.7 5.8.6l-11 6.4c-2.3-1.3-4.4-1.4-5.8-.6z" fill="#ff87a5"/><path class="st7" d="M255.2 969l-11 6.4c1.5-.8 2.4-2.6 2.4-5.2 0-5.2-3.6-11.4-8.1-14l11-6.4a18 18 0 018.1 14c0 2.6-1 4.4-2.4 5.2z"/><ellipse transform="rotate(-30.2 238.4 965.5)" class="st67" cx="238.4" cy="965.5" rx="6.6" ry="11.5"/><path d="M370.6 898.2l-.2-2-110.3 64 .2 2.1c0 2.6-.9 4.4-2.4 5.2l110.3-64.1c1.5-.8 2.4-2.6 2.4-5.2z" fill="#ffa208"/><path class="st24" d="M257.6 963.9c0 2.6-.9 4.4-2.4 5.2l2.8-1.6c1.5-.8 2.4-2.6 2.4-5.2l-.2-2.1-2.8 1.6.2 2.1z"/><path class="st67" d="M246.4 968.2l.2 2c0 2.6-.9 4.4-2.4 5.2l11-6.4c1.5-.8 2.4-2.6 2.4-5.2l-.2-2-10.9 6.3-.1.1z"/><path class="st22" d="M387.1 879.6v-.1l-.2-.4a1.8 1.8 0 00-2-.9l-7.9 1.4c2.1 1.8 4.2 4.6 5.2 7.3l4.6-5.6c.3-.4.5-.8.5-1.3l-.2-.4z"/><path d="M381.6 885.5l.6 1.4 4.6-5.6c.3-.4.5-.8.5-1.3l-5.7 5.5z" fill="#323263"/><path class="st24" d="M377.8 880.4c4.6-1.1 8.5-2 8.7-1.8l-.3-.2-.4-.2H385.2 384.9l-7.9 1.4.8.8z"/></g><g><path class="st70" d="M331.8 871.9L239 925.7a7.4 7.4 0 01-7.6 0L159.3 884c-1.1-.6-1.1-2.3 0-2.9l97.9-64.4 74.6 50.8c1.7 1 1.7 3.4 0 4.4z"/><path class="st70" d="M159.1 884l8.8-12.4-9.3-5.7-.4 18.1z"/><path class="st55" d="M231.6 904l-.2-.1-64.5-37.3-1.6.9-3.7.3v14.9l69.8 40.4.2.1c-.3-3.8 0-15.3 0-19.2z"/><path class="st71" d="M231.6 904c0 3.9-.3 15.4 0 19.3 2.3 1.2 5 1.2 7.3 0l.2-19.4a8 8 0 01-7.5.1z"/><path class="st72" d="M329.8 852.9l-3.4.3-87.4 50.7-.2 19.4.2-.1 89.6-51.9c.9-.5 1.3-1.5 1.3-2.4l-.1-16z"/><path class="st29" d="M331.6 847.4l-69.5-40.2c-3.2-1.8-7-1.8-10.2 0l-89.8 52.1a14.5 14.5 0 00-4.8 4.4l-.3.4-.1.2 2.2-.3 72 41.6c1.3.8 2.8 1.1 4.3 1h.5c1-.1 2-.4 2.9-1l92.8-53.8c.8-.5 1.2-1.3 1.3-2.1 0-.8-.4-1.7-1.3-2.3z"/><path class="st73" d="M237.2 893c1 .6 1 1.5 0 2.1s-2.6.6-3.6 0l-54.3-31.4c-1-.6-1-1.5 0-2.1 1-.6 2.6-.6 3.6 0l54.3 31.4zM297.8 853.6c1 .6 1 1.5 0 2.1-1 .6-2.6.6-3.6 0l-15-8.7c-1-.6-1-1.5 0-2.1 1-.6 2.6-.6 3.6 0l15 8.7zM277.3 841.8c1 .6 1 1.5 0 2.1-1 .6-2.6.6-3.6 0l-13.9-8.1c-1-.6-1-1.5 0-2.1 1-.6 2.6-.6 3.6 0l13.9 8.1z"/><g class="st47"><path class="st74" d="M272.2 819.8c1 .6 1 1.5 0 2.1l-16.4 9.5c-1 .6-2.6.6-3.6 0l-8.7-5c-1-.6-1-1.5 0-2.1l16.4-9.5c1-.6 2.6-.6 3.6 0l8.7 5zM303.4 837.9c1 .6 1 1.5 0 2.1l-3.6 2.1c-1 .6-2.6.6-3.6 0l-23.6-13.6c-1-.6-1-1.5 0-2.1l3.6-2.1c1-.6 2.6-.6 3.6 0l23.6 13.6z"/><path class="st73" d="M307.8 852c1 .6 1 1.5 0 2.1-1 .6-2.6.6-3.6 0l-38-22c-1-.6-1-1.5 0-2.1 1-.6 2.6-.6 3.6 0l38 22z"/><path class="st74" d="M290 862.3c1 .6 1 1.5 0 2.1l-42.6 24.7c-1 .6-2.6.6-3.6 0l-54.3-31.4c-1-.6-1-1.5 0-2.1l42.6-24.7c1-.6 2.6-.6 3.6 0l54.3 31.4z"/></g><path class="st27" d="M333.1 869.6c0 .8-.5 1.6-1.3 2.1l-2.6 1.5-90.4 52.4a7.4 7.4 0 01-7.6 0l-72-41.6c-.2-.1-.4-.4-.4-.6v-16.7c0-.2.2-.3.4-.2l72 41.6a7.4 7.4 0 007.6 0l92.8-53.8.1-.1c.7-.5 1.1-1.2 1.1-2.1v-2.4c0 .8-.5 1.6-1.3 2.1l-92.8 53.8c-.9.5-1.9.8-2.9 1h-.5c-1.5.1-3-.2-4.3-1L159 864c-.9-.5-1.6-.4-2.1.1l-.1.2c-.2.3-.3.7-.3 1.2v16.7c0 1.6 1.1 3.6 2.5 4.4l72 41.6a7.4 7.4 0 007.6 0l91.6-53.2 1.4-.8.1-.1c.7-.5 1.1-1.2 1.1-2.1l.3-2.4z"/><path class="st72" d="M161.5 872.4l54 31.5.8 2.5-54.8-31.5zM161.5 879.7l22.7 12.1-22.7-10.6z"/><g><path class="st75" d="M331.8 847.2L239 901a7.4 7.4 0 01-7.6 0l-72.1-41.7c-1.1-.6-1.1-2.3 0-2.9l97.9-56.8 74.6 43.1c1.7 1.1 1.7 3.5 0 4.5z"/><path class="st75" d="M159.2 859.3l8.7-4.8-9.3-5.7-.4 10.5z"/><path class="st55" d="M231.6 886.9l-.2-.1-64.5-37.3-1.6.9-3.7.3v7.3l69.8 40.4.2.1c-.3-3.8 0-7.7 0-11.6z"/><path class="st71" d="M231.6 886.9c0 3.9-.3 7.8 0 11.7 2.3 1.2 5 1.2 7.3 0l.2-11.8a8 8 0 01-7.5.1z"/><path class="st72" d="M329.9 835.8l-3.4.3-87.5 50.7-.2 11.8.2-.1 89.6-51.9c.9-.5 1.3-1.5 1.3-2.4v-8.4z"/><path class="st7" d="M331.6 830.4l-69.5-40.2c-3.2-1.8-7-1.8-10.2 0l-89.8 52.1a14.5 14.5 0 00-4.8 4.4l-.3.4-.1.2 2.2-.3 72 41.6c1.3.8 2.8 1.1 4.3 1h.5c1-.1 2-.4 2.9-1l92.8-53.8c.8-.5 1.2-1.3 1.3-2.1.1-.9-.4-1.8-1.3-2.3z"/><path class="st73" d="M237.2 875.9c1 .6 1 1.5 0 2.1-1 .6-2.6.6-3.6 0l-54.3-31.4c-1-.6-1-1.5 0-2.1s2.6-.6 3.6 0l54.3 31.4zM297.8 836.6c1 .6 1 1.5 0 2.1-1 .6-2.6.6-3.6 0l-15-8.7c-1-.6-1-1.5 0-2.1s2.6-.6 3.6 0l15 8.7zM277.4 824.7c1 .6 1 1.5 0 2.1-1 .6-2.6.6-3.6 0l-13.9-8.1c-1-.6-1-1.5 0-2.1 1-.6 2.6-.6 3.6 0l13.9 8.1z"/><g class="st47"><path class="st74" d="M272.2 802.7c1 .6 1 1.5 0 2.1l-16.4 9.5c-1 .6-2.6.6-3.6 0l-8.7-5c-1-.6-1-1.5 0-2.1l16.4-9.5c1-.6 2.6-.6 3.6 0l8.7 5zM303.4 820.8c1 .6 1 1.5 0 2.1l-3.6 2.1c-1 .6-2.6.6-3.6 0l-23.6-13.6c-1-.6-1-1.5 0-2.1l3.6-2.1c1-.6 2.6-.6 3.6 0l23.6 13.6z"/><path class="st73" d="M307.8 834.9c1 .6 1 1.5 0 2.1-1 .6-2.6.6-3.6 0l-38-22c-1-.6-1-1.5 0-2.1 1-.6 2.6-.6 3.6 0l38 22z"/><path class="st74" d="M290 845.3c1 .6 1 1.5 0 2.1l-42.6 24.7c-1 .6-2.6.6-3.6 0l-54.3-31.4c-1-.6-1-1.5 0-2.1l42.6-24.7c1-.6 2.6-.6 3.6 0l54.3 31.4z"/></g><path d="M333.1 844.9c0 .8-.5 1.6-1.3 2.1l-2.6 1.5-90.4 52.4a7.4 7.4 0 01-7.6 0l-72-41.6c-.2-.1-.4-.4-.4-.6v-9c0-.2.2-.3.4-.2l72 41.6a7.4 7.4 0 007.6 0l92.8-53.8.1-.1c.7-.5 1.1-1.2 1.1-2.1v-2.4c0 .8-.5 1.6-1.3 2.1l-92.8 53.8c-.9.5-1.9.8-2.9 1h-.5c-1.5.1-3-.2-4.3-1L159 847c-.9-.5-1.6-.4-2.1.1l-.1.2c-.2.3-.3.7-.3 1.2v9c0 1.6 1.1 3.6 2.5 4.4l72 41.6a7.4 7.4 0 007.6 0l91.6-53.2 1.4-.8.1-.1c.7-.5 1.1-1.2 1.1-2.1l.3-2.4z" fill="#c9274c"/></g></g><g><path class="st34" d="M517.7 955.1c-1.8 1-1.8 2.7 0 3.7l24.7 14.4a7 7 0 006.3 0l24.9-14.4c1.8-1 1.8-2.7 0-3.7L549 940.8a7 7 0 00-6.3 0l-25 14.3z"/></g><g><path class="st34" d="M145.9 936.9c-1.8 1-1.8 2.7 0 3.7l24.7 14.4a7 7 0 006.3 0l24.9-14.4c1.8-1 1.8-2.7 0-3.7l-24.7-14.4a7 7 0 00-6.3 0l-24.9 14.4z"/></g><g><path class="st34" d="M371 946.4c-1.8 1-1.8 2.7 0 3.7l24.7 14.4a7 7 0 006.3 0l24.9-14.4c1.8-1 1.8-2.7 0-3.7L402.2 932a7 7 0 00-6.3 0L371 946.4z"/></g><g><path class="st34" d="M432 968.3c-1 .6-1 1.5 0 2l13.7 7.9c1 .6 2.5.6 3.5 0l13.8-7.9c1-.6 1-1.5 0-2l-13.7-7.9c-1-.6-2.5-.6-3.5 0l-13.8 7.9z"/></g></svg>