<svg version="1.0" id="Layer_1" xmlns="http://www.w3.org/2000/svg" x="0" y="0" viewBox="0 0 1000 1000" xml:space="preserve"><style>@keyframes translate{0%{transform:translateY(0)}50%{transform:translateY(-60px)}}.st0{fill:#e8e5f9}.st1{fill:#ccc2f4}.st10,.st11,.st2,.st5,.st6,.st8{fill-rule:evenodd;clip-rule:evenodd;fill:#112b46}.st10,.st11,.st5,.st6,.st8{fill:#fff}.st10,.st11,.st6,.st8{fill:#606bf1}.st10,.st11,.st8{fill:#ffc8af}.st10,.st11{fill:#f4ae92}.st11{fill:#ec827d}.st12{fill:#fbd15b}.st12,.st14{fill-rule:evenodd;clip-rule:evenodd}.st14,.st15{fill:#56548c}.st16{enable-background:new}.st17{fill:#4f56d8}.st21{fill:#7181f4}.st22{fill:#495dea}.st23{fill:#606bf1}.st24{fill:#a5b7c6}.st25{fill:#112b46}.st26{fill:#878cf0}.st27{fill:#879faf}.st28{fill:#b6c7d3}.st29{fill:#bee1f4}.st30{fill:#fbd15b}.st31{fill:#ec827d}.st32{fill:#a3d8ef}.st33{fill:#cee9f4}.st35{fill:#fff}.st36{fill:#d34c4c}.st38{fill:#eee}.st39{fill:#ceccff}.st40{fill:#eaeeef}.st42{fill:#efbc3f}.st43{fill:#ffdc85}.st44{fill:none}.st45{fill:#d86868}.st46{fill:#f49898}.st47{fill:#ccd9e2}.st48,.st49{fill-rule:evenodd;clip-rule:evenodd;fill:#f2ad91}.st49{fill:#303072}</style><ellipse id="XMLID_888_" transform="matrix(.00542 -1 1 .00542 -296 1063.9)" class="st0" cx="386.8" cy="680.8" rx="152.4" ry="263.9"/><ellipse id="XMLID_1357_" transform="matrix(.00542 -1 1 .00542 -140.3 1360.5)" class="st0" cx="613.8" cy="750.8" rx="152.4" ry="263.9"/><ellipse id="XMLID_1358_" transform="matrix(.00542 -1 1 .00542 -20.3 1561.5)" class="st0" cx="774.9" cy="791" rx="74.1" ry="128.3"/><path id="XMLID_1359_" class="st0" d="M508.4 942c-58.6 33.9-154 33.7-213-.4s-59.3-89.1-.7-123 154-33.7 213 .4 59.3 89.2.7 123z"/><path class="st0" d="M197.1 794.4c5 .2 10 .5 15 .5 1.3 0 2.8-.5 3.7.3 1.2 1 1.6 4.2 2.1 5.6.6 1.9 2.5 5.7 2.2 7.7.3-2.5.2-8.1 2-10.6 1.5 1.4 2.5 3.7 3.9 5.3-.2-2.5.1-4.2.9-6.4 1.4 1.4 4.1 1.9 6 2.7 9.2 3.8 19.6 9.3 24.8 18.1 5.6 9.6-3.2 19.8-10.2 26a37.4 37.4 0 01-12 7.5c-1.6.6-8.3 1.6-8.2 4.2-1.3-1.6-2.5-3.3-3.9-4.6 0 1.6-1.3 3-.8 4.4-2.6.9-5.5.4-7.9 1.8-.6-2.8-3.3-5.3-4.1-8.1a24.5 24.5 0 00-2.6 7.3c-1.7-.4-3.5-.2-5.2-.1-7.3.3-14.9-.4-22.1-1.4-4.5-.6-8.8-.7-13.3-.9-.2-2.6-1.5-5.3-2.1-7.9-.7-3.3-1.3-6.6-2.1-9.8-.8 1.1-.8 2.4-1.3 3.7-1.4 4.1-3 8.4-4.6 12.4-1.5-.8-18.4-2.7-18.3-3.6.3-2.9.6-6.7.3-9.4-1 2.6-3.1 4.6-4.7 6.9-1.7-2.8-.7-9.2-1.4-12.4-1.7 1.4-2.1 3.9-3.2 5.7-.7 1.3-2 2.3-2 3.8-4.1-1.9-7.8-4.5-11.6-6.9-2.5-1.5-7.2-3.5-8.7-6-1.1-1.7-.2-4.9-1.2-6.4-1.2.7-1.7 1.9-2.4 3-.9-.6-12.6-9.6-12-10.3a71 71 0 0120.5-16.9c1.5-.8 3-1.9 4.5-1.4 3 1 5.3 5.3 7.6 7.2-.9-3.7-.3-7.9-.7-11.7 4.3-1.1 8-2.1 12.6-2.1 3.9 0 7.9-.5 11.8-.2 1.4.1 4.1-.2 5.3.4 3.2 1.3 5.3 11.1 6.2 14.5 1.8-3.2 1-8.1 2.8-11.6 1.9-3.7 5.5-1.3 8.1-2.5-.8 1.4.4 4.6.9 6 .9-1.6 1-3.8 2.5-4.9 1.9 3.2 3.7 6.5 4.8 10.2 1.2-1.9 1.1-4.7 2-6.8.4-1.1 1.1-2 1.4-3 4.5.9 9.4.7 13.9.9.3-.2.5-.2.8-.2z"/><path class="st1" d="M104.8 817.1c6.8-1.5 15.5 1.1 22.2 2.3l21.9 3.9c13.6 2.3 27.3 4.1 41.1 4.1 28.2-.1 57.2 2 85.1-2.5 1.9-.3 1.7-3.6-.3-3.4-28.9 2.2-57.6 3.9-86.7 4-14.8.1-29.5-2.2-44.1-4.6-13-2.1-26.4-5-39.6-5.5-1.2-.1-1 2 .4 1.7z"/><path id="XMLID_1362_" class="st0" d="M108.5 780.5c-9.1 5.3-24 5.2-33.2-.1s-9.2-13.9-.1-19.2 24-5.2 33.2.1c9.2 5.3 9.3 13.9.1 19.2z"/><path class="st0" d="M907.5 695.2c-2.6 4.3-5.2 8.6-8.1 12.7-.8 1.1-2 2-1.9 3.2.1 1.5 2.5 3.7 3.5 4.9 1.2 1.6 3.3 5.3 5.1 6.2-2.2-1.2-6.8-4.4-9.9-4.3.3 2.1 1.6 4.1 2.2 6.2a13 13 0 00-5.8-2.8c.4 2-.8 4.5-1.2 6.4-2.1 9.7-3.4 21.4.9 30.6 4.7 10 18.1 8.5 27.2 6.3 4.5-1.1 9.2-2.9 13-5.6 1.4-1 6-5.9 8.1-4.4-.5-1.9-1.3-3.9-1.6-5.8 1.3.9 3.2.6 4.1 1.8 2.1-1.6 3.5-4.3 6-5.5-2-2.1-2.5-5.7-4.3-7.9 2.5.3 5.3.9 7.5 2 .7-1.6 1.8-3 2.9-4.4 4.4-5.9 8.1-12.5 11.3-19.1 2-4.1 4.4-7.7 6.8-11.5-2-1.6-3.6-4.3-5.3-6.2-2.3-2.5-4.7-4.8-6.9-7.3 1.4-.1 2.5.7 3.7 1 4.1 1.2 8.6 2.3 12.8 3.2.2-1.7 8.1-16.7 7.3-17.1a54.4 54.4 0 01-8-5.1c2.7.6 5.6 0 8.4.1-1.3-3-7.2-5.8-9.4-8.2 2.1-.6 4.4.4 6.5.6 1.5.1 3-.3 4.3.5.7-4.5.6-9 .8-13.5.1-2.9 1.1-7.9 0-10.6-.8-1.8-3.9-2.9-4.7-4.6 1.3-.6 2.5-.4 3.8-.3 0-1.1-.8-15.8-1.8-15.7-9 1.3-17.5 2.8-25.5 7.4-1.5.8-3.3 1.4-3.7 2.9-.9 3 1.4 7.4 1.7 10.3-2.5-2.8-6.3-4.8-9.3-7.2-3.3 3-6.2 5.5-8.9 9.3-2.2 3.2-4.9 6.3-6.8 9.6-.7 1.2-2.4 3.2-2.7 4.6-.7 3.4 6.2 10.7 8.5 13.3-3.6-.3-7.2-3.7-11.2-4.3-4.1-.6-4.2 3.8-6.6 5.3 1.6.2 3.5 2.9 4.5 4.2-1.8-.1-3.7-1.4-5.4-.7a45 45 0 005.7 9.7c-2.3-.1-4.5-1.7-6.8-2.2-1.1-.2-2.3-.2-3.3-.5-1.8 4.3-4.7 8.1-7.1 12l-.4.5z"/><path class="st1" d="M978.4 631.8c-5.1 4.7-7.8 13.4-10.6 19.6l-9.1 20.3c-5.8 12.5-12 24.8-19.9 36.2-16 23.2-30.7 48.3-50.1 68.8-1.3 1.4-3.9-.6-2.7-2.2 18.2-22.6 35.8-45.3 52.3-69.2a271.5 271.5 0 0021.1-39c5.6-12 10.8-24.6 17.9-35.8.4-1 2.1.3 1.1 1.3z"/><path id="XMLID_1303_" class="st0" d="M797.3 925.7a51.8 51.8 0 01-47.1-.1c-13.1-7.5-13.1-19.7-.1-27.2s34.1-7.5 47.1.1c13.1 7.5 13.1 19.7.1 27.2z"/><path class="st0" d="M390 206.8c-3-1.5-6-2.7-9.2-3.6l-.5-.1-2.6-.7-.9-.2-2.3-.5-1-.2-2.2-.3-1.1-.1-2.3-.2-1-.1-3.3-.1a60.2 60.2 0 00-46.2 21.7l-1.8 2.3a57.2 57.2 0 00-6.3 10.7l-1.6 3.8a61.6 61.6 0 00-3.8 25.1l.1 1.9.1 1 .2 1.8.1 1 .4 2.2.1.7.5 2.3.3 1.1.4 1.5.4 1.2.4 1.3.4 1.2.5 1.2 1 2.3.5 1 .7 1.4.5.9.8 1.4.5.8.8 1.4.4.6 2.3 3.3a59.9 59.9 0 1074.7-89zM213.1 187.3c-4-2-8.2-3.7-12.6-5l-.7-.2c-1.2-.3-2.3-.7-3.5-.9l-1.2-.3-3.1-.6-1.4-.3-3-.4-1.5-.2-3.2-.3-1.4-.1-4.5-.1a81.5 81.5 0 00-81.3 86.5l.2 2.6.1 1.4.3 2.5.2 1.3.5 3 .2 1 .7 3.2.4 1.5.6 2 .5 1.6.6 1.8.6 1.7.7 1.7 1.4 3.2.6 1.3.9 1.9.6 1.2 1 1.9.6 1.1 1.2 1.9.5.8a81.3 81.3 0 00150.4-43.5 81.6 81.6 0 00-45.4-73.2z"/><path class="st0" d="M311.1 50l-.9-.2-4.5-1.2-1.5-.3-4-.8-1.8-.3-3.8-.6-1.9-.2-4-.4-1.7-.1-5.8-.2c-19.8 0-38.2 5.5-54 15.1l-4.2 2.7a103.5 103.5 0 00-45.8 91.2l.1 1.6.3 3.3.2 1.8.4 3.2.2 1.7a42.7 42.7 0 001 5.1l.9 4 .5 1.9.7 2.6.7 2.1.8 2.3.8 2.2.8 2.1 1.8 4.2.8 1.7 1.2 2.4.8 1.6 1.3 2.4.8 1.4 1.5 2.5.6 1a104.1 104.1 0 00192-55.8 104.7 104.7 0 00-74.3-100z"/><path class="st1" d="M363.5 266.2l-77.9 42.2-4.5-128.6-5.4 154.1-94.5-73.4 94.1 86.8-4 113.5h19.6L286 320.5z"/><g><path class="st0" d="M138.9 611.2c6.6-7 9.9-17.1 9.5-26.8a50.3 50.3 0 00-13.9-31.2l-.3 6.3a73 73 0 01-5.8 27.9 93 93 0 00-4.4-43.8c-6.6-5-14-9-21.9-11.7a57 57 0 013 5.4 72 72 0 014.5 40.6 185.2 185.2 0 00-21.1-49.5 75 75 0 00-19.5-.6c1.8 1.7 3.7 3.3 5.7 4.7 3.9 2.7 8.4 4.8 11.4 8.5 4.1 5 4.8 11.9 5.1 18.4l.2 9.9c-1.5-3.9-3-7.7-4.7-11.6-1.5-3.4-3-6.8-5-9.9a67.2 67.2 0 00-20-19c-4 .8-8 1.9-11.9 3.5a96.3 96.3 0 0119.5 28.9 151.2 151.2 0 00-25.7-26.1 66.2 66.2 0 00-9.6 5.8c9 7.1 16.2 16.4 20.8 26.8a92.6 92.6 0 00-27.3-21.6 87.8 87.8 0 00-6.2 6 45.3 45.3 0 0110 11.5c-4.2-3-8.8-5.6-13.5-7.5a90.5 90.5 0 00-6.6 8.7l127.7 46.4z"/><path class="st0" d="M138.9 611.2c1.5 5 .3 14.1-1.7 18.8a41.4 41.4 0 01-9.9 14.2A53.3 53.3 0 0196 656.4a63 63 0 009.3-13.6c2.5-5.1 4.2-10.6 6-16-5.3 5.5-11.3 10.5-15.9 16.5-1.6 2.1-3.1 4.4-4.8 6.5a31.6 31.6 0 01-8.3 7.1c-9-.4-17.9-2.2-26.1-5.8 4-1.4 7.9-3.3 11.7-5.3 4.2-2.2 8.5-4.6 11.8-8.1 2.5-2.6 4.4-5.8 5.9-9.1-2 1.9-4.1 3.7-6.3 5.2-10 6.9-22.4 9-34.5 10.8-3.7-2.6-7-5.7-10.1-9a63.6 63.6 0 0039.5-20.1l-5.7 2.8c-6.1 2.9-12.2 5.7-18.7 7.5a99.9 99.9 0 01-18.2 3.1l-2.3-.1a96 96 0 01-7.1-11.5 43 43 0 0025.3-3.6 75.8 75.8 0 0017.3-10.4 65 65 0 01-46.8 4.8 64.5 64.5 0 01-2.8-9.2c6.3 1.1 12.8.9 19-.5A51 51 0 0114 593c-.6-3.5-.9-7-1.2-10.6 4 .6 8.1.7 12.1.1-4.3-.8-8.6-2.2-12.4-4.3-.3-4.4-.7-9-1.3-13.7l127.7 46.7z"/><path class="st1" d="M119.1 596l.4-7.6a192.6 192.6 0 00-1.2-30.3c-.6-5-1.4-10-2.7-14.9 1.2 4.9 1.8 9.9 2.3 14.9a188.4 188.4 0 01.4 30.2l-.6 7.5-.6 5.7-15-5.2a83.4 83.4 0 00-1-21c-1.1-7.3-2.7-14.5-5-21.5a134.1 134.1 0 014.9 32.7 74 74 0 01-.4 9.4L86.3 591c-.2-4.5-.6-8.9-1.7-13.3a93.3 93.3 0 00-18.6-38 99.5 99.5 0 0117.8 38.2c.9 4.2 1.2 8.4 1.3 12.7l-15-5.2c-.9-3.7-1.8-7.5-3.3-11a77 77 0 00-12-20.7 75.7 75.7 0 00-8-8.9 84.1 84.1 0 0119.1 30c1.3 3.3 2.1 6.8 2.9 10.2l-15.7-5.4a84.9 84.9 0 00-19.8-23.9A77.6 77.6 0 0152 579.3l-27.4-9.5 36 13.8a58 58 0 01-8 3.7l-4.8 1.5-4.9 1.1a66.4 66.4 0 01-10 1.2c3.4 0 6.7-.3 10.1-.8 1.7-.2 3.3-.6 5-1 1.6-.5 3.3-.8 4.9-1.4 3.1-1 6-2.4 8.8-3.9l14.3 5.5A67 67 0 0152.3 602a72.4 72.4 0 01-28.2 2.7 68.2 68.2 0 0028.4-2.1 72.9 72.9 0 0024.9-12.5l13 5-1.7 1.7-1.4 1.4-1.5 1.3-3 2.6-3.2 2.4a100 100 0 01-28.4 14.8c-5.1 1.7-10.3 3.2-15.6 4.1a105.3 105.3 0 0044.7-17.9l3.3-2.4 3.1-2.6 1.6-1.3 1.5-1.4 2.2-2.2 7.9 3a89.2 89.2 0 01-17.7 21.2 111.1 111.1 0 01-24.1 16.5 107.4 107.4 0 0024.6-16 93.6 93.6 0 0018.7-21.2l9.1 3.5-2.2 5.1-3.1 6.4a149.6 149.6 0 01-15.3 23.8c-3 3.7-6.1 7.3-9.6 10.4a134.5 134.5 0 0018.5-21.5c2.6-4 5.2-8 7.4-12.2l3.3-6.3 2.4-5.1 18.5 7.1a42 42 0 01-2.3 10.5 68.9 68.9 0 01-13.3 21.2 93.5 93.5 0 01-9 8.8 83.9 83.9 0 0023.4-29.6c1.3-3.3 2.2-6.8 2.7-10.4l32.4 12.4 1.7-4.5-33-11.4a75.2 75.2 0 005.7-17.9 71.8 71.8 0 00.5-20.6 71.4 71.4 0 01-7.7 38l-12.8-4.4.4-6.4z"/></g><g><path class="st0" d="M703.2 428.2a37 37 0 0026.6 9.9 49.9 49.9 0 0030.7-12.7l.8-.7-6.2-.4a72.4 72.4 0 01-27.8-6.3c14.6 2.4 29.8 1 43.9-3.7a78 78 0 0012-21.7 41.4 41.4 0 01-5.5 2.9 71.3 71.3 0 01-40.7 3.8 186.1 186.1 0 0049.8-20.2c1.1-6.4 1.5-13 1-19.5-1.7 1.8-3.4 3.6-4.8 5.6-2.8 3.9-5 8.3-8.7 11.3-5 4-12 4.6-18.4 4.8l-9.9.1c3.9-1.4 7.8-2.9 11.6-4.5 3.4-1.4 6.8-2.9 10-4.8 7.9-4.8 13.9-12 19.3-19.7-.7-4-1.8-8-3.3-11.9a94.3 94.3 0 01-29.2 19c9.8-7.3 18.8-15.8 26.5-25.3a71.8 71.8 0 00-5.6-9.7 70.1 70.1 0 01-27.2 20.3 93.5 93.5 0 0022-26.9 87.9 87.9 0 00-5.9-6.3 45.4 45.4 0 01-11.6 9.8 72 72 0 007.8-13.4 95.2 95.2 0 00-8.6-6.8l-48.6 127z"/><path class="st0" d="M703.2 428.2c-5 1.4-14.1.1-18.8-2a43 43 0 01-14.1-10.1 53.6 53.6 0 01-11.7-31.5c4 3.8 8.6 7 13.5 9.5 5.1 2.6 10.5 4.4 15.9 6.2-5.4-5.4-10.3-11.4-16.3-16.2l-6.4-4.9a33 33 0 01-6.9-8.4c.6-9 2.5-17.9 6.2-26a82.4 82.4 0 0013 23.8c2.6 2.6 5.7 4.5 9 6-1.9-2-3.6-4.1-5.1-6.4a79.6 79.6 0 01-10.2-34.7c2.7-3.6 5.8-6.9 9.2-9.9a63.5 63.5 0 0019.4 39.8 61 61 0 01-2.7-5.8c-2.8-6.2-5.5-12.3-7.2-18.8-1.1-4-1.7-8.1-2.3-12.1-.3-2-.5-4.1-.5-6.1l.1-2.3c3.7-2.6 7.6-4.9 11.6-6.9-.8 5.3-1 10.7.1 16a78.1 78.1 0 0013.2 26.9 64.7 64.7 0 01-4-46.9c3.1-1.1 6.2-2 9.2-2.6a48.6 48.6 0 00.2 19c.5-7 2.4-13.9 5.7-20.1 3.5-.5 7.1-.8 10.6-1a41 41 0 00-.3 12.1 39 39 0 014.6-12.3c4.4-.3 9-.6 13.7-1.1l-48.7 126.8z"/><path class="st1" d="M718.8 408.6l7.6.5a191.1 191.1 0 0030.3-.6c5-.5 10-1.3 14.9-2.5-4.9 1.1-9.9 1.7-15 2.1-5 .4-10.1.5-15.1.5-5-.1-10.1-.2-15.1-.7l-7.5-.7-5.7-.7 5.4-14.9c3.3.3 6.6.4 10 .3a143 143 0 0032.7-5.5 133.2 133.2 0 01-32.7 4.3c-3.1 0-6.3-.2-9.4-.6l5.2-14.2a74.1 74.1 0 0026.9-5.5 100 100 0 0024.6-13.9 105.8 105.8 0 01-24.9 13.4 80.8 80.8 0 01-26.3 4.9l5.5-14.9a72.1 72.1 0 0021.9-8.3 85 85 0 0019.1-14.3 85.5 85.5 0 01-40.7 21.4l5.7-15.6a79.9 79.9 0 0024.2-19.5 87.3 87.3 0 01-23.9 18.3l9.9-27.2-14.4 35.8a48.8 48.8 0 01-3.6-8.1l-1.5-4.8c-.3-1.6-.8-3.3-1-4.9a67.4 67.4 0 01-1-10 57 57 0 00.6 10.1c.2 1.7.6 3.3.9 5 .4 1.6.8 3.3 1.4 4.9.9 3.1 2.3 6 3.7 8.9l-5.7 14.2a68.4 68.4 0 01-14.6-38c-.4-4.7-.4-9.5.3-14.2a67 67 0 001.7 28.4c1.2 4.6 2.8 9.2 5 13.4a83 83 0 007.1 11.7l-5.2 13-1.7-1.7-1.4-1.4-1.3-1.5-2.6-3-2.4-3.2a113.6 113.6 0 01-18.2-44.3 114.3 114.3 0 0017.2 45l2.3 3.3 2.6 3.2 1.3 1.6 1.4 1.5 2.1 2.3-3.2 7.8a100.2 100.2 0 01-29.6-29.7 107 107 0 01-7.3-12.7 113.7 113.7 0 0025.7 35.6c3.3 3.1 7 5.8 10.7 8.3l-3.6 9-5.1-2.3c-2.1-1.1-4.3-2-6.3-3.2a151.8 151.8 0 01-23.6-15.6 95 95 0 01-10.3-9.8 105.9 105.9 0 0021.2 18.9c3.9 2.7 7.9 5.3 12 7.6 2 1.2 4.2 2.3 6.3 3.4l5.1 2.5-7.4 18.4c-3.6-.4-7.1-1.2-10.5-2.5-3.9-1.5-7.6-3.5-11.1-5.8a82.8 82.8 0 01-18.6-17 84 84 0 0018.1 17.7c3.5 2.4 7.2 4.6 11.1 6.3 3.3 1.4 6.8 2.3 10.3 2.8L691 453.3l4.5 1.7 12-32.9a70.4 70.4 0 0038.4 6.9 72 72 0 01-38-8.3l4.6-12.7 6.3.6z"/></g><g id="XMLID_878_"><g id="XMLID_1594_"><g id="XMLID_1599_"><g id="XMLID_1602_"><path id="XMLID_1625_" class="st2" d="M175 638.9s21 24.6 26.6 26.2c5.6 1.6.5 7.4-3.8 7.9-4.3.4-18-.1-22-4.1-4-3.9-15.3-8.1-15.3-8.1 0-12.7 3-20.7 3-20.7l11.5-1.2z"/><path id="XMLID_1624_" class="st2" d="M182.3 465.5s2.7 54.3 1.7 72.2c-1 17.8-5.3 106.3-5.3 106.3-11.5 2.5-18.8 0-18.8 0-3.8-67.8-3.7-87.3-4.8-97.4-1.1-10.1-2.4-39.4-2.4-39.4-8.1-16.8.4-38.6 4.4-43.9 4-5.4 25.2 2.2 25.2 2.2z"/><path id="XMLID_1623_" class="st2" d="M140.6 662.2c.7 9.9 4.3 21.6 5.2 27.6s-1.2 9.3-2.6 11.2c-1.4 1.9-18.2-3.6-20.5-10.1s2.4-12.1 2.8-24.3c5.5-9.6 15.1-4.4 15.1-4.4z"/><path id="XMLID_1622_" d="M164.9 469.7s-2.9 49.5-7.5 65.9c-4.6 16.5-8.7 64.8-10.6 73.2-1.9 8.4-4.3 60.5-4.3 60.5-10.5 2.6-18.7 0-18.7 0 .2-48.7-1-88.4 0-101.7 1-13.4-.4-53-.4-53-4.3-18.4-4.6-20.8 0-33.1 4.7-12.2 24.4-21.9 41.5-11.8z" fill-rule="evenodd" clip-rule="evenodd" fill="#21496d"/><path id="XMLID_1621_" d="M174.4 352.3c17.1 4.8 26.2 47.7 31 57.3 4.8 9.6 44.6 12 44.6 12 2.4 8.4-4.4 17.1-4.4 17.1-38.4-1.6-51.9-4.8-59-19.9-7.1-15.1-32.1-61.3-12.2-66.5z" fill-rule="evenodd" clip-rule="evenodd" fill="#495dea"/><path id="XMLID_1620_" class="st5" d="M174.4 352.3c-15.2-.7-50.3 7.2-61.9 22s5.2 40.8 9.3 56.6c4 15.7-1.9 55.2-1.8 59 18 11.9 61.2 13.4 66.1-4.3 2-19.3-2.4-42.3-2.7-53.6.5-24.4 11.1-72.5-9-79.7z"/><path id="XMLID_1619_" class="st6" d="M161.4 355.9a305.4 305.4 0 0111.1 87.3c-.9 14.5-1.3 61.6-1.3 61.6 11.4-6 16.3-16.9 16.3-21.9s-4.3-47.5-4.1-51c.1-3.4 5.7-42.5 4.1-60-1.6-17.5-13.1-19.5-13.1-19.5h-14.6l1.6 3.5z"/><path id="XMLID_1618_" d="M170.8 314.5c6.7 2.1 0 17.3 0 17.3v-17.3z" fill-rule="evenodd" clip-rule="evenodd" fill="#20318d"/><path id="XMLID_1617_" class="st8" d="M171.1 316.5s2.5 8.9 1.6 15.8-1.6 20.7-7.7 25.1c-6.1 4.4-14.9-.7-20.7-5.6s-12-14-12.1-25 4.2-24.5 20-23.8c15.9.6 18.9 13.5 18.9 13.5z"/><path id="XMLID_1616_" class="st8" d="M140.3 342s1.2 14.2-2.5 19.4c-.3 3.5 9.7 18.3 19.7 15.7 5.8-1.5 5.1-8.3 5.1-8.3-.6-5.2 0-17.6 0-17.6l-22.3-9.2z"/><path id="XMLID_1615_" class="st2" d="M175 304.7c2.3 8.2-.3 11.1-7.2 13.4s-25.2-3-25.2-3c1.2 8.7-1.5 13.3-1.5 13.3-3-8.6-5.8-4.2-6.1 2.7s3.6 6.7 3.6 6.7c-.3 5.8-2.1 7.7-2.1 7.7-7.4-5.1-17.4-39.1-4.1-39.9.2-11.9 37.8-18.4 42.6-.9z"/><path id="XMLID_1613_" class="st6" d="M137.2 359.1c11.8 24.9 18 47.6 17.6 68.1s-4.6 80.3-4.6 80.3c-20.5-5-34.4-10.8-38.4-17.7 8.8-23.1 12-38.7 10.2-45.2-1.8-6.6-17.3-56.7-9.2-71.6 7.5-8.3 24.4-13.9 24.4-13.9z"/><path id="XMLID_1605_" d="M119.4 372.6c14.1 7 25.3 45.9 36.1 56.4 6.1 5.9 36.2 13.6 44.6 13.8 3.2 7.4-2.6 15.6-2.6 15.6-51.4-4.8-53.7-7.7-69.5-27.8-19.7-25.1-27.5-62.9-8.6-58z" fill-rule="evenodd" clip-rule="evenodd" fill="#7181f4"/><path class="st10" d="M162.4 358.7c-4.3 1.6-10.5-.9-18.7-7.5 0 0 2.4 9.6 18.7 13v-5.5z"/></g><path id="XMLID_1601_" class="st5" d="M139.9 355.8c-.1.4-2.6 3.3-2.6 3.3s5.1 11.2 7 16.1c1.8 4.9 6.7 9.1 6.7 9.1l6.6-7.2c-9.2-4.9-17.7-21.3-17.7-21.3z"/></g><path id="XMLID_1598_" class="st5" d="M161.8 359.4c-.6-.8-2.1 14-4.3 17.7 4.2 4 6.8 5.1 6.8 5.1s2.5-16.5-2.5-22.8z"/></g><g id="XMLID_1614_"><g id="XMLID_1592_"><g id="XMLID_1588_"><g id="XMLID_1603_"><path id="XMLID_1612_" class="st2" d="M613 512.1c-.5 7.4-1.2 14.7-1.2 14.7h-1.6s0-11.1-1.7-8.8c.2-6 4.5-5.9 4.5-5.9z"/><path id="XMLID_1611_" class="st8" d="M590.3 524.6c-.8 0-1.9-.9-2.8-2.1a58.1 58.1 0 0013.9-26.2c.3-4.9-2.7-56.1-3.5-62.4s-3.2-29.9-2.9-31.3c.2-1.4 22 8.4 22 8.4-.3 1.9-3.2 14.2-2 22.1s3.1 13.1 2 26-7.4 33.6-5.2 43.4l.1.5c-6.4 8.9-8.6 26-21.6 21.6z"/><path id="XMLID_1607_" class="st2" d="M587.5 522.5c.9 1.3 2 2.1 2.8 2.1 13 4.3 15.2-12.8 21.6-21.6 2 9.3 1.1 10.4-.6 11.7-1.7 1.4-7.7 8.7-8.8 13.9s-17.4 4.6-20.4 3.5c-2-.6 1.7-5.2 5.4-9.6z"/><path id="XMLID_1606_" class="st8" d="M635.3 455.2c.6 5.7 4 49.8 3.4 57.2-.3 4.5-2.5 11.5-3.8 17.2-.8 3.6-1.4 6.6-.8 8.1 1.3 3.8 1.4 15 7.4 12.5 6.1-2.5 10.1-10.3 8.9-19-1.2-8.6.2-12.8-.1-18s3.1-37.3 3.7-48.7c.5-11.5-3.3-16.9-3.6-24.5s2-23.5 2-23.5-26.2-13.8-24.1 2.8c2.3 16.6 6.4 30.2 7 35.9z"/><path id="XMLID_1604_" class="st2" d="M633.1 538.1c.4 7.7 2.5 14.6 8.5 12.1 6.1-2.5 10.1-10.3 8.9-19-3.3 9.5-15.7 9.1-15.5-1.6-.9 3.6-2 7-1.9 8.5z"/></g></g><path id="XMLID_1590_" class="st11" d="M593.2 348v70.6c-.1 17.5 4.5 76.3 4.5 76.3 8.9 3.4 17.5-.8 17.5-.8 1.3-15.2 5.7-40.2 6.5-53.3.8-13.1-5.2-15.3-2.7-24.9s9.2-61 9.2-61l-35-6.9z"/><path id="XMLID_1589_" class="st11" d="M621.8 359.2s4.5 57.1 6.5 64.3c2 7.2 3.3 35.1 4.8 44.7 1.4 9.6 1.6 37.3 1.6 37.3 3.5 11.3 17.8 1.8 17.8 1.8 6-35.4 1.8-53 1.7-63.3-.2-10.4 4.9-37.5 3.9-48.8s-2.2-34.7-.1-39.1a62.2 62.2 0 005.5-24.6c-16.9-6.4-43.4.8-43.4.8l1.7 26.9z"/></g><path id="XMLID_1610_" class="st5" d="M595.8 234.9c15-.7 40.4 17 51.9 31.5s4.4 30.2.5 45.8c-3.9 15.5 2.1 54.5 2.1 58.2-17.7 11.9-50.7 13.3-55.6-4.2-2.1-19.1 2.2-39 2.4-50.1-.7-24.1-21.1-74-1.3-81.2z"/><path id="XMLID_1609_" class="st12" d="M608.8 238.3c-7.8 33.8-5.3 70.4-3.6 84.7s2.1 62 2.1 62c-11.5-5.8-17-16.6-17.3-21.5s4.2-46.3 3.9-49.6c-.3-3.4-6.2-35.3-5.6-52.6.6-17.3 7.1-19.9 7.1-19.9l14.8-6.6-1.4 3.5z"/><path id="XMLID_1608_" class="st12" d="M630.5 241.9c-11.5 24.6-6 47.2-5.5 67.4.5 20.3 11 77.1 11 77.1 20.2-5 22.6-18.5 26.5-25.5 9.3-47.4-2.4-85.8-11.2-100.1-6.8-11-20.8-18.9-20.8-18.9z"/><g id="XMLID_1570_"><g id="XMLID_1593_"><path id="XMLID_1596_" d="M549.3 318.5c2.8 1.6 7.3 1.6 10.2 0 2.8-1.6 2.8-4.2 0-5.9a11.4 11.4 0 00-10.2 0c-2.7 1.6-2.8 4.3 0 5.9z" fill="#83c9ff"/></g></g><g id="XMLID_1476_"><path id="XMLID_1477_" class="st12" d="M643.2 261.3c-14 6.9-15.3 47.9-25.9 58.2-6.1 5.8-30.3 1.2-38.5 1.3-3.2 7.3 1.2 16.1 1.2 16.1 46.1 2.3 51.7 3.7 63.4-18.7 9.1-17.6 18.5-61.6-.2-56.9z"/></g><g id="XMLID_1471_"><path id="XMLID_1475_" class="st12" d="M595.4 241.4c-8.9 4.7-13.2 42.1-23.8 51.4-6 5.3-8.7 10.2-21 16.3-3.2 6.6 5.5 10.8 5.5 10.8 24.6-9.3 30.2-17.3 38.4-29.7 10.1-15.4 19.6-53.1.9-48.8z"/><path id="XMLID_1474_" class="st8" d="M555.5 318.6c-.2.8-2.7 3.4-4.8 5.9-2.1 2.4-5.5 6.6-6.6 5.6s1-5.2 1-5.2-6.3 6-7.4 8c-1.1 2-.5-3.8 1.1-6.5-4 6.1-5 7.5-5.3 6s3-9.9 2.6-9.1c-4.7 7-6.4 8-6 4.8.5-3.2 5-8.7 7.8-10.3-8.1 5.3-8.7 4.7-6.6 2.3 2-2.3 9.5-8.1 19.5-9.5 6.3 6.1 4.7 8 4.7 8z"/></g><path id="XMLID_1439_" class="st8" d="M550.2 331.5c2.6-4.1 6.4-8.7 11.2-10 3.4-.9 7-.2 10.3.9 2.7.9 6.5 1.2 9.1 2.4 1.2 3.1 1.9 5.8 1.9 8.6a8 8 0 01-1.8.4c-2.8.3-5.7 1.3-8.5 1.2-1.9-.1-4.9.5-6.6 0 .7.2 1.5.5 1.6 1.3.1.6-.4 1.2-1 1.3-4.1 1.1-7.8-3.9-10.3-6.3.2.2-9.3 5.4-5.9.2z"/><path id="XMLID_902_" class="st14" d="M593.5 200.4l-.6 1.3c-.8 2.2-.2 4.9-.8 7.2-.9 3.7-3.5 6.6-4.7 10.2-4.5 13.1 8.5 20.4 19.7 19.4 2-.2 4.1-.6 5.7-1.9 5.5-4.2-.7-10.9-3.3-14.8-1.8-2.7-4.3-6.3-4.5-9.7-.2-3.1 1.5-5.8.8-9.2-1.1-6.5-9.3-7.9-12.3-2.5z"/><path id="XMLID_899_" class="st8" d="M627.1 226.8s-3.7 12.9 4.8 18.2c.3 3.1-8.6 16.4-17.6 14.2-5.2-1.3-7.9-8.8-7.9-8.8.5-4.6 3.2-14.4 3.2-14.4l17.5-9.2z"/><g id="XMLID_897_"><path id="XMLID_898_" class="st8" d="M597 200.7s-2.3 8.1-1.4 14.5c.9 6.3 1.4 18.9 7.1 23 5.6 4 13.6-.6 19-5.2 5.3-4.5 11-12.9 11.1-22.9.1-10.1-3.8-22.4-18.4-21.8-14.6.6-17.4 12.4-17.4 12.4z"/></g><path id="XMLID_896_" class="st14" d="M607.2 194.5c-3.8 4.6-2 10.3 2.7 13.7 3.2 2.3 6 3.8 8.2 7.4a24 24 0 013.3 11.1l.4 9.6c.1 1.5.2 3.5 1.7 3.9 1.9.5 5.6-.9 7.2-1.9a28 28 0 0013.6-22.6c.4-11.3-6-18.5-14.2-25.1-8.4-6.6-16.2-4.2-22.9 3.9z"/><path id="XMLID_895_" class="st14" d="M602.2 188.9c.1 0 .1 0 0 0 2.9-2 14.5-5.5 14.5.3.1 5.9-8.6 11.8-13.1 14.4-2 1.1-4.1 2.1-5.9 3.5-2.4 1.9-2.6 5.4-4.7 7-3.2-3.1-2.4-10.6-1.1-14.4 1.7-5.1 6.1-7.9 10.3-10.8z"/><path class="st10" d="M608.7 239.6c5.9-.5 12.4-6.3 12.4-6.3s-1.4 6.9-13.2 9.4l.8-3.1z"/></g><path id="XMLID_900_" class="st15" d="M777.9 586.8c-5.7 8.9-4.4 15.3-2.8 16 34.1 15.2 55.3 10.5 60.5 8.8l-17.3-24c-16.8 3-40.4-.8-40.4-.8z"/><g id="XMLID_662_"><g class="st16"><g id="XMLID_678_"><path id="XMLID_679_" class="st17" d="M376.9 431.8l-.1 37.6c0 5.3-3.5 10.6-10.5 14.6l.1-37.6c7-4 10.5-9.3 10.5-14.6z"/></g><g id="XMLID_680_"><path id="XMLID_681_" class="st17" d="M435.1 486.1l-.1 37.6-68.2 39.6.1-37.6z"/></g><g id="XMLID_682_"><path id="XMLID_683_" d="M305.4 577.9l.1-37.6c0-5.3 3.5-10.6 10.5-14.6 14-8.1 36.8-8.1 50.9 0l-.1 37.6a56.3 56.3 0 00-50.9 0c-7 4-10.4 9.3-10.5 14.6z" fill="#343bd3"/></g><g id="XMLID_684_"><path id="XMLID_685_" class="st17" d="M316.2 555.2l-.1 37.6-68.2 39.6.1-37.6z"/></g><g id="XMLID_686_"><path id="XMLID_687_" fill="#7c82f4" d="M248 594.8l-.1 37.6L59.5 523.7l.1-37.6z"/></g><g id="XMLID_688_"><path id="XMLID_689_" d="M366.3 417c14.1 8.1 14.2 21.4.2 29.5l68.6 39.6-68.2 39.6c-14.1-8.1-36.9-8.1-50.9 0s-13.9 21.3.2 29.5L248 594.8 59.6 486.1l187.1-108.8 68.7 39.6a56 56 0 0150.9.1z" fill="#6462ec"/></g></g><g class="st16"><g id="XMLID_690_"><path id="XMLID_691_" class="st21" d="M606.5 469.2l.1-37.6c0 5.4 3.5 10.7 10.6 14.8l-.1 37.6c-7.1-4.1-10.6-9.5-10.6-14.8z"/></g><g id="XMLID_692_"><path id="XMLID_693_" class="st21" d="M617.7 525.7l-.1 37.6-68.7-39.6.1-37.6z"/></g><g id="XMLID_694_"><path id="XMLID_695_" class="st22" d="M679.2 540.6l-.1 37.6c0-5.4-3.5-10.7-10.6-14.8a56.3 56.3 0 00-50.9 0l.1-37.6c14-8.1 36.8-8.1 50.9 0 7.1 4 10.6 9.4 10.6 14.8z"/></g><g id="XMLID_696_"><path id="XMLID_697_" class="st21" d="M737.4 594.8l-.1 37.6-68.7-39.6.1-37.6z"/></g><g id="XMLID_698_"><path id="XMLID_699_" class="st22" d="M924.6 486.1l-.2 37.6-187.1 108.7.1-37.6z"/></g><g id="XMLID_700_"><path id="XMLID_701_" class="st23" d="M924.6 486.1L737.4 594.8l-68.7-39.6c14-8.1 13.9-21.4-.1-29.5a56.3 56.3 0 00-50.9 0L549 486.1l68.2-39.6c-14.1-8.1-14.2-21.3-.1-29.5 14-8.1 36.8-8.1 50.9 0l68.2-39.6 188.4 108.7z"/></g></g></g><g id="XMLID_919_"><g id="XMLID_920_"><path id="XMLID_921_" class="st24" d="M318.3 486.5l-3.2 1.9c.6-.3.9-1 .9-2.1l3.2-1.9c.1 1.1-.3 1.8-.9 2.1z"/><g id="XMLID_922_"><path id="XMLID_923_" class="st24" d="M223.9 357.7l3.2-1.9c.6-.3 1.4-.3 2.3.2l-3.2 1.9c-.9-.5-1.7-.5-2.3-.2z"/><g id="XMLID_924_"><path id="XMLID_925_" class="st24" d="M316.3 413.6l3.2-1.8-.2 72.6-3.2 1.9z"/><path id="XMLID_926_" class="st24" d="M226.2 357.9l3.3-1.8 86.8 50.1-3.3 1.8z"/><path id="XMLID_927_" class="st24" d="M313 408l3.2-1.9a7 7 0 013.2 5.6l-3.2 1.9c.1-2-1.4-4.5-3.2-5.6z"/><path id="XMLID_928_" class="st25" d="M313 408a7 7 0 013.2 5.6l-.2 72.7c0 2.1-1.5 2.9-3.2 1.8L226 438a7 7 0 01-3.2-5.6l.2-72.7c0-2.1 1.4-2.9 3.2-1.8L313 408z"/><path id="XMLID_1674_" class="st26" d="M226.2 365.2l-.1 65.5 86.8 50.1.1-65.4z"/></g></g><g id="XMLID_929_"><g id="XMLID_930_"><path id="XMLID_931_" class="st27" d="M314.2 490v3.7c0 .7-.4 1.3-1.3 1.8v-3.7c.8-.4 1.3-1.1 1.3-1.8z"/><path id="XMLID_932_" class="st27" d="M250.6 527.9v3.7c-1.8 1-4.7 1-6.4 0v-3.7a6.6 6.6 0 006.4 0z"/><path id="XMLID_933_" class="st27" d="M156.1 479.7V476c0 .7.4 1.4 1.3 1.9v3.7c-.9-.6-1.3-1.3-1.3-1.9z"/><path id="XMLID_934_" class="st27" d="M312.9 491.9v3.7l-62.3 36.1v-3.8z"/><path id="XMLID_935_" class="st27" d="M244.2 527.9v3.8l-86.8-50.2v-3.7z"/><path id="XMLID_936_" class="st24" d="M312.8 488.1c1.8 1 1.8 2.7 0 3.7l-62.2 36.1c-1.8 1-4.7 1-6.4 0l-86.8-50.1c-1.8-1-1.8-2.7 0-3.7l62.2-36.1c1.8-1 4.6-1 6.4 0l86.8 50.1z"/></g><g class="st16" id="XMLID_937_"><g id="XMLID_939_"><path id="XMLID_940_" class="st28" d="M242.4 497.5l-32-18.5c-.9-.5-2.3-.5-3.2 0l-16.5 9.5c-.9.5-.9 1.4 0 1.9l32 18.5c.9.5 2.3.5 3.2 0l16.5-9.5c.9-.5.9-1.3 0-1.9"/></g></g><g id="XMLID_938_"><g class="st16"><g id="XMLID_942_"><path id="XMLID_943_" class="st25" d="M227 443.7v.9l-5.8 3.4v-.9z"/></g><g id="XMLID_944_"><path id="XMLID_945_" class="st25" d="M221.2 447.1v.9l-5.8-3.3v-.9z"/></g><g id="XMLID_946_"><path id="XMLID_947_" class="st15" d="M227 443.7l-5.8 3.4-5.8-3.3 5.8-3.4z"/></g></g><g class="st16"><g id="XMLID_948_"><path id="XMLID_949_" class="st25" d="M234.4 448v.9l-5.9 3.4v-.9z"/></g><g id="XMLID_950_"><path id="XMLID_951_" class="st25" d="M228.5 451.4v.9l-5.7-3.3v-1z"/></g><g id="XMLID_952_"><path id="XMLID_953_" class="st15" d="M234.4 448l-5.9 3.4-5.7-3.4 5.8-3.4z"/></g></g><g class="st16"><g id="XMLID_954_"><path id="XMLID_955_" class="st25" d="M241.7 452.2v.9l-5.8 3.4v-.9z"/></g><g id="XMLID_956_"><path id="XMLID_957_" class="st25" d="M235.9 455.6v.9l-5.8-3.3v-.9z"/></g><g id="XMLID_958_"><path id="XMLID_959_" class="st15" d="M241.7 452.2l-5.8 3.4-5.8-3.3 5.9-3.4z"/></g></g><g class="st16"><g id="XMLID_960_"><path id="XMLID_961_" class="st25" d="M249.1 456.5v.9l-5.8 3.4v-.9z"/></g><g id="XMLID_962_"><path id="XMLID_963_" class="st25" d="M243.3 459.9v.9l-5.8-3.3v-1z"/></g><g id="XMLID_964_"><path id="XMLID_965_" class="st15" d="M249.1 456.5l-5.8 3.4-5.8-3.4 5.9-3.4z"/></g></g><g class="st16"><g id="XMLID_966_"><path id="XMLID_967_" class="st25" d="M256.5 460.7v.9l-5.9 3.4v-.9z"/></g><g id="XMLID_968_"><path id="XMLID_969_" class="st25" d="M250.6 464.1v.9l-5.7-3.3v-.9z"/></g><g id="XMLID_970_"><path id="XMLID_971_" class="st15" d="M256.5 460.7l-5.9 3.4-5.7-3.3 5.8-3.4z"/></g></g><g class="st16"><g id="XMLID_972_"><path id="XMLID_973_" class="st25" d="M263.8 465v.9l-5.8 3.4v-.9z"/></g><g id="XMLID_974_"><path id="XMLID_975_" class="st25" d="M258 468.4v.9l-5.8-3.3v-1z"/></g><g id="XMLID_976_"><path id="XMLID_977_" class="st15" d="M263.8 465l-5.8 3.4-5.8-3.4 5.9-3.4z"/></g></g><g class="st16"><g id="XMLID_978_"><path id="XMLID_979_" class="st25" d="M271.2 469.2v.9l-5.8 3.4v-.9z"/></g><g id="XMLID_980_"><path id="XMLID_981_" class="st25" d="M265.4 472.6v.9l-5.8-3.3v-.9z"/></g><g id="XMLID_982_"><path id="XMLID_983_" class="st15" d="M271.2 469.2l-5.8 3.4-5.8-3.3 5.9-3.4z"/></g></g><g class="st16"><g id="XMLID_984_"><path id="XMLID_985_" class="st25" d="M278.6 473.5v.9l-5.9 3.4v-.9z"/></g><g id="XMLID_986_"><path id="XMLID_987_" class="st25" d="M272.7 476.9v.9l-5.7-3.3v-1z"/></g><g id="XMLID_988_"><path id="XMLID_989_" class="st15" d="M278.6 473.5l-5.9 3.4-5.7-3.4 5.8-3.3z"/></g></g><g class="st16"><g id="XMLID_990_"><path id="XMLID_991_" class="st25" d="M285.9 477.7v1l-5.8 3.4v-1z"/></g><g id="XMLID_992_"><path id="XMLID_993_" class="st25" d="M280.1 481.1v1l-5.8-3.4v-.9z"/></g><g id="XMLID_994_"><path id="XMLID_995_" class="st15" d="M285.9 477.7l-5.8 3.4-5.8-3.3 5.9-3.4z"/></g></g><g class="st16"><g id="XMLID_996_"><path id="XMLID_997_" class="st25" d="M293.3 482v.9l-5.8 3.4v-.9z"/></g><g id="XMLID_998_"><path id="XMLID_999_" class="st25" d="M287.5 485.4v.9l-5.8-3.3v-.9z"/></g><g id="XMLID_1000_"><path id="XMLID_1001_" class="st15" d="M293.3 482l-5.8 3.4-5.8-3.3 5.9-3.4z"/></g></g><g class="st16"><g id="XMLID_1002_"><path id="XMLID_1003_" class="st25" d="M308.1 490.5l-.1.9-5.8 3.4v-.9z"/></g><g id="XMLID_1004_"><path id="XMLID_1005_" class="st25" d="M302.2 493.9v.9l-13.1-7.6v-.9z"/></g><g id="XMLID_1006_"><path id="XMLID_1007_" class="st15" d="M308.1 490.5l-5.9 3.4-13.1-7.6 5.8-3.4z"/></g></g><g class="st16"><g id="XMLID_1008_"><path id="XMLID_1009_" class="st25" d="M226.9 452.3v.9l-5.8 3.4v-.9z"/></g><g id="XMLID_1010_"><path id="XMLID_1011_" class="st25" d="M221.1 455.7v.9L208 449v-.9z"/></g><g id="XMLID_1012_"><path id="XMLID_1013_" class="st15" d="M226.9 452.3l-5.8 3.4-13.1-7.6 5.8-3.4z"/></g></g><g class="st16"><g id="XMLID_1014_"><path id="XMLID_1015_" class="st25" d="M234.3 456.5v1l-5.8 3.3v-.9z"/></g><g id="XMLID_1016_"><path id="XMLID_1017_" class="st25" d="M228.5 459.9v.9l-5.8-3.3v-.9z"/></g><g id="XMLID_1018_"><path id="XMLID_1019_" class="st15" d="M234.3 456.5l-5.8 3.4-5.8-3.3 5.8-3.4z"/></g></g><g class="st16"><g id="XMLID_1020_"><path id="XMLID_1021_" class="st25" d="M241.7 460.8v.9l-5.9 3.4v-.9z"/></g><g id="XMLID_1022_"><path id="XMLID_1023_" class="st25" d="M235.8 464.2v.9l-5.7-3.3v-.9z"/></g><g id="XMLID_1024_"><path id="XMLID_1025_" class="st15" d="M241.7 460.8l-5.9 3.4-5.7-3.3 5.8-3.4z"/></g></g><g class="st16"><g id="XMLID_1026_"><path id="XMLID_1027_" class="st25" d="M249 465v1l-5.8 3.4v-1z"/></g><g id="XMLID_1028_"><path id="XMLID_1029_" class="st25" d="M243.2 468.4v1l-5.8-3.4v-.9z"/></g><g id="XMLID_1030_"><path id="XMLID_1031_" class="st15" d="M249 465l-5.8 3.4-5.8-3.3 5.9-3.4z"/></g></g><g class="st16"><g id="XMLID_1032_"><path id="XMLID_1033_" class="st25" d="M256.4 469.3v.9l-5.8 3.4v-.9z"/></g><g id="XMLID_1034_"><path id="XMLID_1035_" class="st25" d="M250.6 472.7v.9l-5.8-3.3v-.9z"/></g><g id="XMLID_1036_"><path id="XMLID_1037_" class="st15" d="M256.4 469.3l-5.8 3.4-5.8-3.3 5.8-3.4z"/></g></g><g class="st16"><g id="XMLID_1038_"><path id="XMLID_1039_" class="st25" d="M263.8 473.5v1l-5.9 3.4v-1z"/></g><g id="XMLID_1040_"><path id="XMLID_1041_" class="st25" d="M257.9 476.9v1l-5.7-3.4v-.9z"/></g><g id="XMLID_1042_"><path id="XMLID_1043_" class="st15" d="M263.8 473.5l-5.9 3.4-5.7-3.3 5.8-3.4z"/></g></g><g class="st16"><g id="XMLID_1044_"><path id="XMLID_1045_" class="st25" d="M271.1 477.8v.9l-5.8 3.4v-.9z"/></g><g id="XMLID_1046_"><path id="XMLID_1047_" class="st25" d="M265.3 481.2v.9l-5.8-3.3v-.9z"/></g><g id="XMLID_1048_"><path id="XMLID_1049_" class="st15" d="M271.1 477.8l-5.8 3.4-5.8-3.3 5.9-3.4z"/></g></g><g class="st16"><g id="XMLID_1050_"><path id="XMLID_1051_" class="st25" d="M278.5 482.1v.9l-5.8 3.4v-1z"/></g><g id="XMLID_1052_"><path id="XMLID_1053_" class="st25" d="M272.7 485.4v1l-5.8-3.4v-.9z"/></g><g id="XMLID_1054_"><path id="XMLID_1055_" class="st15" d="M278.5 482.1l-5.8 3.3-5.8-3.3 5.8-3.4z"/></g></g><g class="st16"><g id="XMLID_1056_"><path id="XMLID_1057_" class="st25" d="M285.9 486.3v.9l-5.9 3.4v-.9z"/></g><g id="XMLID_1058_"><path id="XMLID_1059_" class="st25" d="M280 489.7v.9l-5.7-3.3v-.9z"/></g><g id="XMLID_1060_"><path id="XMLID_1061_" class="st15" d="M285.9 486.3l-5.9 3.4-5.7-3.3 5.8-3.4z"/></g></g><g class="st16"><g id="XMLID_1062_"><path id="XMLID_1063_" class="st25" d="M293.2 490.6v.9l-5.8 3.4v-1z"/></g><g id="XMLID_1064_"><path id="XMLID_1065_" class="st25" d="M287.4 493.9v1l-5.8-3.3v-1z"/></g><g id="XMLID_1066_"><path id="XMLID_1067_" class="st15" d="M293.2 490.6l-5.8 3.3-5.8-3.3 5.9-3.4z"/></g></g><g class="st16"><g id="XMLID_1068_"><path id="XMLID_1069_" class="st25" d="M300.6 494.8v.9l-5.8 3.4v-.9z"/></g><g id="XMLID_1070_"><path id="XMLID_1071_" class="st25" d="M294.8 498.2v.9l-5.8-3.3v-.9z"/></g><g id="XMLID_1072_"><path id="XMLID_1073_" class="st15" d="M300.6 494.8l-5.8 3.4-5.8-3.3 5.8-3.4z"/></g></g><g class="st16"><g id="XMLID_1074_"><path id="XMLID_1075_" class="st25" d="M219.5 456.6v.9l-5.8 3.4v-.9z"/></g><g id="XMLID_1076_"><path id="XMLID_1077_" class="st25" d="M213.7 460v.9l-13.2-7.6v-.9z"/></g><g id="XMLID_1078_"><path id="XMLID_1079_" class="st15" d="M219.5 456.6l-5.8 3.4-13.2-7.6 5.9-3.4z"/></g></g><g class="st16"><g id="XMLID_1080_"><path id="XMLID_1081_" class="st25" d="M226.9 460.9v.9l-5.9 3.4v-1z"/></g><g id="XMLID_1082_"><path id="XMLID_1083_" class="st25" d="M221 464.2v1l-5.7-3.4v-.9z"/></g><g id="XMLID_1084_"><path id="XMLID_1085_" class="st15" d="M226.9 460.9l-5.9 3.3-5.7-3.3 5.8-3.4z"/></g></g><g class="st16"><g id="XMLID_1086_"><path id="XMLID_1087_" class="st25" d="M234.2 465.1v.9l-5.8 3.4v-.9z"/></g><g id="XMLID_1088_"><path id="XMLID_1089_" class="st25" d="M228.4 468.5v.9l-5.8-3.3v-.9z"/></g><g id="XMLID_1090_"><path id="XMLID_1091_" class="st15" d="M234.2 465.1l-5.8 3.4-5.8-3.3 5.9-3.4z"/></g></g><g class="st16"><g id="XMLID_1092_"><path id="XMLID_1093_" class="st25" d="M241.6 469.4v.9l-5.8 3.4v-1z"/></g><g id="XMLID_1094_"><path id="XMLID_1095_" class="st25" d="M235.8 472.7v1l-5.8-3.4v-.9z"/></g><g id="XMLID_1096_"><path id="XMLID_1097_" class="st15" d="M241.6 469.4l-5.8 3.3-5.8-3.3 5.8-3.4z"/></g></g><g class="st16"><g id="XMLID_1098_"><path id="XMLID_1099_" class="st25" d="M249 473.6v.9l-5.9 3.4v-.9z"/></g><g id="XMLID_1100_"><path id="XMLID_1101_" class="st25" d="M243.1 477v.9l-5.7-3.3v-.9z"/></g><g id="XMLID_1102_"><path id="XMLID_1103_" class="st15" d="M249 473.6l-5.9 3.4-5.7-3.3 5.8-3.4z"/></g></g><g class="st16"><g id="XMLID_1104_"><path id="XMLID_1105_" class="st25" d="M256.3 477.9v.9l-5.8 3.4v-.9z"/></g><g id="XMLID_1106_"><path id="XMLID_1107_" class="st25" d="M250.5 481.3v.9l-5.8-3.3v-1z"/></g><g id="XMLID_1108_"><path id="XMLID_1109_" class="st15" d="M256.3 477.9l-5.8 3.4-5.8-3.4 5.9-3.4z"/></g></g><g class="st16"><g id="XMLID_1110_"><path id="XMLID_1111_" class="st25" d="M263.7 482.1v.9l-5.8 3.4v-.9z"/></g><g id="XMLID_1112_"><path id="XMLID_1113_" class="st25" d="M257.9 485.5v.9l-5.8-3.3v-.9z"/></g><g id="XMLID_1114_"><path id="XMLID_1115_" class="st15" d="M263.7 482.1l-5.8 3.4-5.8-3.3 5.8-3.4z"/></g></g><g class="st16"><g id="XMLID_1116_"><path id="XMLID_1117_" class="st25" d="M271.1 486.4v.9l-5.9 3.4v-.9z"/></g><g id="XMLID_1118_"><path id="XMLID_1119_" class="st25" d="M265.2 489.8v.9l-5.7-3.3v-1z"/></g><g id="XMLID_1120_"><path id="XMLID_1121_" class="st15" d="M271.1 486.4l-5.9 3.4-5.7-3.4 5.8-3.4z"/></g></g><g class="st16"><g id="XMLID_1122_"><path id="XMLID_1123_" class="st25" d="M278.4 490.6v1l-5.8 3.3v-.9z"/></g><g id="XMLID_1124_"><path id="XMLID_1125_" class="st25" d="M272.6 494v.9l-5.7-3.3v-.9z"/></g><g id="XMLID_1126_"><path id="XMLID_1127_" class="st15" d="M278.4 490.6l-5.8 3.4-5.7-3.3 5.8-3.4z"/></g></g><g class="st16"><g id="XMLID_1128_"><path id="XMLID_1129_" class="st25" d="M293.2 499.1v1l-5.9 3.4v-1z"/></g><g id="XMLID_1130_"><path id="XMLID_1131_" class="st25" d="M287.3 502.5v1l-13.1-7.6v-1z"/></g><g id="XMLID_1132_"><path id="XMLID_1133_" class="st15" d="M293.2 499.1l-5.9 3.4-13.1-7.6 5.8-3.3z"/></g></g><g class="st16"><g id="XMLID_1134_"><path id="XMLID_1135_" class="st25" d="M219.4 465.2v.9l-5.8 3.4v-.9z"/></g><g id="XMLID_1136_"><path id="XMLID_1137_" class="st25" d="M213.6 468.6v.9l-20.5-11.8v-1z"/></g><g id="XMLID_1138_"><path id="XMLID_1139_" class="st15" d="M219.4 465.2l-5.8 3.4-20.5-11.9 5.8-3.4z"/></g></g><g class="st16"><g id="XMLID_1140_"><path id="XMLID_1141_" class="st25" d="M226.8 469.4v.9l-5.8 3.4v-.9z"/></g><g id="XMLID_1142_"><path id="XMLID_1143_" class="st25" d="M221 472.8v.9l-5.8-3.3v-.9z"/></g><g id="XMLID_1144_"><path id="XMLID_1145_" class="st15" d="M226.8 469.4l-5.8 3.4-5.8-3.3 5.8-3.4z"/></g></g><g class="st16"><g id="XMLID_1146_"><path id="XMLID_1147_" class="st25" d="M234.2 473.7v.9l-5.9 3.4v-.9z"/></g><g id="XMLID_1148_"><path id="XMLID_1149_" class="st25" d="M228.3 477.1v.9l-5.7-3.3v-1z"/></g><g id="XMLID_1150_"><path id="XMLID_1151_" class="st15" d="M234.2 473.7l-5.9 3.4-5.7-3.4 5.8-3.3z"/></g></g><g class="st16"><g id="XMLID_1152_"><path id="XMLID_1153_" class="st25" d="M241.5 477.9v1l-5.8 3.3v-.9z"/></g><g id="XMLID_1154_"><path id="XMLID_1155_" class="st25" d="M235.7 481.3v.9l-5.7-3.3v-.9z"/></g><g id="XMLID_1156_"><path id="XMLID_1157_" class="st15" d="M241.5 477.9l-5.8 3.4-5.7-3.3 5.8-3.4z"/></g></g><g class="st16"><g id="XMLID_1158_"><path id="XMLID_1159_" class="st25" d="M248.9 482.2v.9l-5.8 3.4v-.9z"/></g><g id="XMLID_1160_"><path id="XMLID_1161_" class="st25" d="M243.1 485.6v.9l-5.8-3.3v-.9z"/></g><g id="XMLID_1162_"><path id="XMLID_1163_" class="st15" d="M248.9 482.2l-5.8 3.4-5.8-3.3 5.8-3.4z"/></g></g><g class="st16"><g id="XMLID_1164_"><path id="XMLID_1165_" class="st25" d="M256.3 486.4v1l-5.9 3.4v-1z"/></g><g id="XMLID_1166_"><path id="XMLID_1167_" class="st25" d="M250.4 489.8v1l-5.7-3.4v-.9z"/></g><g id="XMLID_1168_"><path id="XMLID_1169_" class="st15" d="M256.3 486.4l-5.9 3.4-5.7-3.3 5.8-3.4z"/></g></g><g class="st16"><g id="XMLID_1170_"><path id="XMLID_1171_" class="st25" d="M263.6 490.7v.9l-5.8 3.4v-.9z"/></g><g id="XMLID_1172_"><path id="XMLID_1173_" class="st25" d="M257.8 494.1v.9l-5.8-3.3v-.9z"/></g><g id="XMLID_1174_"><path id="XMLID_1175_" class="st15" d="M263.6 490.7l-5.8 3.4-5.8-3.3 5.9-3.4z"/></g></g><g class="st16"><g id="XMLID_1176_"><path id="XMLID_1177_" class="st25" d="M271 494.9v1l-5.8 3.4v-1z"/></g><g id="XMLID_1178_"><path id="XMLID_1179_" class="st25" d="M265.2 498.3v1l-5.8-3.4v-.9z"/></g><g id="XMLID_1180_"><path id="XMLID_1181_" class="st15" d="M271 494.9l-5.8 3.4-5.8-3.3 5.9-3.4z"/></g></g><g class="st16"><g id="XMLID_1182_"><path id="XMLID_1183_" class="st25" d="M285.7 503.5v.9l-5.8 3.4v-1z"/></g><g id="XMLID_1184_"><path id="XMLID_1185_" class="st25" d="M279.9 506.8v1l-13.1-7.6v-.9z"/></g><g id="XMLID_1186_"><path id="XMLID_1187_" class="st15" d="M285.7 503.5l-5.8 3.3-13.1-7.5 5.8-3.4z"/></g></g><g class="st16"><g id="XMLID_1188_"><path id="XMLID_1189_" class="st25" d="M197.3 461v.9l-5.9 3.4v-.9z"/></g><g id="XMLID_1190_"><path id="XMLID_1191_" class="st25" d="M191.4 464.4v.9l-5.7-3.3v-.9z"/></g><g id="XMLID_1192_"><path id="XMLID_1193_" class="st15" d="M197.3 461l-5.9 3.4-5.7-3.3 5.8-3.4z"/></g></g><g class="st16"><g id="XMLID_1194_"><path id="XMLID_1195_" class="st25" d="M204.6 465.2v1l-5.8 3.4v-1z"/></g><g id="XMLID_1196_"><path id="XMLID_1197_" class="st25" d="M198.8 468.6v1l-5.8-3.4v-.9z"/></g><g id="XMLID_1198_"><path id="XMLID_1199_" class="st15" d="M204.6 465.2l-5.8 3.4-5.8-3.3 5.9-3.4z"/></g></g><g class="st16"><g id="XMLID_1200_"><path id="XMLID_1201_" class="st25" d="M212 469.5v.9l-5.8 3.4v-.9z"/></g><g id="XMLID_1202_"><path id="XMLID_1203_" class="st25" d="M206.2 472.9v.9l-5.8-3.3v-.9z"/></g><g id="XMLID_1204_"><path id="XMLID_1205_" class="st15" d="M212 469.5l-5.8 3.4-5.8-3.3 5.8-3.4z"/></g></g><g class="st16"><g id="XMLID_1206_"><path id="XMLID_1207_" class="st25" d="M248.8 490.8v.9l-5.8 3.4v-1z"/></g><g id="XMLID_1208_"><path id="XMLID_1209_" class="st25" d="M243 494.1v1l-35.2-20.4v-.9z"/></g><g id="XMLID_1210_"><path id="XMLID_1211_" class="st15" d="M248.8 490.8l-5.8 3.3-35.2-20.3 5.8-3.4z"/></g></g><g class="st16"><g id="XMLID_1212_"><path id="XMLID_1213_" class="st25" d="M256.2 495v.9l-5.8 3.4v-.9z"/></g><g id="XMLID_1214_"><path id="XMLID_1215_" class="st25" d="M250.4 498.4v.9l-5.8-3.3v-.9z"/></g><g id="XMLID_1216_"><path id="XMLID_1217_" class="st15" d="M256.2 495l-5.8 3.4-5.8-3.3 5.8-3.4z"/></g></g><g class="st16"><g id="XMLID_1218_"><path id="XMLID_1219_" class="st25" d="M263.6 499.3v.9l-5.9 3.4v-.9z"/></g><g id="XMLID_1220_"><path id="XMLID_1221_" class="st25" d="M257.7 502.7v.9l-5.7-3.3v-1z"/></g><g id="XMLID_1222_"><path id="XMLID_1223_" class="st15" d="M263.6 499.3l-5.9 3.4-5.7-3.4 5.8-3.4z"/></g></g><g class="st16"><g id="XMLID_1224_"><path id="XMLID_1225_" class="st25" d="M278.3 507.8v.9l-5.8 3.4v-.9z"/></g><g id="XMLID_1226_"><path id="XMLID_1227_" class="st25" d="M272.5 511.2v.9l-13.2-7.6v-.9z"/></g><g id="XMLID_1228_"><path id="XMLID_1229_" class="st15" d="M278.3 507.8l-5.8 3.4-13.2-7.6 5.9-3.4z"/></g></g></g></g></g><g id="XMLID_941_"><path id="XMLID_1673_" class="st29" d="M236.3 427.8l67.1 38.8v-48.4l-67.1-38.7z"/><path id="XMLID_1672_" class="st26" d="M298.9 422.9l-24-13.9v33.7l24 13.9z"/><g id="XMLID_1230_"><path id="XMLID_1671_" class="st15" d="M242.9 392.5l26.9 15.5v-1.9l-26.9-15.6z"/><path id="XMLID_1670_" class="st15" d="M242.9 397.1l26.9 15.5v-2l-26.9-15.5z"/><path id="XMLID_1669_" class="st15" d="M242.9 401.6l26.9 15.6v-2l-26.9-15.5z"/><path id="XMLID_1668_" class="st15" d="M242.9 406.2l26.9 15.5v-1.9l-26.9-15.6z"/><path id="XMLID_1667_" class="st15" d="M242.9 410.8l26.9 15.5v-2l-26.9-15.5z"/><path id="XMLID_1666_" class="st15" d="M242.9 415.3l26.9 15.6v-2l-26.9-15.5z"/><path id="XMLID_1665_" class="st15" d="M242.9 424.5l18.8 10.8v-2l-18.8-10.8z"/><path id="XMLID_1664_" class="st15" d="M242.9 419.9l26.9 15.5v-1.9l-26.9-15.6z"/></g><path id="XMLID_875_" class="st30" d="M284.9 417.8l-7.1 10.1 14.2 8.2z"/><path id="XMLID_1663_" class="st23" d="M290.6 424l-7.1 10.1 14.2 8.2z"/><path id="XMLID_876_" class="st31" d="M296.1 444.7c0 3.5-2.5 5-5.5 3.2-3.1-1.8-5.5-6.1-5.5-9.6s2.5-5 5.5-3.2 5.5 6.1 5.5 9.6z"/></g></g><g class="st16" style="animation:translate 5000ms ease 0ms infinite"><g id="XMLID_664_"><path id="XMLID_665_" class="st32" d="M679 344.3l-.1 37.6-68.2 39.6.1-37.5z"/></g><g id="XMLID_666_"><path id="XMLID_667_" class="st33" d="M372.2 384l-.1 37.5-68.7-39.6.1-37.6z"/></g><g id="XMLID_668_"><path id="XMLID_669_" d="M549.4 436.2l.1-37.6c0-5.3 3.5-10.6 10.5-14.6 14-8.1 36.8-8.1 50.9 0l-.1 37.6a56.3 56.3 0 00-50.9 0c-7 4-10.5 9.3-10.5 14.6z" fill="#6cc6e5"/></g><g id="XMLID_670_"><path id="XMLID_671_" class="st32" d="M433.7 398.8l-.1 37.6c0-5.4-3.5-10.8-10.6-14.9a56.3 56.3 0 00-50.9 0l.1-37.6a56 56 0 0150.9 0c7.1 4.2 10.6 9.5 10.6 14.9z"/></g><g id="XMLID_672_"><path id="XMLID_673_" class="st33" d="M491.9 453.1l-.1 37.6-68.7-39.7.1-37.5z"/></g><g id="XMLID_674_"><path id="XMLID_675_" class="st32" d="M560.1 413.5L560 451l-68.2 39.7.1-37.6z"/></g><g id="XMLID_676_"><path id="XMLID_677_" class="st29" d="M679 344.3L610.8 384c-14.1-8.1-36.9-8.1-50.9 0s-13.9 21.4.1 29.5l-68.2 39.6-68.6-39.6c14-8.1 13.9-21.4-.2-29.5s-36.9-8.1-50.9 0l-68.7-39.6 187.2-108.8L679 344.3z"/></g><g id="XMLID_1235_"><g id="XMLID_1236_"><path id="XMLID_1659_" class="st35" d="M569.2 315.1l7.3 8.4 3.5-6.2z"/><path id="XMLID_1658_" class="st31" d="M569.2 315.1l2 2.3 1-1.7z"/></g><path id="XMLID_1657_" class="st31" d="M580 317.3c-.5-.3-1.1-.2-1.8.2a5.6 5.6 0 00-2.5 4.4c0 .8.3 1.4.7 1.6l34.2 19.9c-.5-.3-.7-.8-.7-1.6 0-1.6 1.1-3.6 2.5-4.4.7-.4 1.3-.4 1.8-.2L580 317.3z"/><g id="XMLID_1237_"><path id="XMLID_1238_" class="st36" d="M612.4 337.3c1.4-.8 2.5-.2 2.5 1.5 0 1.6-1.1 3.6-2.5 4.4s-2.5.2-2.5-1.4c0-1.7 1.1-3.6 2.5-4.5z"/></g></g><g id="XMLID_1239_"><path id="XMLID_1656_" class="st22" d="M535.3 326.8a.8.8 0 01-.5-.8v6.6c0 .3.2.5.5.8l7.5 4.3v-6.6l-7.5-4.3z"/><path id="XMLID_1240_" fill="#00c3b6" d="M552.7 325.3v6.7l-9.9 5.7v-6.6z"/><path id="XMLID_1241_" class="st23" d="M552.7 325.3l-10 5.8-7.5-4.3c-.7-.4-.7-1.1 0-1.5l7.4-4.3a3 3 0 012.6 0l7.5 4.3z"/><path id="XMLID_1242_" class="st38" d="M557.9 328.3v6.7l-9.9 5.8v-6.7z"/><path id="XMLID_1243_" class="st39" d="M548 334.1v6.7l-5.2-3.1v-6.6z"/><path id="XMLID_1244_" class="st35" d="M557.9 328.3l-9.9 5.8-5.2-3 9.9-5.8z"/><path id="XMLID_1655_" class="st36" d="M565.4 334.1l-7.4 4.3a3 3 0 01-2.6 0l-7.5-4.3v6.6l7.5 4.3a3 3 0 002.6 0l7.4-4.3c.4-.2.5-.5.5-.7v-6.6c0 .3-.1.5-.5.7z"/><path id="XMLID_1245_" class="st31" d="M565.4 332.6c.7.4.7 1.1 0 1.5l-7.4 4.3a3 3 0 01-2.6 0l-7.5-4.3 10-5.8 7.5 4.3z"/></g><g id="XMLID_1246_"><path id="XMLID_1654_" class="st35" d="M465.2 270.4l-106.3 61.4c-2.5 1.4-2.1 3.9.7 5.5l61.6 35.5c2.8 1.6 7.1 1.8 9.6.4l106.3-61.4c2.5-1.4 2.2-3.9-.7-5.5l-61.6-35.5c-2.8-1.6-7.1-1.8-9.6-.4z"/><g id="XMLID_1247_"><path id="XMLID_1653_" class="st40" d="M474.6 290.3l6.9-4.1 40.7 23.5-6.9 4.1z"/><path id="XMLID_1652_" class="st40" d="M459.6 298.9l7-4 40.7 23.5-7 4z"/><path id="XMLID_1651_" class="st40" d="M444.6 307.5l7-4 40.7 23.5-7 4z"/><path id="XMLID_1650_" class="st40" d="M429.7 316.2l7-4.1 40.7 23.5-7 4.1z"/><path id="XMLID_1647_" class="st40" d="M414.7 324.8l7-4 40.7 23.5-7 4z"/></g><g id="XMLID_1248_"><path id="XMLID_1646_" fill="#ffc8af" d="M474.6 290.3l6.9-4.1 10.2 5.9-7 4z"/><path id="XMLID_1645_" class="st30" d="M459.6 298.9l7-4 23.7 13.7-7 4z"/><path id="XMLID_1643_" class="st23" d="M444.6 307.5l7-4 17.3 10-6.9 4z"/><path id="XMLID_1642_" class="st15" d="M429.7 316.2l7-4.1 29.3 17-6.9 4z"/><path id="XMLID_1641_" class="st31" d="M414.7 324.8l7-4 34.6 20-7 4z"/></g><g id="XMLID_1249_"><path id="XMLID_1639_" class="st40" d="M445.7 350.5l-22.6 13.1 2.9 1.7 22.7-13.1z"/><path id="XMLID_1637_" class="st40" d="M438.9 346.6l-22.6 13.1 3 1.7 22.6-13.1z"/><path id="XMLID_1626_" class="st40" d="M432.2 342.7l-22.7 13 3 1.7 22.6-13z"/><path id="XMLID_1573_" class="st40" d="M425.4 338.8l-22.6 13 2.9 1.7 22.6-13z"/><path id="XMLID_1572_" class="st40" d="M418.6 334.9l-22.6 13 2.9 1.7 22.6-13.1z"/><path id="XMLID_1568_" class="st40" d="M411.8 330.9L389.2 344l2.9 1.7 22.7-13.1z"/><path id="XMLID_1564_" class="st40" d="M398.2 323.1l-15.7 9.1 2.9 1.7 15.8-9.1z"/><path id="XMLID_1562_" class="st40" d="M405 327l-22.6 13.1 2.9 1.7 22.7-13.1z"/></g><path id="XMLID_1560_" class="st40" d="M474.4 282.1l-66.8 38.6 3 1.7 66.8-38.6z"/></g><g id="XMLID_1250_"><path id="XMLID_1559_" class="st30" d="M471.1 365.5l47.5-27.5 27.1 15.6-47.6 27.5z"/><path id="XMLID_1558_" class="st42" d="M498.1 381.1l5.3-24.4 42.3-3.1z"/><path id="XMLID_1557_" class="st43" d="M518.6 338l-5.3 24.4-42.2 3.1z"/></g><g id="XMLID_1231_"><g id="XMLID_1232_"><path id="XMLID_1662_" class="st35" d="M543.9 310.8l7.3 8.3 3.6-6.2z"/><path id="XMLID_1661_" class="st23" d="M543.9 310.8l2 2.3 1-1.7z"/></g><path id="XMLID_1660_" class="st23" d="M554.8 312.9c-.5-.3-1.1-.2-1.8.2a5.6 5.6 0 00-2.5 4.4c0 .8.3 1.4.7 1.6l53 30.8c-.5-.3-.7-.8-.7-1.6 0-1.6 1.1-3.6 2.5-4.4.7-.4 1.3-.4 1.8-.2l-53-30.8z"/><g id="XMLID_1233_"><path id="XMLID_1234_" class="st22" d="M606 343.9c1.4-.8 2.5-.2 2.5 1.5 0 1.6-1.1 3.6-2.5 4.4s-2.5.2-2.5-1.4a5.4 5.4 0 012.5-4.5z"/></g></g></g><g id="XMLID_1251_"><path id="XMLID_1555_" class="st35" d="M734.1 401.8l82.2 47.4-103.7 60-82.2-47.5z"/><g id="XMLID_1252_"><path id="XMLID_893_" class="st44" d="M711.9 462.1z"/><path id="XMLID_892_" class="st31" d="M711.9 462.1z"/><path id="XMLID_889_" class="st31" d="M711.9 462.1L700.5 444a41 41 0 00-12.2 4.4l23.6 13.7z"/><path id="XMLID_885_" class="st22" d="M711.9 462.1l23.6-13.6a52.2 52.2 0 00-34.9-4.4l11.3 18z"/><path id="XMLID_884_" class="st31" d="M688.3 475.7l23.6-13.6-33.1-2.4c-1.3 5.9 2.2 11.8 9.5 16z"/><path id="XMLID_882_" class="st23" d="M723.2 480.2a41 41 0 0012.2-4.4c12.9-7.5 12.9-19.8 0-27.2l-23.6 13.6 11.4 18z"/><path id="XMLID_881_" class="st30" d="M723.2 480.2l-11.3-18.1-23.6 13.6a52.9 52.9 0 0034.9 4.5z"/></g><path id="XMLID_1253_" class="st39" d="M778.9 460.1l-.5-.1-61.9-35.7c-.4-.3-.6-.8-.3-1.3.3-.4.8-.6 1.3-.3l61.9 35.7c.4.3.6.8.3 1.3-.1.2-.5.4-.8.4z"/><path id="XMLID_1254_" class="st39" d="M786.2 455.9l-.5-.1-61.8-35.8c-.4-.3-.6-.8-.3-1.3.3-.4.8-.6 1.3-.3l61.9 35.7c.4.3.6.8.3 1.3-.3.3-.6.5-.9.5z"/><path id="XMLID_1255_" class="st39" d="M793.5 451.7l-.5-.1-61.9-35.7c-.4-.3-.6-.8-.3-1.3s.8-.6 1.3-.3L794 450c.4.3.6.8.3 1.3-.2.2-.5.4-.8.4z"/></g><g class="st16" id="XMLID_1256_"><g id="XMLID_1258_"><path id="XMLID_1259_" class="st42" d="M799.7 513.1v11.5c0 1.5-1 3.1-3 4.2v-11.5c2-1.2 3-2.7 3-4.2z"/></g><g id="XMLID_1260_"><path id="XMLID_1261_" class="st43" d="M683.6 524.5V513c0 1.5 1 3.1 3.1 4.3v11.5c-2.1-1.2-3.1-2.7-3.1-4.3z"/></g><g id="XMLID_1262_"><path id="XMLID_1263_" class="st42" d="M796.7 517.3v11.5l-47.5 27.6v-11.5z"/></g><g id="XMLID_1264_"><path id="XMLID_1265_" class="st43" d="M734.5 544.9v11.5l-47.8-27.6v-11.5z"/></g><g id="XMLID_1266_"><path id="XMLID_1709_" class="st43" d="M749.2 544.9v11.5c-2 1.2-4.7 1.8-7.3 1.8s-5.3-.6-7.3-1.8v-11.5c2 1.2 4.7 1.8 7.3 1.8s5.3-.6 7.3-1.8z"/></g><g id="XMLID_1268_"><path id="XMLID_1269_" class="st30" d="M796.7 508.8c4.1 2.3 4.1 6.1 0 8.5l-47.5 27.6a16 16 0 01-14.7 0l-47.8-27.6c-4.1-2.4-4.1-6.2 0-8.5l47.5-27.6a16 16 0 0114.7 0l47.8 27.6z"/></g></g><g class="st16" id="XMLID_1257_"><g id="XMLID_1271_"><path id="XMLID_1272_" class="st45" d="M895.4 480.3v11.5c0 1.5-1 3.1-3 4.2v-11.5c1.9-1.1 3-2.6 3-4.2z"/></g><g id="XMLID_1273_"><path id="XMLID_1274_" class="st46" d="M779.3 491.8v-11.5c0 1.5 1 3.1 3.1 4.3v11.5c-2.1-1.2-3.2-2.7-3.1-4.3z"/></g><g id="XMLID_1275_"><path id="XMLID_1276_" class="st45" d="M892.3 484.6v11.5l-47.5 27.6v-11.5z"/></g><g id="XMLID_1277_"><path id="XMLID_1278_" class="st46" d="M830.2 512.2l-.1 11.5-47.8-27.6.1-11.5z"/></g><g id="XMLID_1279_"><path id="XMLID_1708_" class="st45" d="M844.8 512.2v11.5c-2 1.2-4.7 1.8-7.3 1.8a15 15 0 01-7.4-1.8v-11.5c2 1.2 4.7 1.8 7.3 1.8 2.8-.1 5.4-.7 7.4-1.8z"/></g><g id="XMLID_1281_"><path id="XMLID_1282_" class="st31" d="M892.3 476.1c4.1 2.3 4.1 6.1 0 8.5l-47.5 27.6a16 16 0 01-14.7 0l-47.8-27.6c-4.1-2.4-4.1-6.2 0-8.5l47.5-27.6a16 16 0 0114.7 0l47.8 27.6z"/></g></g><g class="st16" style="animation:translate 3000ms ease 0ms infinite"><g id="XMLID_702_"><path id="XMLID_703_" class="st42" d="M622.4 573.5l-.1 37.6c0 5.3-3.5 10.6-10.5 14.6l.1-37.6c7-3.9 10.5-9.2 10.5-14.6z"/></g><g id="XMLID_704_"><path id="XMLID_705_" class="st43" d="M362.6 610.9l.1-37.6c0 5.4 3.5 10.7 10.6 14.8l-.1 37.6c-7.1-4-10.6-9.4-10.6-14.8z"/></g><g id="XMLID_706_"><path id="XMLID_707_" class="st43" d="M493.5 736.6l-.1 37.6L305 665.4l.1-37.6z"/></g><g id="XMLID_708_"><path id="XMLID_709_" class="st42" d="M680.6 627.8l-.1 37.6-187.1 108.8.1-37.6z"/></g><g id="XMLID_710_"><path id="XMLID_711_" class="st30" d="M611.8 558.7c14.1 8.1 14.2 21.3.1 29.5l68.7 39.6-187.1 108.8-188.4-108.8 68.2-39.6c-14.1-8.1-14.2-21.3-.2-29.5a56 56 0 0150.9 0l68.2-39.6 68.7 39.6c14-8.1 36.8-8.1 50.9 0z"/></g><g id="XMLID_587_"><g id="XMLID_625_"><g class="st16" id="XMLID_713_"><g id="XMLID_715_"><path id="XMLID_716_" class="st24" d="M493.9 619.8v3.9c0 3.1-2 6.2-6.1 8.5a32.8 32.8 0 01-29.6 0c-4.1-2.4-6.2-5.5-6.2-8.6v-3.9c0 3.1 2.1 6.3 6.2 8.6a32.8 32.8 0 0029.6 0c4.1-2.3 6.1-5.4 6.1-8.5z"/></g><g id="XMLID_717_"><path id="XMLID_718_" class="st28" d="M487.7 611.2c8.2 4.7 8.3 12.4.1 17.2-8.2 4.7-21.4 4.7-29.6 0s-8.2-12.4-.1-17.2 21.4-4.8 29.6 0z"/></g></g><path id="XMLID_1856_" class="st28" d="M522.4 492.8c-1.2-.7-2.9-.6-4.8.5L413 553.6a14.9 14.9 0 00-6.8 11.8l.2 78.1c0 2.1.8 3.6 2 4.4l6.8 3.9c-1.2-.7-2-2.2-2-4.4l-.2-78.1c0-4.3 3-9.6 6.8-11.8l104.5-60.3c1.9-1.1 3.6-1.2 4.8-.5l-6.7-3.9z"/><path id="XMLID_714_" class="st24" d="M524.3 497.2c3.7-2.2 6.8-.4 6.8 3.9l.2 78.1c0 4.3-3 9.6-6.8 11.7L420 651.3c-3.8 2.2-6.8.4-6.8-3.9l-.2-78.1c0-4.3 3-9.6 6.8-11.8l104.5-60.3z"/><path id="XMLID_719_" class="st44" d="M417.8 569.2"/><path id="XMLID_720_" class="st26" d="M526.3 516.5v-15l-2.9 1.7-6.3 3.6-84.2 48.6-15.1 8.8v42.2l.1 30.9 66.6-38.4 10.4-6 31.6-18.3z"/><path id="XMLID_721_" class="st23" d="M432.9 555.4l-15 8.7v4.8l108.4-62.6v-4.8z"/><path id="XMLID_1855_" class="st23" d="M430.5 574.8c0 2.2-1.5 4.8-3.4 5.9-1.9 1.1-3.4.2-3.4-2s1.5-4.8 3.4-5.9c1.9-1 3.4-.1 3.4 2z"/><path id="XMLID_1854_" class="st31" d="M430.5 586.9c0 2.2-1.5 4.8-3.4 5.9-1.9 1.1-3.4.2-3.4-2s1.5-4.8 3.4-5.9 3.4-.2 3.4 2z"/><path id="XMLID_1853_" class="st30" d="M430.5 598.8c0 2.2-1.5 4.8-3.4 5.9-1.9 1.1-3.4.2-3.4-2s1.5-4.8 3.4-5.9c1.9-1.1 3.4-.2 3.4 2z"/><path id="XMLID_1852_" class="st31" d="M430.1 638.5c0 1.6-1.1 3.5-2.5 4.3s-2.5.1-2.5-1.4c0-1.6 1.1-3.5 2.5-4.3s2.5-.1 2.5 1.4z"/></g><g id="XMLID_722_"><g id="XMLID_727_"><path id="XMLID_1851_" class="st15" d="M569 641.6l-33.4-19.4 44.5-25.7 33.5 19.3z"/></g><path id="XMLID_1850_" class="st25" d="M569 643v-1.4l44.6-25.8v1.5z"/><path id="XMLID_1849_" class="st25" d="M569 641.6v1.4l-33.4-19.3v-1.5z"/></g><g id="XMLID_728_"><path id="XMLID_1848_" class="st47" d="M449.7 665v2.9l32.6 19V684z"/><path id="XMLID_1847_" class="st24" d="M482.3 684v2.9l72.4-41.8v-2.9z"/><path id="XMLID_1846_" class="st28" d="M449.7 665l32.6 19 72.4-41.8-32.7-19z"/><g id="XMLID_729_"><g class="st16"><g id="XMLID_731_"><path id="XMLID_1845_" class="st47" d="M517.6 628v1.5l4.5 2.6v-1.5z"/></g><g id="XMLID_732_"><path id="XMLID_1844_" class="st24" d="M522.1 630.6v1.5l4.5-2.6-.1-1.4z"/></g><g id="XMLID_733_"><path id="XMLID_1843_" class="st28" d="M517.6 628l4.5 2.6 4.4-2.5-4.5-2.7z"/></g></g><g class="st16"><g id="XMLID_734_"><path id="XMLID_1842_" class="st47" d="M511.8 631.3v1.5l4.6 2.6v-1.5z"/></g><g id="XMLID_735_"><path id="XMLID_1841_" class="st24" d="M516.4 633.9v1.5l4.4-2.6v-1.4z"/></g><g id="XMLID_736_"><path id="XMLID_1726_" class="st28" d="M511.8 631.3l4.6 2.6 4.4-2.5-4.5-2.7z"/></g></g><g class="st16"><g id="XMLID_737_"><path id="XMLID_1840_" class="st47" d="M506.1 634.6v1.5l4.6 2.6v-1.5z"/></g><g id="XMLID_738_"><path id="XMLID_1839_" class="st24" d="M510.7 637.2v1.5l4.4-2.6v-1.4z"/></g><g id="XMLID_739_"><path id="XMLID_1727_" class="st28" d="M506.1 634.6l4.6 2.6 4.4-2.5-4.5-2.7z"/></g></g><g class="st16"><g id="XMLID_740_"><path id="XMLID_1838_" class="st47" d="M500.4 637.9v1.4l4.5 2.7v-1.5z"/></g><g id="XMLID_741_"><path id="XMLID_1837_" class="st24" d="M504.9 640.5v1.5l4.5-2.6V638z"/></g><g id="XMLID_742_"><path id="XMLID_1729_" class="st28" d="M500.4 637.9l4.5 2.6 4.5-2.5-4.5-2.7z"/></g></g><g class="st16"><g id="XMLID_743_"><path id="XMLID_1836_" class="st47" d="M494.7 641.2v1.5l4.5 2.6v-1.5z"/></g><g id="XMLID_744_"><path id="XMLID_1835_" class="st24" d="M499.2 643.8v1.5l4.5-2.6v-1.4z"/></g><g id="XMLID_745_"><path id="XMLID_1728_" class="st28" d="M494.7 641.2l4.5 2.6 4.5-2.5-4.5-2.7z"/></g></g><g class="st16"><g id="XMLID_746_"><path id="XMLID_1834_" class="st47" d="M489 644.5v1.5l4.5 2.6v-1.5z"/></g><g id="XMLID_747_"><path id="XMLID_1833_" class="st24" d="M493.5 647.1v1.5l4.5-2.6v-1.4z"/></g><g id="XMLID_748_"><path id="XMLID_1730_" class="st28" d="M489 644.5l4.5 2.6 4.5-2.5-4.6-2.7z"/></g></g><g class="st16"><g id="XMLID_749_"><path id="XMLID_1832_" class="st47" d="M483.3 647.8v1.4l4.5 2.7v-1.5z"/></g><g id="XMLID_750_"><path id="XMLID_1831_" class="st24" d="M487.8 650.4v1.5l4.5-2.6v-1.4z"/></g><g id="XMLID_751_"><path id="XMLID_1733_" class="st28" d="M483.3 647.8l4.5 2.6 4.5-2.5-4.6-2.7z"/></g></g><g class="st16"><g id="XMLID_752_"><path id="XMLID_1830_" class="st47" d="M477.6 651.1v1.5l4.5 2.6v-1.5z"/></g><g id="XMLID_753_"><path id="XMLID_1829_" class="st24" d="M482.1 653.7v1.5l4.5-2.6-.1-1.4z"/></g><g id="XMLID_754_"><path id="XMLID_1731_" class="st28" d="M477.6 651.1l4.5 2.6 4.4-2.5-4.5-2.7z"/></g></g><g class="st16"><g id="XMLID_755_"><path id="XMLID_1828_" class="st47" d="M471.8 654.4v1.4l4.6 2.7V657z"/></g><g id="XMLID_756_"><path id="XMLID_1827_" class="st24" d="M476.4 657v1.5l4.4-2.6v-1.4z"/></g><g id="XMLID_757_"><path id="XMLID_1732_" class="st28" d="M471.8 654.4l4.6 2.6 4.4-2.5-4.5-2.7z"/></g></g><g class="st16"><g id="XMLID_758_"><path id="XMLID_1826_" class="st47" d="M466.1 657.7v1.4l4.6 2.7v-1.5z"/></g><g id="XMLID_759_"><path id="XMLID_1825_" class="st24" d="M470.7 660.3v1.5l4.4-2.6v-1.4z"/></g><g id="XMLID_760_"><path id="XMLID_1716_" class="st28" d="M466.1 657.7l4.6 2.6 4.4-2.5-4.5-2.7z"/></g></g><g class="st16"><g id="XMLID_761_"><path id="XMLID_1824_" class="st47" d="M454.7 664.3v1.4l4.5 2.7v-1.5z"/></g><g id="XMLID_762_"><path id="XMLID_1823_" class="st24" d="M459.2 666.9v1.5l10.2-5.9v-1.4z"/></g><g id="XMLID_763_"><path id="XMLID_1715_" class="st28" d="M454.7 664.3l4.5 2.6 10.2-5.8-4.5-2.7z"/></g></g><g class="st16"><g id="XMLID_764_"><path id="XMLID_1822_" class="st47" d="M517.6 634.7v1.4l4.5 2.6v-1.4z"/></g><g id="XMLID_765_"><path id="XMLID_1821_" class="st24" d="M522.1 637.3v1.4l10.2-5.8v-1.5z"/></g><g id="XMLID_766_"><path id="XMLID_1267_" class="st28" d="M517.6 634.7l4.5 2.6 10.2-5.9-4.5-2.6z"/></g></g><g class="st16"><g id="XMLID_767_"><path id="XMLID_1820_" class="st47" d="M511.9 638v1.4l4.5 2.6v-1.4z"/></g><g id="XMLID_768_"><path id="XMLID_1819_" class="st24" d="M516.4 640.6v1.4l4.5-2.5V638z"/></g><g id="XMLID_769_"><path id="XMLID_1725_" class="st28" d="M511.9 638l4.5 2.6 4.5-2.6-4.5-2.6z"/></g></g><g class="st16"><g id="XMLID_770_"><path id="XMLID_1818_" class="st47" d="M506.2 641.3v1.4l4.5 2.6v-1.4z"/></g><g id="XMLID_771_"><path id="XMLID_1817_" class="st24" d="M510.7 643.9v1.4l4.5-2.5v-1.5z"/></g><g id="XMLID_772_"><path id="XMLID_1724_" class="st28" d="M506.2 641.3l4.5 2.6 4.5-2.6-4.6-2.6z"/></g></g><g class="st16"><g id="XMLID_773_"><path id="XMLID_1816_" class="st47" d="M500.5 644.6v1.4l4.5 2.6v-1.4z"/></g><g id="XMLID_774_"><path id="XMLID_1815_" class="st24" d="M505 647.2v1.4l4.4-2.5v-1.5z"/></g><g id="XMLID_775_"><path id="XMLID_1723_" class="st28" d="M500.5 644.6l4.5 2.6 4.4-2.6-4.5-2.6z"/></g></g><g class="st16"><g id="XMLID_776_"><path id="XMLID_1814_" class="st47" d="M494.7 647.9l.1 1.4 4.5 2.6v-1.4z"/></g><g id="XMLID_777_"><path id="XMLID_1813_" class="st24" d="M499.3 650.5v1.4l4.4-2.5v-1.5z"/></g><g id="XMLID_778_"><path id="XMLID_1722_" class="st28" d="M494.7 647.9l4.6 2.6 4.4-2.6-4.5-2.6z"/></g></g><g class="st16"><g id="XMLID_779_"><path id="XMLID_1812_" class="st47" d="M489 651.2v1.4l4.6 2.6v-1.4z"/></g><g id="XMLID_780_"><path id="XMLID_1811_" class="st24" d="M493.6 653.8v1.4l4.4-2.6v-1.4z"/></g><g id="XMLID_781_"><path id="XMLID_1721_" class="st28" d="M489 651.2l4.6 2.6 4.4-2.6-4.5-2.6z"/></g></g><g class="st16"><g id="XMLID_782_"><path id="XMLID_1810_" class="st47" d="M483.3 654.5v1.4l4.5 2.6v-1.4z"/></g><g id="XMLID_783_"><path id="XMLID_1809_" class="st24" d="M487.8 657.1v1.4l4.5-2.6v-1.4z"/></g><g id="XMLID_784_"><path id="XMLID_1720_" class="st28" d="M483.3 654.5l4.5 2.6 4.5-2.6-4.5-2.6z"/></g></g><g class="st16"><g id="XMLID_785_"><path id="XMLID_1808_" class="st47" d="M477.6 657.8v1.4l4.5 2.6v-1.4z"/></g><g id="XMLID_786_"><path id="XMLID_1807_" class="st24" d="M482.1 660.4v1.4l4.5-2.5v-1.5z"/></g><g id="XMLID_787_"><path id="XMLID_1719_" class="st28" d="M477.6 657.8l4.5 2.6 4.5-2.6-4.5-2.6z"/></g></g><g class="st16"><g id="XMLID_788_"><path id="XMLID_1806_" class="st47" d="M471.9 661.1v1.4l4.5 2.6v-1.4z"/></g><g id="XMLID_789_"><path id="XMLID_1805_" class="st24" d="M476.4 663.7v1.4l4.5-2.6v-1.4z"/></g><g id="XMLID_790_"><path id="XMLID_1718_" class="st28" d="M471.9 661.1l4.5 2.6 4.5-2.6-4.5-2.6z"/></g></g><g class="st16"><g id="XMLID_791_"><path id="XMLID_1804_" class="st47" d="M466.2 664.4v1.4l4.5 2.6V667z"/></g><g id="XMLID_792_"><path id="XMLID_1803_" class="st24" d="M470.7 667v1.4l4.5-2.6v-1.4z"/></g><g id="XMLID_793_"><path id="XMLID_1717_" class="st28" d="M466.2 664.4l4.5 2.6 4.5-2.6-4.6-2.6z"/></g></g><g class="st16"><g id="XMLID_794_"><path id="XMLID_1802_" class="st47" d="M460.5 667.7v1.4l4.5 2.6v-1.4z"/></g><g id="XMLID_795_"><path id="XMLID_1801_" class="st24" d="M465 670.3v1.4l4.4-2.6v-1.4z"/></g><g id="XMLID_796_"><path id="XMLID_1714_" class="st28" d="M460.5 667.7l4.5 2.6 4.4-2.6-4.5-2.6z"/></g></g><g class="st16"><g id="XMLID_797_"><path id="XMLID_1800_" class="st47" d="M523.4 638v1.5l4.5 2.6v-1.5z"/></g><g id="XMLID_798_"><path id="XMLID_1799_" class="st24" d="M527.9 640.6v1.5l10.2-5.9v-1.4z"/></g><g id="XMLID_799_"><path id="XMLID_1280_" class="st28" d="M523.4 638l4.5 2.6 10.2-5.8-4.5-2.7z"/></g></g><g class="st16"><g id="XMLID_800_"><path id="XMLID_1798_" class="st47" d="M517.7 641.3v1.5l4.5 2.6v-1.5z"/></g><g id="XMLID_801_"><path id="XMLID_1797_" class="st24" d="M522.2 643.9v1.5l4.4-2.6v-1.4z"/></g><g id="XMLID_802_"><path id="XMLID_1741_" class="st28" d="M517.7 641.3l4.5 2.6 4.4-2.5-4.5-2.7z"/></g></g><g class="st16"><g id="XMLID_803_"><path id="XMLID_1796_" class="st47" d="M511.9 644.6l.1 1.4 4.5 2.7v-1.5z"/></g><g id="XMLID_804_"><path id="XMLID_1795_" class="st24" d="M516.5 647.2v1.5l4.4-2.6v-1.4z"/></g><g id="XMLID_805_"><path id="XMLID_1740_" class="st28" d="M511.9 644.6l4.6 2.6 4.4-2.5-4.5-2.7z"/></g></g><g class="st16"><g id="XMLID_806_"><path id="XMLID_1794_" class="st47" d="M506.2 647.9v1.5l4.6 2.6-.1-1.5z"/></g><g id="XMLID_807_"><path id="XMLID_1793_" class="st24" d="M510.7 650.5l.1 1.5 4.4-2.6V648z"/></g><g id="XMLID_808_"><path id="XMLID_1739_" class="st28" d="M506.2 647.9l4.5 2.6 4.5-2.5-4.5-2.7z"/></g></g><g class="st16"><g id="XMLID_809_"><path id="XMLID_1792_" class="st47" d="M500.5 651.2v1.4l4.5 2.7v-1.5z"/></g><g id="XMLID_810_"><path id="XMLID_1791_" class="st24" d="M505 653.8v1.5l4.5-2.6v-1.4z"/></g><g id="XMLID_811_"><path id="XMLID_1738_" class="st28" d="M500.5 651.2l4.5 2.6 4.5-2.5-4.5-2.7z"/></g></g><g class="st16"><g id="XMLID_812_"><path id="XMLID_1790_" class="st47" d="M494.8 654.5v1.4l4.5 2.7v-1.5z"/></g><g id="XMLID_813_"><path id="XMLID_1789_" class="st24" d="M499.3 657.1v1.5l4.5-2.6v-1.4z"/></g><g id="XMLID_814_"><path id="XMLID_1737_" class="st28" d="M494.8 654.5l4.5 2.6 4.5-2.5-4.5-2.7z"/></g></g><g class="st16"><g id="XMLID_815_"><path id="XMLID_1788_" class="st47" d="M489.1 657.8v1.5l4.5 2.6v-1.5z"/></g><g id="XMLID_816_"><path id="XMLID_1787_" class="st24" d="M493.6 660.4v1.5l4.5-2.6v-1.4z"/></g><g id="XMLID_817_"><path id="XMLID_1736_" class="st28" d="M489.1 657.8l4.5 2.6 4.5-2.5-4.5-2.7z"/></g></g><g class="st16"><g id="XMLID_818_"><path id="XMLID_1786_" class="st47" d="M483.4 661.1v1.4l4.5 2.7v-1.5z"/></g><g id="XMLID_819_"><path id="XMLID_1785_" class="st24" d="M487.9 663.7v1.5l4.5-2.6v-1.4z"/></g><g id="XMLID_820_"><path id="XMLID_1735_" class="st28" d="M483.4 661.1l4.5 2.6 4.5-2.5-4.6-2.7z"/></g></g><g class="st16"><g id="XMLID_821_"><path id="XMLID_1784_" class="st47" d="M477.7 664.4v1.4l4.5 2.7V667z"/></g><g id="XMLID_822_"><path id="XMLID_1783_" class="st24" d="M482.2 667v1.5l4.4-2.6v-1.4z"/></g><g id="XMLID_823_"><path id="XMLID_1734_" class="st28" d="M477.7 664.4l4.5 2.6 4.4-2.5-4.5-2.7z"/></g></g><g class="st16"><g id="XMLID_824_"><path id="XMLID_1782_" class="st47" d="M466.2 671v1.4l4.5 2.7v-1.5z"/></g><g id="XMLID_825_"><path id="XMLID_1781_" class="st24" d="M470.7 673.6v1.5l10.2-5.9v-1.4z"/></g><g id="XMLID_826_"><path id="XMLID_1713_" class="st28" d="M466.2 671l4.5 2.6 10.2-5.8-4.5-2.7z"/></g></g><g class="st16"><g id="XMLID_827_"><path id="XMLID_1780_" class="st47" d="M523.4 644.7v1.4l4.6 2.6v-1.4z"/></g><g id="XMLID_828_"><path id="XMLID_1779_" class="st24" d="M528 647.3v1.4l15.9-9.1v-1.5z"/></g><g id="XMLID_829_"><path id="XMLID_1699_" class="st28" d="M523.4 644.7l4.6 2.6 15.9-9.2-4.6-2.6z"/></g></g><g class="st16"><g id="XMLID_830_"><path id="XMLID_1778_" class="st47" d="M517.7 648v1.4l4.5 2.6v-1.4z"/></g><g id="XMLID_831_"><path id="XMLID_1777_" class="st24" d="M522.2 650.6v1.4l4.5-2.5V648z"/></g><g id="XMLID_832_"><path id="XMLID_1743_" class="st28" d="M517.7 648l4.5 2.6 4.5-2.6-4.5-2.6z"/></g></g><g class="st16"><g id="XMLID_833_"><path id="XMLID_1776_" class="st47" d="M512 651.3v1.4l4.5 2.6v-1.4z"/></g><g id="XMLID_834_"><path id="XMLID_1775_" class="st24" d="M516.5 653.9v1.4l4.5-2.5v-1.5z"/></g><g id="XMLID_835_"><path id="XMLID_1742_" class="st28" d="M512 651.3l4.5 2.6 4.5-2.6-4.5-2.6z"/></g></g><g class="st16"><g id="XMLID_836_"><path id="XMLID_1774_" class="st47" d="M506.3 654.6v1.4l4.5 2.6v-1.4z"/></g><g id="XMLID_837_"><path id="XMLID_1773_" class="st24" d="M510.8 657.2v1.4l4.5-2.5v-1.5z"/></g><g id="XMLID_838_"><path id="XMLID_1744_" class="st28" d="M506.3 654.6l4.5 2.6 4.5-2.6-4.6-2.6z"/></g></g><g class="st16"><g id="XMLID_839_"><path id="XMLID_1772_" class="st47" d="M500.6 657.9v1.4l4.5 2.6v-1.4z"/></g><g id="XMLID_840_"><path id="XMLID_1771_" class="st24" d="M505.1 660.5v1.4l4.5-2.5v-1.5z"/></g><g id="XMLID_841_"><path id="XMLID_1745_" class="st28" d="M500.6 657.9l4.5 2.6 4.5-2.6-4.6-2.6z"/></g></g><g class="st16"><g id="XMLID_842_"><path id="XMLID_1770_" class="st47" d="M494.9 661.2v1.4l4.5 2.6v-1.4z"/></g><g id="XMLID_843_"><path id="XMLID_1769_" class="st24" d="M499.4 663.8v1.4l4.5-2.5-.1-1.5z"/></g><g id="XMLID_844_"><path id="XMLID_1746_" class="st28" d="M494.9 661.2l4.5 2.6 4.4-2.6-4.5-2.6z"/></g></g><g class="st16"><g id="XMLID_845_"><path id="XMLID_1768_" class="st47" d="M489.1 664.5v1.4l4.6 2.6v-1.4z"/></g><g id="XMLID_846_"><path id="XMLID_1767_" class="st24" d="M493.7 667.1v1.4l4.4-2.5v-1.5z"/></g><g id="XMLID_847_"><path id="XMLID_1747_" class="st28" d="M489.1 664.5l4.6 2.6 4.4-2.6-4.5-2.6z"/></g></g><g class="st16"><g id="XMLID_848_"><path id="XMLID_1766_" class="st47" d="M483.4 667.8v1.4l4.6 2.6v-1.4z"/></g><g id="XMLID_849_"><path id="XMLID_1765_" class="st24" d="M488 670.4v1.4l4.4-2.5v-1.5z"/></g><g id="XMLID_850_"><path id="XMLID_1712_" class="st28" d="M483.4 667.8l4.6 2.6 4.4-2.6-4.5-2.6z"/></g></g><g class="st16"><g id="XMLID_851_"><path id="XMLID_1764_" class="st47" d="M472 674.4v1.4l4.5 2.6V677z"/></g><g id="XMLID_852_"><path id="XMLID_1763_" class="st24" d="M476.5 677v1.4l10.2-5.8v-1.5z"/></g><g id="XMLID_853_"><path id="XMLID_1711_" class="st28" d="M472 674.4l4.5 2.6 10.2-5.9-4.5-2.6z"/></g></g><g class="st16"><g id="XMLID_854_"><path id="XMLID_1762_" class="st47" d="M540.6 641.4v1.5l4.6 2.6V644z"/></g><g id="XMLID_855_"><path id="XMLID_1761_" class="st24" d="M545.2 644v1.5l4.4-2.6v-1.4z"/></g><g id="XMLID_856_"><path id="XMLID_1700_" class="st28" d="M540.6 641.4l4.6 2.6 4.4-2.5-4.5-2.7z"/></g></g><g class="st16"><g id="XMLID_857_"><path id="XMLID_1760_" class="st47" d="M534.9 644.7v1.5l4.5 2.6v-1.5z"/></g><g id="XMLID_858_"><path id="XMLID_1759_" class="st24" d="M539.4 647.3v1.5l4.5-2.6v-1.4z"/></g><g id="XMLID_859_"><path id="XMLID_1701_" class="st28" d="M534.9 644.7l4.5 2.6 4.5-2.5-4.5-2.7z"/></g></g><g class="st16"><g id="XMLID_860_"><path id="XMLID_1758_" class="st47" d="M529.2 648v1.5l4.5 2.6v-1.5z"/></g><g id="XMLID_861_"><path id="XMLID_1757_" class="st24" d="M533.7 650.6v1.5l4.5-2.6v-1.4z"/></g><g id="XMLID_862_"><path id="XMLID_1702_" class="st28" d="M529.2 648l4.5 2.6 4.5-2.5-4.5-2.7z"/></g></g><g class="st16"><g id="XMLID_863_"><path id="XMLID_1756_" class="st47" d="M500.6 664.5v1.5l4.5 2.6v-1.5z"/></g><g id="XMLID_864_"><path id="XMLID_1755_" class="st24" d="M505.1 667.1v1.5l27.4-15.8v-1.4z"/></g><g id="XMLID_865_"><path id="XMLID_1703_" class="st28" d="M500.6 664.5l4.5 2.6 27.4-15.7-4.6-2.7z"/></g></g><g class="st16"><g id="XMLID_866_"><path id="XMLID_1754_" class="st47" d="M494.9 667.8v1.5l4.5 2.6v-1.5z"/></g><g id="XMLID_867_"><path id="XMLID_1753_" class="st24" d="M499.4 670.4v1.5l4.5-2.6v-1.4z"/></g><g id="XMLID_868_"><path id="XMLID_1704_" class="st28" d="M494.9 667.8l4.5 2.6 4.5-2.5-4.5-2.7z"/></g></g><g class="st16"><g id="XMLID_869_"><path id="XMLID_1752_" class="st47" d="M489.2 671.1v1.5l4.5 2.6v-1.5z"/></g><g id="XMLID_870_"><path id="XMLID_1751_" class="st24" d="M493.7 673.7v1.5l4.5-2.6v-1.4z"/></g><g id="XMLID_871_"><path id="XMLID_1707_" class="st28" d="M489.2 671.1l4.5 2.6 4.5-2.5-4.5-2.7z"/></g></g><g class="st16"><g id="XMLID_872_"><path id="XMLID_1750_" class="st47" d="M477.8 677.7v1.5l4.5 2.6v-1.5z"/></g><g id="XMLID_873_"><path id="XMLID_1749_" class="st24" d="M482.3 680.3v1.5l10.2-5.9v-1.4z"/></g><g id="XMLID_874_"><path id="XMLID_1710_" class="st28" d="M477.8 677.7l4.5 2.6 10.2-5.8-4.6-2.7z"/></g></g></g></g><g id="XMLID_903_"><g id="XMLID_904_"><path id="XMLID_1748_" class="st23" d="M495.2 548.7l.1 22.7L515 560v-22.7z"/></g><g class="st16"><g id="XMLID_906_"><path id="XMLID_1697_" class="st28" d="M476.4 568.1v.9l14.3-8.2v-.9z"/></g><g id="XMLID_907_"><path id="XMLID_1696_" class="st28" d="M476.3 565.3v.9l14.4-8.3v-.9z"/></g><g id="XMLID_908_"><path id="XMLID_1695_" class="st28" d="M476.3 562.5v.9l14.4-8.3v-.9z"/></g><g id="XMLID_909_"><path id="XMLID_1694_" class="st28" d="M476.3 559.6v.9l14.4-8.2v-.9z"/></g></g><g id="XMLID_905_"><path id="XMLID_1693_" class="st28" d="M476.4 573.8v.9l14.3-8.2v-.9z"/></g><g id="XMLID_910_"><path id="XMLID_1692_" class="st28" d="M476.4 571v.9l14.3-8.3v-.9z"/></g><g id="XMLID_911_"><path id="XMLID_1691_" class="st28" d="M480 574.6v.9l10.7-6.2v-.9z"/></g><g class="st16"><g id="XMLID_913_"><path id="XMLID_1690_" class="st30" d="M512.2 529.7c-.4.2-.7.7-.7 1.2 0 .4.3.6.7.4.4-.2.7-.7.7-1.2 0-.4-.3-.6-.7-.4z"/></g><g id="XMLID_914_"><path id="XMLID_915_" class="st28" d="M518.4 524.9c.7-.4 1.3-.1 1.3.7v6.2c0-.8-.5-1.1-1.2-.7L473 557.4c-.7.4-1.2 1.3-1.2 2.1v-6.2c0-.8.6-1.8 1.3-2.3l45.3-26.1zm-3.4 4.8c.4-.2.7-.8.7-1.2s-.3-.6-.7-.4c-.4.2-.7.7-.7 1.2 0 .4.3.6.7.4m-2.8 1.6c.4-.2.7-.7.7-1.2 0-.4-.3-.6-.7-.4-.4.2-.7.7-.7 1.2 0 .4.3.6.7.4m5.5-3.2c.4-.2.7-.7.7-1.2 0-.4-.3-.6-.7-.4-.4.2-.7.7-.7 1.2 0 .4.3.6.7.4"/></g><g id="XMLID_916_"><path id="XMLID_917_" class="st29" d="M518.5 531.1c.7-.4 1.2-.1 1.2.7l.1 29.7c0 .8-.5 1.7-1.2 2.1l-45.5 26.3c-.7.4-1.2.1-1.2-.7l-.1-29.7c0-.8.5-1.7 1.2-2.1l45.5-26.3zm-23.2 40.3L515 560l-.1-22.7-19.8 11.4.2 22.7m-18.9.5l14.3-8.3v-.9l-14.3 8.3v.9m-.1-8.5l14.3-8.3v-.9l-14.3 8.3v.9m0 2.8l14.3-8.3v-.9l-14.3 8.3v.9m0-5.7l14.3-8.3v-.9l-14.3 8.3v.9m.1 14.2l14.3-8.3v-.9l-14.3 8.3v.9m0-5.7l14.3-8.3v-.9l-14.3 8.3v.9m3.6 6.5l10.7-6.2v-.9l-10.7 6.2v.9"/></g></g><g id="XMLID_912_"><path id="XMLID_1676_" class="st31" d="M517.7 526.5c-.4.2-.7.7-.7 1.2 0 .4.3.6.7.4.4-.2.7-.7.7-1.2 0-.4-.3-.6-.7-.4z"/></g><g id="XMLID_918_"><path id="XMLID_1675_" class="st23" d="M514.9 528.1c-.4.2-.7.7-.7 1.2 0 .4.3.6.7.4.4-.2.7-.7.7-1.2 0-.4-.3-.6-.7-.4z"/></g></g><g id="XMLID_730_"><path id="XMLID_887_" class="st24" d="M591.3 622l-.2.5-9.2 5.3-1.6-1 10.9-6.1.1 1.3z"/><path id="XMLID_886_" class="st38" d="M591.2 620.7l-10.9 6.1-18.9-12 4.9-2.7c3.1-1.7 6.5-4 10-4.4 2.6-.3 5.4.7 7.8 2.1 2 1 6.4 3.8 7.1 10.9z"/><path id="XMLID_883_" class="st47" d="M581.2 627.8c.4.2 1-.1 1-.6-.4-7.9-5.4-10.6-7.6-11.8-2.2-1.2-8.8-3.9-13.6-.3-.4.3-.3.8.1 1.1l20.1 11.6z"/></g></g></g><path id="XMLID_1553_" class="st48" d="M426.3 749.7l6.2 2.4c4.3 1.8 13.7 2.4 19.5 1.5s13.8-2.2 12.3-4.4c-1.5-2.1-30.8-9.5-32.1-8.9-1.3.7-5.9 9.4-5.9 9.4z"/><g id="XMLID_880_"><path class="st35" d="M759.2 516.5c1.5-.2 2.9-.2 4.4 0 1.5.3 2.9.8 4.3 1.6l4.4 2.6-12.4 7.2-4.4-2.6c-1.4-.8-2.3-1.6-2.7-2.5-.5-.9-.5-1.7-.1-2.5s1.2-1.6 2.5-2.3a9.2 9.2 0 014-1.5zm2.6 1.8c-1.4 0-2.8.3-4.1 1.1-1.3.7-1.9 1.5-1.9 2.4 0 .8.7 1.6 2.1 2.4l1.7 1 8.1-4.6-1.7-1a7.6 7.6 0 00-4.2-1.3zM749.5 510.3l5 2.9 3.4-.9 2.6 1.5-16.9 4.5-2.8-1.6 7.7-9.7 2.6 1.5-1.6 1.8zm-1.3 1.5l-3.4 4.1 7.1-2-3.7-2.1zM726.2 508.4l2-1.1 3.4 2 10.5-6 2.5 1.4-10.5 6 3.4 2-2 1.1-9.3-5.4zM727.2 497.5l5 2.9 3.4-.9 2.6 1.5-16.9 4.5-2.8-1.6 7.7-9.7 2.6 1.5-1.6 1.8zM726 499l-3.4 4.1 7.1-2-3.7-2.1z"/></g><path id="XMLID_1706_" class="st46" d="M837.5 513.9v11.5a15 15 0 01-7.4-1.8v-11.5c2.1 1.2 4.8 1.8 7.4 1.8z"/><path id="XMLID_1705_" class="st42" d="M749.2 544.9v11.5c-2 1.2-4.7 1.8-7.3 1.8v-11.5c2.6 0 5.3-.6 7.3-1.8z"/><g id="XMLID_894_"><g id="XMLID_1516_"><path id="XMLID_1534_" class="st8" d="M854.1 461.1c-9.2 4.1-17.6 34.7-12.6 45.5 5 10.8 13 11.6 23.1 8.9s21.5-15.9 25.2-28.2c5.1-16.7-9.5-37.9-35.7-26.2z"/><g id="XMLID_1521_"><g id="XMLID_1523_"><path id="XMLID_1533_" class="st2" d="M843.4 830.4v2.4c-4.8 2.8-15.6 1.3-18.5 0-1.9-2.8-6.9-2.1-9.7-1-10.8 1-14.8-.6-18.4-3.3-1.8-1.3-5.1-4.8-4.7-8.5a2219 2219 0 0051.3 10.4z"/><path id="XMLID_1532_" class="st2" d="M824.9 811.7s-11.8 3.3-18.8 4.3-12-.2-13.6 2.3c-1.7 2.5 2 9 8.2 11.2s18.8-.3 23.5.7 16.5 3.2 19.3.2c2.8-2.9 0-17.1 0-17.1l-18.6-1.6z"/><path id="XMLID_1531_" class="st2" d="M890.4 796.1l-21.1-23.7c-8.4-2.4-17.3-2.9-16.2 4.9 1 6.9 12 9.9 19.6 16.6l7 6.2c4.9 4.5 11.3.6 10.7-4"/><path id="XMLID_1530_" class="st8" d="M870.4 499.5a46.8 46.8 0 01-23.5 11.6l.5 6.1c7.1 2 14.1-1.1 19-2.4 3.7-1 9.4-2 9.4-5.8l-5.4-9.5z"/><path id="XMLID_1528_" class="st2" d="M879.6 800.1l-7-6.2c-7.6-6.7-18.6-9.7-19.6-16.6v2.3c1 6.9 12 9.9 19.6 16.6l7 6.2c5.9 5.2 12.1 1.5 10.8-6.3.6 4.6-5.8 8.5-10.8 4"/><path id="XMLID_1526_" class="st49" d="M890.3 631.6c7.3 10.3-11 38.9-6 74.6 3.4 24.2 10 64.7 8.4 87.6-.3 4.2-16.6 7.2-21-13-7.5-34.3-16.9-55.7-20.2-82.3l1.8-77.2 37 10.3z"/><path id="XMLID_1525_" d="M866.9 627.8c2 32.1-21 71.3-19.4 97.2 1.6 26.7-1.3 59.2-1.4 88.1 0 0-23.6 11.2-24.7-6.1-3.5-56.6-14.3-74.3.3-177.9l45.2-1.3z" fill-rule="evenodd" clip-rule="evenodd" fill="#46467f"/><path id="XMLID_1524_" class="st14" d="M824.2 596.8c-.8-30.9 4.9-61.4 4.9-61.4a43 43 0 0110.1-10.3l7.6-9.1a265 265 0 0015.9-4.4 44.3 44.3 0 0126 0c11.1 4.7 13.3 12.2 8.3 26.6.1.6-9.8 40.2-11.1 52.3-.1 1.2 8.4 33.3 10.3 46.3 0 0-8.1 7.4-10.4 9.3-16.6 20.6-70.7-4.4-72.7-15.3-.8-4.1 5.9-16.8 11.1-34z"/></g></g><path id="XMLID_1518_" class="st2" d="M850.7 463s-2.7 2.5-4.4 7.8-1.2 8.9-1.4 11.7c-.2 2.7-1.3 4.3-.7 5.6.6 1.4 3.9-6.1 7.1-6.9 3.2-.8 2.7 8.9-4.3 11.6-3 4.6-.6 15.8 1.1 18.3 1.7 2.5 12.1 5.6 20.8 2.5 8.8-3.1 14.6-11.9 21.8-23.5 7.3-11.6 0-20 0-20 3.6-7.9-23.6-18.2-34.9-18.5-6.9.2-5.1 11.4-5.1 11.4z"/></g></g><g id="XMLID_663_"><path id="XMLID_901_" class="st15" d="M863.5 543.1c3.5-12.2-10-27.1-22-23.1-4.3 1.4-7.9 2.8-10.2 6.6-5.6 9.3-6.5 41.3-11.1 60.6l-2.1.4c7.4 9.9 10.8 14.9 17.3 24l1.4-.5c2.1-1.1 26.7-67.9 26.7-68z"/></g><g id="XMLID_1478_"><path id="XMLID_1600_" class="st2" d="M299.5 913.9l19.9-1.8s12.7 3.6 20.2 4.7 12.9-.2 14.7 2.5c.3.5.5 1.1.4 1.8v.1c.4 3.9-3.1 7.7-5.1 9.1-3.9 2.8-8.1 4.6-19.8 3.5-3-1.2-8.5-2-10.5 1-3 1.4-14.7 3-19.9 0v-2.6c-3-3.1.1-18.3.1-18.3z"/><path id="XMLID_1597_" class="st6" d="M290.7 731.1c-6.5 33.8 16.9 70.8 15 98.1-2.6 37.4-4 53.7-7.9 84.2 0 0 15.2 9 26.4-1.3 11.5-59.7 16.5-70.4 14.9-179.6l-48.4-1.4z"/><g id="XMLID_1554_"><path id="XMLID_1595_" class="st48" d="M383.1 575.6c6.7 7.8 1.1 40-8.3 47.8s-17.2 5-25.4-1.9-13-24.2-11-37.3c2.7-17.7 25.6-30.9 44.7-8.6z"/><path id="XMLID_1556_" class="st14" d="M385.5 578.9s1.4 3.5.6 9.2-2.8 8.8-3.9 11.5c-1.1 2.6-.7 4.5-1.8 5.6-1.1 1-.9-7.4-3.6-9.5-2.6-2.1-6.5 7-1.1 12.7.8 5.6-6.4 15-9.1 16.5-2.6 1.6-13.7-.1-20.5-6.9-6.8-6.7-8.3-17.5-9.9-31.5s8.8-18.6 8.8-18.6c.2-9 29.9-6.5 40.5-1.8 6.6 3.2 0 12.8 0 12.8z"/></g><path id="XMLID_1552_" class="st2" d="M337.5 931.9l19.9-1.8s12.7 3.6 20.2 4.7 12.9-.2 14.7 2.5c.3.5.5 1.1.4 1.8v.1c.4 3.9-3.1 7.7-5.1 9.1-3.9 2.8-8.1 4.6-19.8 3.5-3-1.2-8.5-2-10.5 1-3 1.4-14.7 3-19.9 0v-2.6c-3-3.1.1-18.3.1-18.3z"/><path id="XMLID_1551_" class="st6" d="M305.8 739.6c-2.2 34.5 26 72.2 27.7 100 2.2 38.1 2.3 65.1 2.4 96.2 0 0 25.4 12 26.5-6.6 3.7-60.8 7.7-76.8-8-188.2l-48.6-1.4z"/><path id="XMLID_1481_" class="st11" d="M372.2 629.1c-14.2-7.1-37.1-26.4-55.9-1.1-17.6 23.7-24.8 95.1-26.8 109.3-2.7 19.2 50.9 29.5 62.8 29 2.7-.1 4.4-1.4 5.1-4 1-3.5-1.9-6-1.1-9.3.4-1.9 1.7-3.4 2.8-4.9a11 11 0 002.6-5c.5-3.1-1.5-5.9-1.8-9-.3-2.2.3-4.5.9-6.6 4.9-18.1 13.3-34.9 18-53.1 3.2-12.3 7.7-31.9-2.4-42.2-1-1.1-2.7-2.7-4.2-3.1z"/><path id="XMLID_1480_" class="st11" d="M380.9 638.6c11.4 36 12.4 53.8 23.5 68 .8 1.1 31.5 33.9 31.5 33.9s-4.1 7.4-14.8 9.4c-17.1-7.3-36.5-34.3-41.7-40.1-3-3.3-19.9-34.4-22.5-50.1-2.6-15.7 19.3-35.3 24-21.1z"/></g><path class="st49" d="M818.2 613.6c12.2-.8 18.7-2.6 18.7-2.6s15-32.1 19-47.6c0 0-5.4 33-9.1 43.7-3.7 10.7-8.7 14.9-16.6 14-7.9-.9-13.9-2.5-13.9-2.5l1.9-5z"/></g></svg>