<svg version="1.0" id="Layer_1" xmlns="http://www.w3.org/2000/svg" x="0" y="0" viewBox="0 0 1000 1000" xml:space="preserve"><style>@keyframes translate{0%{transform:translateY(0)}50%{transform:translateY(20px)}}.st0{fill:#000}.st1{fill:#b6b6ef}.st2{fill:#9b9bdd}.st3{fill:#161642}.st4{fill:#fff}.st5{fill:#e3e3ff}.st6{fill:#2a3554}.st7{fill:#445279}.st8{fill:#5f46f1}.st9{fill:#8380f9}.st10{fill:#3c3cc2}.st11{fill:#f8ae81}.st12{fill:#fa8465}.st13{fill:#fa664d}.st17{fill:#f8fafe}.st19{fill:#fefefe}.st23{fill:#f8f8f8}.st26{fill:#010101}.st27{fill:#020202}.st36{fill:#848c96}.st38{fill:#838a94}.st39{fill:#838b94}.st43{fill:#9097a0}.st47{fill:#e3605b}.st63,.st64{fill:none;stroke:#4a00ff;stroke-width:5;stroke-miterlimit:10}.st64{stroke:#c6c6c6}</style><ellipse class="st0" cx="502.5" cy="780.5" rx="474.6" ry="30"/><path class="st1" d="M844 373.1l4.9.9 2.6.5 7.4 1.4s93.6-99.7 59.6-146.8C908 214.6 883 219 876.1 273.2c-6.3 50.2-32.1 99.9-32.1 99.9z"/><path class="st2" d="M848.9 374l2.6.5a332.6 332.6 0 0038.5-74.1 371.4 371.4 0 0013.4-42.4c.2-.6-.3-1.3-.9-1.4-.6-.2-1.3.3-1.4.9 0 .2-4.3 18.1-13.3 42.1a333 333 0 01-38.9 74.4z"/><path class="st0" d="M800 422.5l5.9 4.2 3.1 2.3 8.8 6.4s184.5-72.1 169.4-154.7c-4.7-25.4-40.1-35.2-82.8 31.3C864.6 373.7 800 422.5 800 422.5z"/><path class="st1" d="M805.8 426.8l3.1 2.3a482 482 0 0096.5-72.9c27-25.9 43.8-46.9 43.9-47.1.6-.7.5-1.8-.3-2.4-.7-.6-1.8-.5-2.4.3-.2.2-16.9 21.1-43.7 46.8a478.4 478.4 0 01-97.1 73zM173.5 557.5l-4.9.9-2.6.5-7.4 1.4S65 460.6 99 413.5c10.5-14.5 35.5-10.1 42.4 44.1 6.3 50.2 32.1 99.9 32.1 99.9z"/><path class="st2" d="M168.6 558.4l-2.6.5a332.6 332.6 0 01-38.5-74.1 371.4 371.4 0 01-13.4-42.4c-.2-.6.3-1.3.9-1.4.6-.2 1.3.3 1.4.9 0 .2 4.3 18.1 13.3 42.1a331 331 0 0038.9 74.4z"/><path class="st0" d="M217.6 607l-5.9 4.2-3.1 2.3-8.8 6.4S15.3 547.8 30.4 465.2c4.7-25.4 40.1-35.2 82.8 31.3C152.9 558.1 217.6 607 217.6 607z"/><path class="st1" d="M211.7 611.2l-3.1 2.3a482 482 0 01-96.5-72.9 521.8 521.8 0 01-43.9-47.1c-.6-.7-.5-1.8.3-2.4.7-.6 1.8-.5 2.4.3.2.2 16.9 21.1 43.7 46.8a474.7 474.7 0 0097.1 73zM365.7 322.2a644.3 644.3 0 01-79.8-73.6c-25.7-29.1-39.2-54.1-40.2-74.4-.1-1.3 1-2.5 2.3-2.6 1.3-.1 2.5 1 2.6 2.3 1.7 35.4 45.5 87.7 126.8 151.2l-11.7-2.9z"/><path class="st0" d="M265.2 220.8s-13.8 15-39.2-10.2c-.1-.1 27.5-17.1 39.2 10.2zM277.6 234.5s-15.8-12.9 8-39.7c0-.1 18.5 26.5-8 39.7zM251 189.1s-19.2-6.9-5.7-40.1c.1-.1 26.4 18.9 5.7 40.1zM301.8 262.8s-7.9 18.8-40.4 3.6c0 0 20.2-25.3 40.4-3.6zM316.6 274.8s-17.7-10 1-40.5c0 0 22.9 23-1 40.5zM335.2 293.3s-7.5 18.9-40.3 4.4c0 0 19.7-25.7 40.3-4.4z"/><g><path class="st3" d="M879.5 313.5v393.6a29.4 29.4 0 01-29.4 29.4H179.2a29.4 29.4 0 01-29.4-29.4V313.5a29.4 29.4 0 0129.4-29.4h670.9a29.4 29.4 0 0129.4 29.4z"/><path class="st4" d="M847.1 333.5v353.6c0 10.4-8.4 18.8-18.8 18.8H201.1c-4.4 0-8.4-1.5-11.6-4l-2.4-2.2c-3-3.3-4.8-7.8-4.8-12.6V333.5c0-10.4 8.4-18.8 18.8-18.8h627.1a18.7 18.7 0 0118.9 18.8z"/><path class="st5" d="M226.4 391.2h50.2v227.3h-50.2z"/><path class="st6" d="M226.4 391.2h50.2v15.1h-50.2z"/><path class="st5" d="M755.4 506.7h50.2v111.8h-50.2z"/><path class="st6" d="M755.4 506.7h50.2v16h-50.2z"/><g><path class="st5" d="M756.5 392h50.2v65.2h-50.2z"/><path class="st6" d="M756.5 392h50.2v16h-50.2z"/></g><path class="st6" d="M947.6 720.8v2.5a57 57 0 01-57.2 57.2H139a57.3 57.3 0 01-57.2-57.2v-2.5h865.8z"/><path class="st7" d="M417.6 720.8v.6c0 4.5 3 8.2 6.8 8.2h176.8c3.7 0 6.8-3.7 6.8-8.2v-.6H417.6z"/><g><path class="st5" d="M847.1 333.5v20.9H182.3v-20.9c0-4 1.3-7.7 3.4-10.8 3.4-4.9 9-8.1 15.4-8.1h627.1c6.4 0 12 3.2 15.4 8.1 2.2 3.1 3.5 6.8 3.5 10.8z"/><path class="st8" d="M795.8 337.4c0 3-2.4 5.4-5.4 5.4-3 0-5.4-2.4-5.4-5.4 0-3 2.4-5.4 5.4-5.4 3 0 5.4 2.4 5.4 5.4zM813.3 337.4c0 3-2.4 5.4-5.4 5.4-3 0-5.4-2.4-5.4-5.4 0-3 2.4-5.4 5.4-5.4 3 0 5.4 2.4 5.4 5.4z"/><path class="st9" d="M830 337.4c0 3-2.4 5.4-5.4 5.4-3 0-5.4-2.4-5.4-5.4 0-3 2.4-5.4 5.4-5.4 3 0 5.4 2.4 5.4 5.4z"/><path class="st4" d="M687.4 340.8H333a.8.8 0 01-.8-.8v-9c0-.4.3-.8.8-.8h354.4c.4 0 .8.3.8.8v9c-.1.5-.4.8-.8.8z"/><path class="st6" d="M247.3 335.5v3.9c0 1.1-1.2 1.8-2.2 1.3l-3.4-2-3.4-2c-1-.6-1-2 0-2.5l3.4-2 3.4-2c1-.6 2.2.1 2.2 1.3v4zM264.9 335.5v3.9c0 1.1 1.2 1.8 2.2 1.3l3.4-2 3.4-2c1-.6 1-2 0-2.5l-3.4-2-3.4-2c-1-.6-2.2.1-2.2 1.3v4z"/></g><path class="st0" d="M843.7 322.7h-658c3.4-4.9 9-8.1 15.4-8.1h627.1c6.4.1 12.1 3.3 15.5 8.1z"/></g><g><path class="st0" d="M898 887c0 7.3-45.3 13.3-101.1 13.3s-101.1-5.9-101.1-13.3 45.3-13.3 101.1-13.3S898 879.7 898 887z"/><path class="st8" d="M876.6 742.2H723.9c2.5-15.3 14.7-26.4 28.8-26.4l47.5.1 47.5-.1c14.2 0 26.4 11.1 28.9 26.4z"/><path class="st8" d="M735.9 740h8.3v142.3h-8.3zM856.3 740h8.3v142.3h-8.3z"/><path class="st10" d="M744.3 779.9h112v8h-112z"/><g><path class="st9" d="M762.9 550.6s-25.5 34-28.9 63.7c-2.4 20.9 28.9 52.2 28.9 52.2l10.8-5.4-10.7-24.2c-3.8-11.8-8.5-16.5-5.1-28.4l7.8-16.8c.9-12.5-.4-26.4-2.8-41.1zM843.2 550.1s25.2 36.3 27.2 66c1.8 25.7-29 50.4-29 50.4l-8.9-4.4 12.3-24.5c3.8-11.8 5.6-18.9.4-31.7l-6.6-14.1 4.6-41.7z"/><path class="st9" d="M846.7 685.1c-22.4 6-95.6-3.3-95.6-3.3L768 628l-2.1-32-.3-4.3-2.8-41.1c17.7-7.3 28.6-10.2 45.9-8.9 11.9.9 23.5 3.8 34.4 8.4l-7.9 76.4 11.5 58.6z"/><path class="st8" d="M786.4 566.8a75.9 75.9 0 0031.8-13.5c.4-.3.5-.9.2-1.3a1 1 0 00-1.3-.2c-.2.1-17.8 13.2-34.8 13.4-.5 0-.9.4-.9.9s.4.9.9.9c1.4.1 2.7 0 4.1-.2zM795 622a75.8 75.8 0 0028-20.2 1 1 0 00-.1-1.3 1 1 0 00-1.3.1c-.1.2-14.5 16.8-31 20.8a1 1 0 10.4 1.8l4-1.2z"/><path class="st11" d="M799.4 854.9l1.3 11.8 12.6.3 1.1-9.8z"/><path class="st3" d="M797.4 666.7s-32.7-1.8-43.8 7.3c-11.1 9.1-8.8 35.1 2.4 42.2 11.3 7.1 30.5 21 30.5 21l12.2 121.6 16.2.5s14.9-122.2 7.3-145.8c-7.4-23.7-24.8-46.8-24.8-46.8z"/><path class="st6" d="M816.5 853.3c.9 2.8.5 5.6-.4 8.3l-18.6-.4c-.7-2.7-.8-5.4-.4-8.2l19.4.3z"/><path class="st4" d="M843.7 665.7h-85.8l-7.9-46.4c-.7-4 2.4-7.7 6.5-7.7h88.7c4.1 0 7.2 3.7 6.5 7.7l-8 46.4z"/><path class="st0" d="M840.1 675.8h-78.6c-2 0-3.6-1.6-3.6-3.6v-6.5h85.9v6.5c-.1 2-1.7 3.6-3.7 3.6zM808.4 640.6a7.5 7.5 0 11-15 0 7.5 7.5 0 0115 0z"/><g><path class="st11" d="M745.8 821.5l-2.8 11.7 11.3 2.3 4.6-10.5z"/><path class="st6" d="M814 664.6s-21.9-7.6-34.7 8.3C766.5 688.8 745 822.6 745 822.6l14.7 6.1L807 709.9s38.6 22 43.2-9.3c3.8-24.8-36.2-36-36.2-36z"/><path class="st7" d="M763 822.6c-.1 3.1-1.4 5.6-3.1 8l-18.1-6.4c.2-2.9 1-5.6 2.3-8.1l18.9 6.5z"/></g><g><path class="st9" d="M751.6 831.3s-6.9-3.5-8.9-3.9c-2-.4-18.7 11.4-23.4 11.3-8.6-.2-11.3 12.4-6.4 14.1 14.1 5 40.2 4.3 40.2 4.3s5.8-15.7 5.9-21c0-5.2-3.7-2.4-7.4-4.8z"/><path class="st4" d="M736.6 842.5c.2.1.5.1.8 0 .5-.2.8-.8.6-1.3-.1-.2-1.8-4.3-4.5-6.2a7.1 7.1 0 00-7.2-.7c-.5.3-.7.9-.4 1.4.3.5.9.7 1.4.4.1 0 2.5-1.2 5.1.6 2.3 1.5 3.8 5.2 3.8 5.2 0 .3.2.5.4.6z"/><path class="st4" d="M740 840.1c.2.1.5.1.8 0 .5-.2.8-.8.6-1.3-.1-.2-1.8-4.3-4.5-6.2a7.1 7.1 0 00-7.2-.7c-.5.3-.7.9-.4 1.4.3.5.9.7 1.4.4.1 0 2.5-1.2 5.1.6a14 14 0 013.8 5.2c0 .3.2.5.4.6zM732.2 844.2c.2.1.5.1.8 0 .5-.2.8-.8.6-1.3-.1-.2-1.8-4.3-4.5-6.2a7.1 7.1 0 00-7.2-.7c-.5.3-.7.9-.4 1.4.3.5.9.7 1.4.4.1 0 2.5-1.2 5.1.6a14 14 0 013.8 5.2c0 .3.1.5.4.6z"/></g><g><path class="st9" d="M805.6 866.2s7-2.1 9-2.2c2 0 15.7 13.9 20.1 14.5 8.1 1.2 8.6 13.5 3.7 14.3-14.1 2.3-38.5-2.6-38.5-2.6s-2.8-15.7-2.1-20.7c.8-4.8 3.9-1.6 7.8-3.3z"/><path class="st4" d="M817.8 879.2c-.3.1-.5 0-.8-.1-.5-.3-.6-.9-.3-1.3.1-.2 2.4-3.7 5.3-5 3.9-1.8 6.8.5 6.9.5.4.3.5.9.2 1.3a1 1 0 01-1.4.2 4.7 4.7 0 00-4.9-.3 13 13 0 00-4.4 4.3c-.2.2-.4.4-.6.4z"/><path class="st4" d="M815 876.4c-.2.1-.5 0-.8-.1-.5-.3-.6-.9-.3-1.3.1-.2 2.4-3.7 5.3-5 3.9-1.8 6.8.5 6.9.5.4.3.5.9.2 1.3a1 1 0 01-1.4.2 4.7 4.7 0 00-4.9-.3 13 13 0 00-4.4 4.3c-.2.2-.4.4-.6.4zM821.7 881.6c-.3.1-.5 0-.8-.1-.5-.3-.6-.9-.3-1.3.1-.2 2.4-3.7 5.3-5 3.9-1.8 6.8.5 6.9.5.4.3.5.9.2 1.3a1 1 0 01-1.4.2 4.7 4.7 0 00-4.9-.3 13 13 0 00-4.4 4.3l-.6.4z"/></g><g><path class="st6" d="M824.7 473.9s10.4 16.1 9.3 32.9c-1.1 16.8 1.5 36.2-13.5 35.3-15-.9-41.8 6-50.3-7.1-8.6-13 54.5-61.1 54.5-61.1z"/><path class="st3" d="M828.5 503.6s2.7 24.3-8.8 31a17 17 0 01-19.9-.8s24.3-33.9 28.7-30.2z"/><path class="st12" d="M780.5 503.5s-4.1-5.5-7.2-1c-3.1 4.6 1.3 18.1 8.8 14.8l-1.6-13.8z"/><path class="st13" d="M780.5 513.1c-.3 0-.5-.2-.6-.5-1.2-4.2-5.5-5.9-5.5-5.9a.7.7 0 01-.4-.8c.1-.3.5-.5.8-.4.2.1 5 1.9 6.3 6.7.1.3-.1.7-.4.8l-.2.1z"/><path class="st13" d="M776.1 511l-.3-.1a.7.7 0 01-.2-.9s.8-1.2 2.4-1.9c.3-.1.7 0 .8.3.1.3 0 .7-.3.8-1.2.6-1.8 1.4-1.8 1.5-.1.2-.4.3-.6.3z"/><path class="st12" d="M823.3 503.5s4.1-5.5 7.2-1c3.1 4.6-1.3 18.1-8.8 14.8l1.6-13.8z"/><path class="st13" d="M823.3 513.1c.3 0 .5-.2.6-.5 1.2-4.2 5.5-5.9 5.5-5.9.3-.1.5-.5.4-.8a.7.7 0 00-.8-.4c-.2.1-5 1.9-6.3 6.7-.1.3.1.7.4.8l.2.1z"/><path class="st13" d="M827.7 511l.3-.1c.3-.2.4-.6.2-.9 0 0-.8-1.2-2.4-1.9-.3-.1-.7 0-.8.3-.1.3 0 .7.3.8 1.2.6 1.8 1.4 1.8 1.5l.6.3z"/><path class="st11" d="M812.1 528.7v13.4s-4 6.8-9.4 7.3-10.2-5.9-10.2-5.9v-13.9l19.6-.9z"/><path class="st12" d="M812.1 528.7v6c-3.6 4-10.1 5.5-19.6 4.1v-9.1l19.6-1z"/><path class="st11" d="M826.3 494.2a124 124 0 01-2.5 20.6c-2.8 9.9-9.9 26.9-29.7 19.8-8.7-3.1-12.8-12.9-14.6-22.8a96.6 96.6 0 01-1.3-18.4c.1-5 2.8-9.5 7.1-11.9a37 37 0 0132.1-1 14 14 0 018.9 13.7z"/><path class="st6" d="M793.2 505.5c0 1.4-.7 2.6-1.7 2.6-.9 0-1.6-1.2-1.6-2.6 0-1.4.7-2.6 1.6-2.6 1 0 1.7 1.2 1.7 2.6zM813.6 505.5c0 1.4-.7 2.6-1.6 2.6s-1.6-1.2-1.6-2.6c0-1.4.7-2.6 1.6-2.6s1.6 1.2 1.6 2.6zM788.3 496.9a31 31 0 017.1-1.1c.8 0 1.4.7 1.2 1.4-.1.6-.6 1-1.3 1-2-.1-7.2.2-9.7 1.2-.1-.4.2-.9.6-1.3a4 4 0 012.1-1.2zM814.9 496.9a31 31 0 00-7.1-1.1c-.8 0-1.4.7-1.2 1.4.1.6.6 1 1.3 1 2-.1 7.2.2 9.7 1.2.1-.4-.2-.9-.6-1.3a6 6 0 00-2.1-1.2z"/><g><path class="st12" d="M802.1 516.1c-.5 0-1-.1-1.4-.3-.4-.2-.8-.7-.9-1.6-.2-2.3.4-9.7.4-10 0-.4.3-.6.7-.6.4 0 .6.3.6.7 0 .1-.6 7.5-.4 9.8 0 .4.2.5.3.6.6.4 2 0 2.6-.2.3-.1.7 0 .8.3.1.3 0 .7-.3.8-.2.1-1.3.5-2.4.5z"/></g><path class="st4" d="M794 520.1c.5 2.4 2.1 6.9 7.5 6.9s6.9-4.1 7.5-6.9h-15z"/><g><path class="st12" d="M801.4 530.7c-1.6 0-2.9-.8-3-.9a.7.7 0 11.7-1.1s1.1.7 2.3.7a5 5 0 002.4-.7.7.7 0 11.7 1.1c0 .1-1.4.9-3.1.9z"/></g><path class="st6" d="M828.8 493.2c-.2.6-.8 1-1.5 1.2.1 1.4-.1 3.1-.2 4.7-.8 9.2-3.1 10.8-3.6 8.6-.3-1.5-.3-10.2-.2-13-1.8-.1-3.4-.4-3.4-.4l-2.1-9-.7 8.8c-3.2 1.1-10.7-.7-10.7-.7l-2.5-8.8-1.6 8.5c-4.8 2.3-10.8.8-10.8.8l-1.4-9.2-3.2 9.2s-10.3 3.7-10.4 0c-.1-2.1 1.5-8.2 2.8-12.9a19 19 0 019.3-11.8 33.9 33.9 0 0130.8-.4c9.8 5.8 9.4 24.4 9.4 24.4z"/><path class="st6" d="M782.1 474.6s-8.4 10-11.2 28c-2.8 17.9-6.6 31.2 4.2 37.1 11.7 6.4 10.7-6.7 10.5-10.3-.2-3.6-10.1-13.3-3.5-40.9 2.2-8.8 0-13.9 0-13.9z"/><path class="st3" d="M780.2 511.7l.1 2 .1 2.5c.4 6 1.6 16.5 5 20.1 1.4 1.4 4 2.2 7.1 2.4V534a18.6 18.6 0 01-7.8-7.2c-1.2-2.6-3.3-6.8-4.3-13.3l-.2-1.8z"/><path class="st4" d="M826.4 517.6c0 .8-.7 1.5-1.5 1.5s-1.5-.7-1.5-1.5.7-1.5 1.5-1.5c.9 0 1.5.7 1.5 1.5z"/></g></g><g><path class="st8" d="M769.8 587c0 .1-1.9 3.7-3.9 9.1l-.3-4.3c1.4-3.3 2.4-5.4 2.6-5.6.2-.5.8-.6 1.2-.4.5.2.6.8.4 1.2z"/></g><g><path class="st8" d="M834.5 587c0 .1 2 3.8 4 9.2l.4-4a56.2 56.2 0 00-2.8-6c-.2-.5-.8-.6-1.2-.4a1 1 0 00-.4 1.2z"/></g></g><g><path class="st11" d="M217.7 618.9c2.9 5.6 5.8 10.4 8.5 14.5 20.3 30.8 35.4 24.2 43.6 14.7 2.9-3.4 5-6.9 6.4-10.2 2.4-5.3 3.3-10 3.5-12l-3.8.9a34.3 34.3 0 01-17.4 4l-2-.5c-4.9-1.9-11.6-11.6-16.2-18.9-3-4.8-5-8.7-5-8.7l-17.6 16.2z"/><path class="st12" d="M217.7 618.9c2.9 5.6 5.8 10.4 8.5 14.5 5.8-6.3 11-15.6 14.2-22-3-4.8-5-8.7-5-8.7l-17.7 16.2zM254.2 631.9s4.1 12.6 22 6.1c2.4-5.3 3.3-10 3.5-12l-3.8.9a34.3 34.3 0 01-17.4 4l-4.3 1z"/><path class="st11" d="M113.6 644.7c0 3.5-.1 7.1-.4 10.6v.2l-.3 2.1c-2.9 17.6-20.8 32.8-24.7 10.1-.5-3-.7-6.3-.7-9.9v-2.4l.4-6.6.3-2.9.4-3.2 1.3-7.8c1.6-8.6 3.7-16.7 5.4-22.9 1.9-6.7 3.3-11 3.3-11l12.6 15.5s1 5.6 1.7 13.7l.2 1.9.5 10.3v2.3z"/><path class="st12" d="M95.2 612.2c3.7 6.9 9.9 16 17.8 20l-.2-1.9c-.7-8-1.7-13.7-1.7-13.7l-12.6-15.5c.1.1-1.4 4.4-3.3 11.1zM113.6 644.7c0 3.5-.1 7.1-.4 10.6-7.8.7-18.8 1.1-25.7.2l.4-6.6.3-2.9 25.4-3.6v2.3z"/><path class="st9" d="M220.9 563.8s18.2 32.2 21.2 43c0 0-12.4 20.8-23.7 23.1l-4.2-14.2c0 .1-.4-44.3 6.7-51.9z"/><path class="st9" d="M180.9 547.3l40 16.5-17.7 137.1s-55.1 7.7-83.5 0V563.8l38.9-17.4 22.3.9z"/><path class="st8" d="M189.1 622a64.4 64.4 0 01-29.3 17.4 1 1 0 01-1.1-.7c-.1-.4.2-.8.6-.9a62.9 62.9 0 0028.5-16.9c.5-.5 1.3-.2 1.5.5.1.1 0 .4-.2.6zM188.8 608.9l-.1.4-1.5 2.4a34.5 34.5 0 01-19.7 13.3h-.2c-.3 0-.7-.2-.8-.6-.1-.4.1-.8.6-1a32.9 32.9 0 0020.3-15c.3-.6 1.4-.3 1.4.5zM187.3 573.3c0 .5-.5.8-.9.7-9.5-1.9-17-6.1-22-9.7-6.9-5-10.5-9.9-10.7-10.1-.3-.3-.2-.8.2-1.1.3-.3.8-.2 1.1.2a56 56 0 0031.8 19.2c.3.1.6.4.5.8z"/><g><path class="st11" d="M248.8 788.1l-4.3-22.1h14.7l3.6 20.8c-.1.1-5.9 3.9-14 1.3z"/><path class="st9" d="M258.8 787.9s3.3-4.3 5.8-4.1c2.5.2 22 16.1 28.7 17.4 6.7 1.4 5.4 6.3 4.1 8.8-1.3 2.5-53.7-1.6-53.7-1.6s-1.3-15.6.5-20.4c1.8-4.6 9.4 1 14.6-.1z"/><path class="st4" d="M269.6 798.9c-.2.1-.5 0-.7-.1-.4-.3-.6-.8-.3-1.3.1-.2 2.2-3.7 5-5.1 3.7-1.8 6.6.3 6.7.4.4.3.5.9.2 1.3a1 1 0 01-1.3.2 4.5 4.5 0 00-4.7-.2c-2.3 1.1-4.2 4.3-4.2 4.3-.3.3-.5.5-.7.5z"/><path class="st4" d="M266.8 796.2c-.2.1-.5 0-.7-.1-.4-.3-.6-.8-.3-1.3.1-.2 2.2-3.7 5-5.1 3.7-1.8 6.5.3 6.7.4.4.3.5.9.2 1.3a1 1 0 01-1.3.2 4.5 4.5 0 00-4.7-.2c-2.3 1.1-4.2 4.3-4.2 4.3-.3.3-.5.5-.7.5zM273.4 801.1c-.2.1-.5 0-.7-.1-.4-.3-.6-.8-.3-1.3.1-.2 2.2-3.7 5-5.1 3.7-1.8 6.5.3 6.7.4.4.3.5.9.2 1.3a1 1 0 01-1.3.2 4.5 4.5 0 00-4.7-.2c-2.3 1.1-4.2 4.3-4.2 4.3-.3.3-.5.5-.7.5z"/><g><path class="st3" d="M182.3 687.1s25.1-62.3 40.7-59.8c24.1 3.8 40.3 78 38.3 147.1l-16.6.9s-18.5-65.2-21.9-82.2c0 0-12.8 44.4-41.6 38.2-21.2-4.6-7.3-26.4 1.1-44.2z"/></g><g><path class="st6" d="M246.7 772.5l2-.4c0-.2-4.5-24.5-9.8-49-10.9-50-15-52.3-16.3-53.1-1.1-.6-2-.5-2.6-.2-2.7 1.2-4.1 7-6.2 15.9-3.4 14.3-7.9 33.8-20.6 42l1.1 1.7c13.4-8.6 18.1-28.7 21.5-43.3 1.6-7 3.2-13.7 5-14.4.1 0 .3-.1.8.1 5.6 3.3 18 62 25.1 100.7z"/></g><path class="st6" d="M262.9 769.4l-20.3 1.7h-.4l1.1 6.7 20-1.4z"/></g><g><path class="st6" d="M188.7 731.6s-29.2 5.6-67.8-1.4a71.9 71.9 0 0122.2-39.7l52.2 3.8c3.2 12.4.8 24.8-6.6 37.3z"/><path class="st9" d="M197 783.2s6.9-1.5 8.8-1.4c1.9.1 13.9 14.8 18.1 15.9 7.7 1.9 7.1 13.9 2.4 14.3-13.7 1.1-36.7-5.7-36.7-5.7s-1.5-15.6-.3-20.4c1.2-4.8 3.9-1.5 7.7-2.7z"/><path class="st11" d="M193 784.2l-5.1-19.8h14.6l3.3 19.1s-4.8 3.3-12.8.7z"/><path class="st4" d="M207.7 796.9c-.2 0-.5 0-.7-.2a1 1 0 01-.2-1.3c.1-.1 2.6-3.4 5.5-4.5 3.9-1.4 6.5 1 6.6 1.1.4.4.4 1 0 1.3-.4.4-1 .4-1.3 0a4.5 4.5 0 00-4.6-.7c-2.4.9-4.6 3.8-4.6 3.8-.3.3-.5.5-.7.5z"/><path class="st4" d="M205.2 793.9c-.2 0-.5 0-.7-.2a1 1 0 01-.2-1.3c.1-.1 2.6-3.4 5.5-4.5 3.9-1.4 6.5 1 6.6 1.1.4.4.4 1 0 1.3-.4.4-1 .4-1.3 0a4.5 4.5 0 00-4.6-.7c-2.4.9-4.6 3.8-4.6 3.8-.3.4-.5.5-.7.5zM211.2 799.5c-.2 0-.5 0-.7-.2a1 1 0 01-.2-1.3c.1-.1 2.6-3.4 5.5-4.5 3.9-1.4 6.5 1 6.6 1.1.4.4.4 1 0 1.3-.4.4-1 .4-1.3 0a4.5 4.5 0 00-4.6-.7c-2.4.9-4.6 3.8-4.6 3.8-.2.3-.5.4-.7.5z"/><path class="st3" d="M124.4 731.3a23.9 23.9 0 0013.3-.8c19.4-6.9 28.2-37.4 28.2-37.4 3.3 17.1 22.6 82.2 22.6 82.2l3-.4 2.1-.3 11.4-1.5c2.2-67-14.7-142.1-38.8-145.9-15.6-2.5-40.7 59.8-40.7 59.8-8.5 17.9-22.4 39.7-1.1 44.3z"/><g><path class="st6" d="M134.7 731.4c1-.2 2.1-.5 3-.9 7.1-11.4 10.8-27.4 13.8-40.3 2.4-10.3 4.6-19.9 7.6-21.6.4-.2.9-.3 1.4-.1 2.5.8 8.4 9.1 19.7 55.4a1399 1399 0 0111.3 51l.4 2.2 2-.4-.4-2.1c-1.4-6.8-5.9-29-11.3-51.2-13.3-54.4-19.2-56.3-21.1-56.9a4.2 4.2 0 00-3.1.3c-3.7 2.1-5.8 10.8-8.6 22.9-3 13.5-6.9 30.5-14.7 41.7z"/></g><path class="st6" d="M206.3 768.4l-20.1 3.7-.3.1 1.7 6.6 19.8-3.4z"/></g><path class="st9" d="M119.7 563.8l-25.9 37.6s11.5 21.7 22.8 24c0 0 11.8-20.5 13.1-31 1.4-10.5-5.9-29.7-10-30.6z"/><g><path transform="matrix(0.9947 -0.1029 0.1029 0.9947 -62.8516 21.404)" class="st8" d="M27.5 601.4h297.2v37H27.5z"/><path transform="matrix(0.9947 -0.1029 0.1029 0.9947 -61.7401 21.2305)" class="st10" d="M26.3 607.9h297.2v2.5H26.3z"/><path transform="matrix(0.9947 -0.1029 0.1029 0.9947 -62.8512 21.4038)" class="st10" d="M27.5 618.7h297.2v2.5H27.5z"/><path transform="matrix(0.9947 -0.1029 0.1029 0.9947 -63.9611 21.5767)" class="st10" d="M28.6 629.6h297.2v2.5H28.6z"/><g><path transform="matrix(0.9947 -0.1029 0.1029 0.9947 -65.0781 7.0675)" class="st6" d="M28.2 615.9h15.5v37H28.2z"/></g><path class="st9" d="M26.3 616.8l-4.4.5a18.5 18.5 0 003.8 36.8l4.4-.5-3.8-36.8z"/><g><path class="st11" d="M325.8 623.1l-3.8-36.9 25.8 8.4 5.4 1.8 15.2 4.9-14.5 7.4-5.7 2.9z"/><path class="st6" d="M353.9 608.7c-.7-1.6-1.2-3.5-1.5-5.8-.3-2.8.1-4.9.8-6.6l15.2 4.9-14.5 7.5z"/></g></g><g><path class="st11" d="M280.6 629.3s-.9-4.2-3.1-10c-1.1-3-4.8-5.1-5.9-2-.9 2.4.5 4.6.4 7.1l-1.8-5.5c-1.1-3.6-3.5-3.8-4.4-1.5-.8 2.2-.1 2.3.1 4.1l.8 5.6s-.1-3.5-2.2-8c-.9-2-1.8-4.3-4.3-1.9-1.3 1.2-.8 5.2-.6 9.4 0 0-1-5.8-3.3-7.7-1.9-1.5-3.2-.8-3 2.3.3 4 .7 5.2 1.1 7.6.3 2.4 2.6 6.3 5.1 6 2.5-.3 3.3-1.8 5-1.6 1.6.2 4.1.9 5.4.1 1.3-.8 2.5-.7 4.3-.4 1.8.4 6-1.1 6.4-3.6z"/></g><g><path class="st11" d="M114 649.4s-.2-4.2-1.4-10.4c-.6-3.1-3.4-5.8-4.9-3-1.2 2.2-.8 4.7-1.3 7.2l-.8-5.7c-.5-3.7-2.8-4.4-4.1-2.2-1.2 2.1-.5 2.2-.6 4.1l-.2 5.6s.4-3.5-.8-8.2c-.6-2.2-1.1-4.5-3.9-2.6-1.4.9-1.6 5-2.1 9.2 0 0 .6-5-1.4-7.3-1.6-1.8-3.6-2.2-3.9.9-.4 4-.1 5.3-.2 7.7-.1 2.4 1.6 6.6 4.1 6.8 2.5.2 3.6-1.2 5.1-.7 1.6.5 3.9 1.6 5.3 1 1.4-.5 2.6-.3 4.3.3 1.6.5 6-.4 6.8-2.7z"/></g><g><path class="st6" d="M193 502.9a36.5 36.5 0 01-.4 4.6 24 24 0 01-24.6 21c-13.5 0-22.3-8.6-23.6-21.4l-.1-1.2-.1-2.2c0-14.7 7.7-26.6 25.3-26.6 14.8-.1 23.5 11.1 23.5 25.8z"/><path class="st12" d="M147.6 510s-4.1-5.4-7.1-.9 1.3 17.8 8.7 14.6l-1.6-13.7z"/><path class="st13" d="M147.6 519.5c-.3 0-.5-.2-.6-.5-1.2-4.1-5.4-5.8-5.4-5.8a.7.7 0 01-.4-.8c.1-.3.5-.5.8-.4.2.1 4.9 1.9 6.2 6.6.1.3-.1.7-.4.8l-.2.1z"/><path class="st13" d="M143.3 517.4l-.3-.1a.7.7 0 01-.2-.9s.8-1.2 2.4-1.9c.3-.1.7 0 .8.3.1.3 0 .7-.3.8-1.2.5-1.8 1.4-1.8 1.4-.2.3-.4.4-.6.4z"/><path class="st12" d="M189.7 510s4.1-5.4 7.1-.9-1.3 17.8-8.7 14.6l1.6-13.7z"/><path class="st13" d="M189.8 519.5c.3 0 .5-.2.6-.5 1.2-4.1 5.4-5.8 5.4-5.8.3-.1.5-.5.4-.8a.7.7 0 00-.8-.4c-.2.1-4.9 1.9-6.2 6.6-.1.3.1.7.4.8l.2.1z"/><path class="st13" d="M194.1 517.4l.3-.1c.3-.2.4-.6.2-.9 0 0-.8-1.2-2.4-1.9-.3-.1-.7 0-.8.3-.1.3 0 .7.3.8 1.2.5 1.8 1.4 1.8 1.4.2.3.4.4.6.4z"/><path class="st11" d="M178.7 534.9v13.2s-3.9 6.7-9.3 7.2c-5.3.5-10.1-5.8-10.1-5.8v-13.7l19.4-.9z"/><path class="st12" d="M178.7 534.9v5.9c-3.6 4-9.9 5-19.3 3.6v-8.5l19.3-1z"/><path class="st11" d="M192.7 500.9a118.2 118.2 0 01-2.5 20.3c-2.8 9.7-9.7 26.5-29.2 19.5-8.6-3.1-12.6-12.7-14.4-22.4a93.7 93.7 0 01-1.3-18.1c.1-4.9 2.8-9.3 7-11.8a36.6 36.6 0 0131.6-1c5.5 2.1 9.1 7.6 8.8 13.5z"/><path class="st6" d="M162.1 510.8c0 1.4-.7 2.6-1.6 2.6-.9 0-1.6-1.1-1.6-2.6 0-1.4.7-2.6 1.6-2.6.9 0 1.6 1.2 1.6 2.6zM181 510.8c0 1.4-.7 2.6-1.6 2.6-.9 0-1.6-1.1-1.6-2.6 0-1.4.7-2.6 1.6-2.6.9 0 1.6 1.2 1.6 2.6zM184.6 502s-5.1-2-9.1-.3l.4 2.2s5.8-.5 8.7.7c.3-.9.3-1.8 0-2.6zM154.7 502s5.1-2 9.1-.3l-.4 2.2s-5.8-.5-8.7.7c-.3-.9-.3-1.8 0-2.6z"/><path class="st12" d="M169.3 521.8c-1.1.1-2.1-.2-2.3-.2-.3-.1-.5-.4-.4-.8.1-.3.4-.5.8-.4.6.2 2 .4 2.5-.1.1-.1.2-.2.2-.6 0-2.2-1.5-9.4-1.5-9.5-.1-.3.1-.7.5-.7.3-.1.7.1.7.5.1.3 1.5 7.4 1.6 9.7 0 .9-.4 1.4-.7 1.6-.4.3-.9.5-1.4.5z"/><path class="st4" d="M160.7 525.6c.5 2.6 2.2 7.3 8 7.3s7.4-4.3 7.9-7.3h-15.9z"/><g><path class="st12" d="M168.2 536.8c1.6 0 3-.8 3.1-.9a.7.7 0 10-.7-1.1s-1.1.7-2.4.7c-1.2 0-2.3-.7-2.3-.7a.7.7 0 10-.7 1.1 6 6 0 003 .9z"/></g><path class="st6" d="M192 510.1h-2.8a20 20 0 00-1.6-8.6c-1.9-5.2 2.2-7.5-1.2-10.1-3.3-2.6-11.7-1.5-17.5-1.7-5.8-.2-15.2-.1-17.5.4-2.3.5-1 4.3-.2 7.2.8 2.9-2.8 6.2-3.4 9.2-.2.9-.1 2.2 0 3.6h-2.4c-.3-3.7-.3-7.1-.3-9.9.1-4.9 2.8-9.3 7-11.8a36.6 36.6 0 0131.6-1c5.5 2.1 9.1 7.6 8.8 13.5 0 2.8-.2 6-.5 9.2z"/><g><path class="st4" d="M173.2 512.6a7.8 7.8 0 1115.6 0 7.8 7.8 0 01-15.6 0zm1.2 0c0 3.6 3 6.6 6.6 6.6 3.6 0 6.6-3 6.6-6.6s-3-6.6-6.6-6.6a6.6 6.6 0 00-6.6 6.6zM151.8 512.6a7.8 7.8 0 1115.6 0 7.8 7.8 0 01-15.6 0zm1.3 0c0 3.6 3 6.6 6.6 6.6 3.6 0 6.6-3 6.6-6.6s-3-6.6-6.6-6.6a6.5 6.5 0 00-6.6 6.6z"/><path class="st4" d="M192.8 506.2c.3.3.2 1.1-.2 1.3-2.8.6-4.7 2.4-4.8 2.4l-.4.2-.4-.2c-.2-.2-.2-.6 0-.9.2-.1 2.4-2.3 5.8-2.8zM153.5 509.8c-.1.2-.3.3-.5.3l-.3-.1s-4.3-2.7-8.2-2.8c-.4-.4-.4-.8-.1-1.2 4.3 0 8.7 2.9 8.9 3 .3.1.4.5.2.8zM167 510.8s1.5-2 3.4-2 3.2 2 3.2 2l1-.7c-.1-.1-1.7-2.5-4.2-2.5s-4.3 2.4-4.3 2.5l.9.7z"/></g></g></g><g><path class="st9" d="M925.6 644.4a11.2 11.2 0 11-22.4 0 11.2 11.2 0 0122.4 0zm-18.8 0a7.7 7.7 0 1015.4 0 7.7 7.7 0 00-15.4 0z"/><path class="st8" d="M937 587.6a11.2 11.2 0 11-22.4 0 11.2 11.2 0 0122.4 0zm-18.9 0a7.7 7.7 0 1015.4 0 7.7 7.7 0 00-15.4 0zM959.8 560.6c0 1-.8 1.8-1.8 1.8h-7.7c-1 0-1.8-.8-1.8-1.8s.8-1.8 1.8-1.8h7.7c1 .1 1.8.9 1.8 1.8zM973.3 560.6c0 1-.8 1.8-1.8 1.8h-7.7c-1 0-1.8-.8-1.8-1.8s.8-1.8 1.8-1.8h7.7c1 .1 1.8.9 1.8 1.8zM962.7 549.8v6.9c0 1-.8 1.8-1.8 1.8s-1.8-.8-1.8-1.8v-6.9c0-1 .8-1.8 1.8-1.8s1.8.8 1.8 1.8zM962.7 564.5v6.9c0 1-.8 1.8-1.8 1.8s-1.8-.8-1.8-1.8v-6.9c0-1 .8-1.8 1.8-1.8 1 .1 1.8.9 1.8 1.8z"/><g><path class="st10" d="M947.2 620.3c0 1-.8 1.8-1.8 1.8h-7.7c-1 0-1.8-.8-1.8-1.8s.8-1.8 1.8-1.8h7.7c1 .1 1.8.9 1.8 1.8zM960.7 620.3c0 1-.8 1.8-1.8 1.8h-7.7c-1 0-1.8-.8-1.8-1.8s.8-1.8 1.8-1.8h7.7c1 .1 1.8.9 1.8 1.8z"/><g><path class="st10" d="M950.1 609.5v6.9c0 1-.8 1.8-1.8 1.8s-1.8-.8-1.8-1.8v-6.9c0-1 .8-1.8 1.8-1.8s1.8.8 1.8 1.8zM950.1 624.3v6.9c0 1-.8 1.8-1.8 1.8s-1.8-.8-1.8-1.8v-6.9c0-1 .8-1.8 1.8-1.8s1.8.8 1.8 1.8z"/></g></g><g><path class="st8" d="M96.5 271.5a11.2 11.2 0 11-22.4 0 11.2 11.2 0 0122.4 0zm-3.5 0a7.7 7.7 0 10-15.4 0 7.7 7.7 0 0015.4 0z"/><path class="st9" d="M142.1 256.4a11.2 11.2 0 11-22.4 0 11.2 11.2 0 0122.4 0zm-3.5 0a7.7 7.7 0 10-15.4 0 7.7 7.7 0 0015.4 0z"/><path class="st10" d="M143.5 208.4c-1 0-1.8.8-1.8 1.8v7.7c0 1 .8 1.8 1.8 1.8s1.8-.8 1.8-1.8v-7.7c0-1-.8-1.8-1.8-1.8zM143.5 194.9c-1 0-1.8.8-1.8 1.8v7.7c0 1 .8 1.8 1.8 1.8s1.8-.8 1.8-1.8v-7.7c0-1-.8-1.8-1.8-1.8z"/><g><path class="st10" d="M154.4 205.5h-6.9c-1 0-1.8.8-1.8 1.8s.8 1.8 1.8 1.8h6.9c1 0 1.8-.8 1.8-1.8s-.9-1.8-1.8-1.8zM139.6 205.5h-6.9c-1 0-1.8.8-1.8 1.8s.8 1.8 1.8 1.8h6.9c1 0 1.8-.8 1.8-1.8s-.8-1.8-1.8-1.8z"/></g><g><path class="st8" d="M96.1 220.8c-1 0-1.8.8-1.8 1.8v7.7c0 1 .8 1.8 1.8 1.8s1.8-.8 1.8-1.8v-7.7c0-1-.8-1.8-1.8-1.8zM96.1 207.3c-1 0-1.8.8-1.8 1.8v7.7c0 1 .8 1.8 1.8 1.8s1.8-.8 1.8-1.8V209c0-.9-.8-1.7-1.8-1.7z"/><g><path class="st8" d="M107 217.9h-6.9c-1 0-1.8.8-1.8 1.8s.8 1.8 1.8 1.8h6.9c1 0 1.8-.8 1.8-1.8s-.8-1.8-1.8-1.8zM92.2 217.9h-6.9c-1 0-1.8.8-1.8 1.8s.8 1.8 1.8 1.8h6.9c1 0 1.8-.8 1.8-1.8s-.8-1.8-1.8-1.8z"/></g></g></g><g><path class="st0" d="M686 193.3l.6-.1a198 198 0 013.5-1.4c.7-.2 1-1 .8-1.6-.2-.7-1-1-1.6-.8l-3.7 1.4c-.7.3-1 1-.7 1.7.2.5.6.8 1.1.8zM619.9 262.8l-2.5 7.2c-.2.6-.8 1-1.4.9l-.2-.1c-.7-.2-1.1-.9-.9-1.6l2.5-7.4c.3-.7 1-1 1.7-.8.7.4 1.1 1.2.8 1.8zM615.5 277.4l-1.6 7.4c-.1.7-.7 1.1-1.4 1.1h-.1c-.7-.1-1.2-.8-1-1.5l1.6-7.6c.2-.7.9-1.1 1.6-1 .6.2 1 .9.9 1.6zM610 316.5c-.6-.1-1.1-.6-1.2-1.3l.1-7.8c0-.7.6-1.3 1.3-1.3.7 0 1.3.6 1.3 1.3l-.1 7.6c0 .7-.6 1.3-1.3 1.3l-.1.2zM611.6 290.9c.7.1 1.2.7 1.1 1.5l-.4 3.5-.4 4.1c-.1.7-.7 1.2-1.4 1.2-.7-.1-1.2-.7-1.2-1.4l.4-4.1.4-3.6c.1-.8.7-1.3 1.5-1.2-.1 0-.1 0 0 0zM622.8 255.8c-.2.5-.8.8-1.3.8l-.4-.1c-.7-.3-.9-1.1-.7-1.7a151 151 0 013.4-7c.3-.6 1.1-.9 1.8-.5.6.3.9 1.1.5 1.7l-3.3 6.8zM679.7 196.5a111.6 111.6 0 00-7.5 3.9c-.4 0-.8-.3-1-.6-.4-.6-.2-1.4.5-1.8l6.8-3.8c.6-.3 1.4-.1 1.7.6.4.6.2 1.3-.5 1.7zM660.4 208.7l-.9.3c-.3 0-.7-.2-.9-.5-.4-.6-.3-1.4.2-1.8l6.3-4.5c.6-.4 1.4-.2 1.8.3.4.6.2 1.4-.3 1.8a63.7 63.7 0 00-6.2 4.4zM638.6 229.9c-.3.4-.7.5-1.1.5a1 1 0 01-.7-.3c-.6-.4-.6-1.3-.2-1.8l5-5.9c.5-.5 1.3-.6 1.8-.1s.6 1.3.1 1.8l-4.9 5.8zM648.9 218.6c-.3.3-.7.4-1 .4-.3 0-.6-.2-.8-.4-.5-.5-.5-1.3 0-1.8a143 143 0 015.7-5.3c.5-.5 1.4-.4 1.8.1.5.5.4 1.4-.1 1.8l-5.6 5.2zM629.9 242.3c-.3.4-.8.7-1.2.6a.8.8 0 01-.5-.2c-.6-.4-.8-1.2-.4-1.8 1.3-2.2 2.8-4.4 4.3-6.5.4-.6 1.2-.7 1.8-.3.6.4.7 1.2.3 1.8-1.6 2.1-3 4.3-4.3 6.4z"/><g><path class="st9" d="M686 184.5l-5.7-21 69.5.6z"/><path class="st8" d="M749.8 164.1l-60.4 25.4-.2.1-2.6 4.3-.6-9.4z"/><path class="st10" d="M686.6 193.9l5.6-.9-3-3.4z"/><path class="st9" d="M696.8 186.4l-7.6 3.2 15.7 17.7 44.9-43.2z"/></g></g><g style="animation:translate 2000ms ease 0ms infinite"><path class="st8" d="M122.8 330.2v43.5a5 5 0 01-5 5H74.2a5 5 0 01-4.4-2.6l-.2-.5-.3-.8v-.1-.1l-.1-.9v-43.5a5 5 0 014.5-5h44.1l1.5.2a5 5 0 013.5 4.8z"/><path class="st4" d="M108.4 354.1c-3.9-7.4-8.2-14.1-11.6-22.4v12c1.1.3 1.9 1.4 1.9 2.6 0 1.5-1.2 2.7-2.7 2.7a2.7 2.7 0 01-2.7-2.7c0-1.2.8-2.3 1.9-2.6v-12c-3.4 8.3-6.4 11.5-11.6 22.4l8.3 8.4h8.1l8.4-8.4zM91.8 365.1h8.2v4.5h-8.2z"/></g><g style="animation:translate 3000ms ease 300ms infinite"><path class="st8" d="M960.3 452.8v43.5a5 5 0 01-5 5h-43.6a5 5 0 01-4.4-2.6l-.2-.5-.3-.8v-.1-.1l-.1-.9v-43.5a5 5 0 014.5-5h44.1l1.5.2c2 .7 3.5 2.6 3.5 4.8z"/><path class="st4" d="M945.9 476.7c-3.9-7.4-8.2-14.1-11.6-22.4v12c1.1.3 1.9 1.4 1.9 2.6 0 1.5-1.2 2.7-2.7 2.7a2.7 2.7 0 01-2.7-2.7c0-1.2.8-2.3 1.9-2.6v-12c-3.4 8.3-6.4 11.5-11.6 22.4l8.3 8.4h8.1l8.4-8.4zM929.3 487.7h8.2v4.5h-8.2z"/></g><g style="animation:translate 4000ms ease 0ms infinite"><path class="st8" d="M828.9 202.5v41c0 2.6-2.1 4.7-4.7 4.7h-41.1c-1.8 0-3.4-1-4.2-2.5l-.2-.5-.2-.7v-.1-.1l-.1-.8v-41c0-2.5 1.9-4.5 4.2-4.7h41.6l1.4.2c1.9.6 3.3 2.3 3.3 4.5z"/><path class="st4" d="M803.6 204.7h-.3a10.5 10.5 0 00-8.8 15.7l4.1 7.6 1.1 2.3h7.7l.8-1.6 4.4-8.3a10.5 10.5 0 00-9-15.7zM807.5 233.2h-7.7v2.6a3.8 3.8 0 107.6 0v-2.6z"/></g></g><g><path d="M570.6 647.2h57.9c3.2 0 4.3 1.1 4.3 4.3v17.7c0 2.9-1.2 4.1-4 4.1H512.1c-2.8 0-4-1.2-4-4.1v-17.7c0-3.1 1.1-4.2 4.2-4.2l58.3-.1z" fill="#3579f5"/><path d="M513.6 623.2l-120.6.1c-2.4 0-3.8-1.4-3.8-3.8V378.8c0-3.1.7-3.8 3.8-3.8h241.1c3.1 0 3.9.7 3.9 3.8v240.7c0 2.4-1.4 3.8-3.8 3.8-40.1-.2-80.4-.1-120.6-.1z" fill="#dbdbdb"/><path d="M570 660.5v1.5c0 1-.2 1.6-1.3.9-.5-.4-.7.1-1 .2-1.1.3-2 .3-2.6-.7-.7-1.2-.8-2.5.1-3.6.7-.9 1.7-1 2.7-.5l.4.3c1.7.2 1.7.2 1.7 1.9z" fill="#f7fafe"/><path class="st17" d="M561.6 656.5c.3 0 .7.1 1.2.4.4.3 1 .7.7 1.2-.3.6-1 .4-1.4-.1-.5-.4-1-.8-1.3 0-.4.7.2 1 .7 1.2l.6.3c.9.3 1.6.7 1.7 1.8 0 .9-.4 1.5-1.2 1.8-1 .3-2 .2-2.8-.6-.3-.3-.8-.7-.4-1.1.3-.3.8-.2 1.2.1l.3.4c.4.3 1 .5 1.3 0 .4-.6 0-1-.6-1.3l-1.1-.4c-.9-.4-1.6-1-1.3-2.2.3-1.1 1.1-1.4 2.4-1.5zM576.6 660.6c0-1.4.7-2.3 2-2.6 1.4-.2 2.4.4 2.9 1.6.3.8.2 1.3-.8 1.2H579c-.4 0-.8-.2-1 .2-.1.3 0 .5.2.7.3.4.8.4 1.2.3l.3-.2c.5-.4 1.2-.9 1.5-.2.3.7-.6 1.1-1.1 1.4-1.8.8-3.5-.4-3.5-2.4z"/><path d="M573.3 661.8c.4-1.2.8-2 1-2.9.2-.6.5-1.1 1.1-.9.8.3.2.8.1 1.2l-1.1 3.1c-.2.6-.5.9-1.2.9-.6 0-.9-.3-1.1-.8l-1.2-3.4c-.1-.3-.5-.8.2-.9.5-.1.9-.1 1.1.5l1.1 3.2z" fill="#f5f8fe"/><path class="st19" d="M513.7 409h121.6c2.1 0 2.1 0 2.1 2.2v208.3c0 2.6-.4 3-3 3H392.9c-2.7 0-3.1-.4-3.1-3.1V411.2c0-2.3 0-2.3 2.2-2.3l121.7.1zM513.7 408.3H392.2c-2.2 0-2.2 0-2.2-2.1v-27.5c0-2.5.6-3.1 3-3.1h241.4c2.4 0 3 .6 3 3v27.7c0 1.6-.5 2-2.1 2H513.7z"/><path d="M497.3 650.5v18c0 2.6-2.1 4.7-4.7 4.7h-17.3a4.7 4.7 0 01-4.7-4.7v-18c.9-2.5 2.8-3.5 5.4-3.3h2.6c3.6-.5 7.1-.5 10.7 0h1.7c2.9-.4 5 .7 6.3 3.3z" fill="#f9e2c5"/><path d="M459.3 650.5v18.2c0 2.4-2.1 4.5-4.6 4.5h-17.5a4.7 4.7 0 01-4.6-4.7v-18c1.6-3.6 4.8-3.5 8-3.4 3.6-.5 7.1-.5 10.7 0 .6 0 1.1.1 1.6 0 3-.3 5.1.8 6.4 3.4z" fill="#f6cbca"/><path d="M421 649.9c.2.9.3 1.7.3 2.6v15.8c0 2.9-2.1 4.9-4.9 4.9h-16.8c-2.9 0-4.9-2-4.9-4.9v-16.2c0-.8.2-1.5.3-2.3 1.4-2 3.2-2.8 5.7-2.7 4.9.2 9.8.2 14.7 0 2.4 0 4.2.8 5.6 2.8z" fill="#cfe6fc"/><path class="st23" d="M451.3 647.2h-10.7c.4-.4 1-.6 1.5-.6h7.6c.6 0 1.2.1 1.6.6zM489.3 647.2h-10.7c.4-.4 1-.6 1.5-.6h7.7c.5 0 1.1.1 1.5.6z"/><path d="M566 660.6c0-.8.3-1.4 1.2-1.5 1-.1 1.4.5 1.5 1.4 0 .9-.5 1.5-1.4 1.5-.9.1-1.3-.5-1.3-1.4z" fill="#3d7ef5"/><path d="M579.2 660.3c-.4-.1-1 .2-1.1-.4 0-.6.5-.8 1.1-.8.5 0 1.1.3 1.1.8-.1.6-.8.2-1.1.4z" fill="#3b7df5"/><path class="st26" d="M402.8 432.6h-1.4c-.8.1-.9-.3-.9-1 0-.5-.1-1.2.8-1.1 1.6.3 2.4-.4 2.4-2 0-1.1.9-.9 1.6-.8 1 .1.3.8.4 1.3.1.5-.9 1.5.4 1.5.8 0 2.3.8 2.4-1 0-.4.2-.8.3-1.1.2-1 1-.5 1.5-.6.9 0 .6.7.5 1.1-.3 1.1-.5 1.9 1.2 1.7 1-.1.5.8.6 1.2.1.7-.3.8-.9.8-.6.1-1.6-.6-1.9.7-.2.9-.4 1.7 1 1.5.9-.1.8.5.8 1.1 0 .7-.1 1.1-.9 1-1.4-.2-1.9.4-1.9 1.7 0 1.3-1 1.2-1.7 1-1.1-.2-.3-.9-.3-1.4 0-.5.6-1.3-.3-1.3-.9 0-2.1-.8-2.6.9-.2.7.2 1.9-1.3 1.9-1 0-1.3-.3-1-1.2.4-1.1.3-1.8-1.1-1.6-.9.2-.9-.4-.9-1.1-.1-.9.3-1.1 1.1-1 1.6.3 2.2-.5 2.1-2.2z"/><path class="st27" d="M457.3 438.3a4 4 0 01-5.8.4c-1.6-1.7-1.6-5.1-.1-6.8 1.5-1.7 3.7-1.6 5.8.3-.1-1 .2-1.5 1.3-1.5 1.2.1 1 .8 1 1.5v6.2c0 .8 0 1.4-1.1 1.3-1 0-1.4-.3-1.1-1.4z"/><path class="st26" d="M460.6 430.9c1.7-.5 2.7-.1 3.2 1.6.3 1.4 1.1 2.6 1.7 4.2.6-1.5 1.2-2.8 1.5-4.1.4-1.6 1.2-2.4 3.1-1.7l-2.5 6.2c-.6 1.6-1.4 3.1-1.9 4.8-.5 1.6-1.3 2.5-3.1 1.9-.2-.4.1-.7.3-1 1.6-2.3 1.4-4.5 0-6.9-1-1.5-1.6-3.3-2.3-5z"/><path class="st27" d="M472.1 443.9l.2-.8c2.1-2.7 1.3-5.4-.2-8.1-.7-1.3-1.2-2.7-1.8-4.1 1.7-.6 2.7-.1 3.2 1.6.4 1.4 1 2.6 1.7 4.2.7-1.7 1.3-3.2 1.7-4.7.3-1.2 1-1.3 2.1-1.3.8 0 .8.4.5 1l-4.8 11.5c-.5 1.4-1.6.5-2.6.7zM439.7 428.5c2-.6 2.9.2 3.5 1.9.3.9.9 1.8 1.3 2.7.8-.9 1.2-2 1.6-3 .6-1.6 1.5-2.2 3.2-1.7-.3 1.4-1.2 2.5-1.8 3.8-1.1 2.1-2.2 4.1-1.8 6.6.1.8-.3 1-1 .9-.5-.1-1.5.3-1.3-.7.5-3.4-1.5-5.9-2.8-8.6l-.9-1.9z"/><path d="M431.5 434.1v4.5c0 .9-.3 1.1-1.2 1.1-.8 0-1.3 0-1.3-1.1v-7c0-.5.1-1.2-.8-1.1-1.1.1-.9-.6-1-1.3-.1-1 .6-.8 1.2-.8 2.9-.1 2.9-.1 2.9 2.8.2.9.2 1.9.2 2.9z" fill="#090909"/><path d="M417.1 437.1l2.6-2.3c.8-.6.7-1.1 0-1.7l-2.9-2.5a6.3 6.3 0 016.3 3c.3.5-.1.7-.4.9l-2.3 2.4c-.9 1-1.9.4-2.9.6l-.4-.4z" fill="#060606"/><path d="M485.5 450.3v-32h.3v32h-.3z"/><path d="M484 431.8l-.2 3.1c0 .6-.1 1-.9 1s-1.1-.3-1.1-1l-.2-6.1c-.1-1.2.7-.8 1.3-.9.6 0 1.2-.1 1.1.9v3z" fill="#0a0a0a"/><path d="M434.2 439.6c-.8.1-1.4.1-1.3-1 0-.9.1-1.4 1.2-1.3.9 0 1.3.2 1.2 1.2 0 .8 0 1.4-1.1 1.1zM482.8 439.6c-1 .3-1.1-.3-1.2-1.2-.1-1.2.5-1.1 1.4-1.2 1.1-.1 1 .5 1.1 1.3 0 1.2-.5 1.3-1.3 1.1z"/><path d="M446.5 401.6h-7.2c-1.9 0-2.7-.7-2.7-2.6v-15c0-1.7.7-2.5 2.4-2.5h15.2c1.7 0 2.4.8 2.4 2.5v15c0 1.8-.7 2.5-2.5 2.5-2.5.2-5.1.1-7.6.1z" fill="#c0c7c9"/><path d="M404 395.4c.7-2.2.5-4.3 0-6.7h3.6c1.6.2 2.1 1.3 1.2 2.5-.4.6-.1.6.2 1 1.1 1.2.6 2.7-1 3.1l-.7.1H404z" fill="#878f98"/><path d="M594.8 389.9c1.6 0 3.9 1.5 3.9 2.5s-2.3 2.5-3.9 2.6c-1.6 0-3.9-1.4-4-2.5-.1-1.1 2.3-2.6 4-2.6z" fill="#878f99"/><path d="M565.5 388.6c4.9.1 4.2-.7 4.2 4.2 0 2.8 0 2.8-2.8 2.8h-4.2c-1.2 0-1.8-.4-1.7-1.7v-3.8c0-1.2.5-1.6 1.6-1.5h2.9z" fill="#939aa3"/><path d="M544.9 392.9c.2-.7.1-.8-.7-.7-1.1.2-1.7-.6-2.3-1.4-.4-.5-.4-1 0-1.5.5-.7 1-1.3 1.9-1 1 .3 1.8 1 1.8 2.1 0 .7-.3 1.3.9 1 .9-.2 2.4 1.4 2.3 2.2-.2 1-.8 1.7-1.9 1.8-.9 0-2-1.3-2-2.5z" fill="#868e98"/><path class="st36" d="M472.3 391.9c-.1-1-.1-2.4 1.4-3 .4-.2 1-.6 1.3 0 .3.6-.2.8-.7 1a1 1 0 00-.8 1c0 .6.5.7.9.7 1.6 0 1.3 1.2 1.3 2.1 0 1.3-1 1.2-1.9 1.3-1.2.1-1.6-.5-1.5-1.6v-1.5zM476.3 392c-.1-1.2 0-2.6 1.6-3.2.4-.1.8-.3 1 .1.2.5 0 .8-.6.9-.6.1-1 .5-.9 1.2.1.5.5.5.9.5 1.8 0 1.3 1.4 1.3 2.3 0 1.2-1 1-1.8 1.1-1.2.1-1.6-.5-1.5-1.6V392z"/><path d="M426.3 388.7h2.4a10.1 10.1 0 00-1.5 6.8h-2.4c1.1-2.2 1.6-4.3 1.5-6.8z" fill="#8c939d"/><path class="st38" d="M517.2 392.6h-2.3c-.3 0-.5-.2-.5-.5s.2-.5.5-.5h4.5c.4 0 .6.2.6.6 0 .4-.3.4-.6.4h-2.2zM497.1 392.6h-2.2c-.4 0-.6-.1-.6-.6 0-.4.3-.5.6-.5h4.5c.3 0 .5.2.5.5 0 .5-.3.5-.7.5l-2.1.1zM517.2 390.3h-2.1c-.3 0-.7-.1-.7-.5 0-.5.3-.5.6-.5h4.3c.3 0 .7 0 .7.5 0 .6-.4.6-.8.6l-2-.1zM497.2 390.3h-2c-.4 0-.8 0-.8-.6 0-.5.4-.5.7-.5h4.2c.3 0 .7 0 .7.5 0 .6-.4.6-.8.6h-2z"/><path class="st39" d="M517.1 395h-2c-.3 0-.7 0-.7-.5 0-.4.2-.6.6-.6h4.4c.3 0 .5.1.5.5s-.2.6-.6.6h-2.2zM497.2 395h-2.1c-.3 0-.7-.1-.7-.5s.3-.5.7-.5h4.3c.4 0 .7.1.7.5 0 .5-.3.5-.7.5h-2.2z"/><path d="M513.5 394.8c.4.8.2 1.2-.7 1.3-.3 0-.7-.3-.5-.3 1.2-.4-1.2-1.8.6-2 1-.2.6.5.6 1z" fill="#a4a9b1"/><path d="M513.8 392.9c-.6.3-1.1.8-1.6-.1.9-.4-.1-1.6.8-1.8.4-.1.8.3.6.9-.2.3-.8.7.2 1z" fill="#979ea6"/><path d="M492.9 395.2c-.5-.1-.8-.4-.8-.8s.3-.7.7-.8c.5 0 .8.2.9.7 0 .6-.4.8-.8.9z" fill="#8f97a0"/><path class="st43" d="M493.7 392.1c-.1.5-.3.9-.8.8-.5 0-.8-.3-.8-.8 0-.4.3-.7.7-.7.5-.1.8.2.9.7zM493.7 389.9c-.2.6-.5.8-1 .7-.4-.1-.7-.4-.6-.8.1-.5.4-.8.9-.7.5 0 .6.4.7.8z"/><path d="M513.3 389.7c.4.7 0 .7-.3.7-1.2-.1.1-1-.5-1.4-.3-.2-.1-.7.3-.7 1 .2.2 1.1.5 1.4z" fill="#9399a2"/><path d="M480.9 659.3l-.4.5c-2.8 3-3.1 3-5.7-.7 1.8.4 2.2-.5 2.6-2 .6-3.1 3.5-5.2 6.6-5.4 3.5-.1 6.5 1.7 7.6 4.8 1.1 3 .1 6.5-2.5 8.5a7.8 7.8 0 01-8.9.2c-.4-.3-1.2-.5-.6-1.2s1-.4 1.7 0a5.6 5.6 0 006.4 0c2.1-1.3 2.9-3.4 2.5-5.8-.3-2.2-1.6-3.7-3.8-4.5-2.7-1-5.8.2-7.1 2.7-1 2.2-.8 2.7 1.6 2.9z" fill="#d77f2f"/><path d="M483.7 657.9c.3-.6-.7-1.9.7-1.9 1.1 0 .6 1.3.5 1.9-.3 1.6.9 2.1 1.9 2.7.5.3 1.1.5.6 1.2-.5.7-.9 0-1.3-.2-1.2-.9-3.1-1.4-2.4-3.7z" fill="#d98234"/><path class="st47" d="M441 660.3V656c0-.8.3-1.1 1.1-1.1h7.8c.7 0 1.1.2 1.1 1v8.8c0 1.1-.5 1.7-1.7 1.8-2.2.2-4.3.2-6.5 0-1.3-.1-1.8-.8-1.8-2v-4.2zM446 654.2h-4.6c-.6 0-1.1 0-1.1-.8s.5-1 1.1-.8c1.6.4 2.8-1 4.4-1 2-.1 3.6 1.5 5.5 1.1.5-.1.5.5.5.9 0 .6-.4.7-.9.7l-4.9-.1z"/><path d="M399.9 659.2c0-4.6 3.8-8.3 8.4-8.3 4.4 0 8.3 3.9 8.2 8.4 0 4.5-3.9 8.3-8.3 8.3a8.4 8.4 0 01-8.3-8.4z" fill="#3b82db"/><path d="M406.7 432.8c.2.2 1.1-.6 1.1.4 0 1.1-.5 2-1.9 1.7-.5-.1-1.4.4-1.3-.6.2-1.1.5-2.1 2.1-1.5z" fill="#eee"/><path d="M454.9 437.7c-1.4 0-2.3-1-2.3-2.5s.9-2.5 2.2-2.6c1.4 0 2.4 1.1 2.4 2.6s-.9 2.5-2.3 2.5z" fill="#fbfbfb"/><path d="M437.3 391.5v-7.2c0-1.4.5-2 1.9-2H454c1.5 0 2 .6 1.9 2V399c0 1.5-.7 2-2.1 2h-14.5c-1.6 0-2.2-.7-2.1-2.2.2-2.5.1-4.9.1-7.3z" fill="#fcfcfc"/><path d="M405.9 393.4c.1-.6-.3-1.5.8-1.4 1 .1 1.5.7 1.5 1.6 0 .8-.6 1.3-1.4 1.3-1.3.1-.8-.8-.9-1.5z" fill="#fafafa"/><path d="M405.9 390.5c0-.7-.1-1.4.8-1.3.7.1 1.2.4 1.2 1.1 0 .8-.5 1.2-1.3 1.2-.9.2-.6-.6-.7-1z" fill="#f9f9f9"/><path d="M596.8 391.1c.6.5 1.4.8 1 1.5a3.3 3.3 0 01-3 1.7c-1.4 0-2.5-.5-3.2-1.7-.5-.8.4-1.1 1-1.6.2 1.4.5 2.7 2.2 2.6 1.6.1 1.9-1.1 2-2.5z" fill="#f8f8f9"/><path d="M565.2 394.9c-3.5 0-3.4 0-3.5-3.6-.1-1.6.3-2.3 2.1-2.1 1.3.2 2.7.1 4 0 1 0 1.4.2 1.4 1.3a17 17 0 000 3.2c.1.9-.2 1.3-1.2 1.3l-2.8-.1z" fill="#fcfcfd"/><path d="M543.6 389c.7.2 1.2.6 1.3 1.2 0 .4-.7.8-1.1.9-.5.2-1-.5-1.1-1-.1-.5.4-.8.9-1.1z" fill="#f0f1f2"/><path d="M548 393.6c-.2.5-.5 1-1 .9-.6-.1-1-.6-1.2-1.2.6 0 .9-.8 1.2-.8.5-.1.9.5 1 1.1z" fill="#f4f5f6"/><path d="M443.9 663.8l-.6-.9c-.3-.4.1-.6.3-.8 1.1-.8 1.2-1.6 0-2.4-.5-.4-.5-.7 0-1.2.5-.4.8-.5 1.2 0 .8 1.1 1.6 1.2 2.4 0 .4-.5.7-.5 1.2 0s.4.8-.1 1.2c-1.2.8-1.1 1.6 0 2.4.4.3.6.7.1 1.1-.3.3-.6.8-1.1.2-1-1.3-1.9-1.3-2.8 0 0 .2-.2.2-.6.4z" fill="#f6c8c7"/><path d="M409 660.9v1.6c0 .6-.2 1-.8.9-.6 0-.9-.4-.8-1v-3c0-.6.1-1.1.9-1.1s.8.6.8 1.1l-.1 1.5z" fill="#c2ddf9"/><path d="M409 655.8c0 .5 0 1-.8 1-.6 0-.9-.2-.9-.9 0-.6.2-1 .8-1 .7 0 .9.3.9.9z" fill="#b1d2f5"/><path d="M445.6 388.7c-.8 1-1.2 2.1-.4 2.7.7.5 2.1.6 2.8-.1.6-.6.4-1.7-.4-2.5.9-.3 1.7-.1 2.4-.1-.7 2.3-.7 4.5-.1 6.8-.6.2-1.4 0-2.4.1.8-1.1 1.2-2.3.5-3-.6-.7-2.2-.6-2.8-.1-.8.7-.5 2 .3 2.9-.9.3-1.6.2-2.3.1.5-2.3.7-4.5-.1-6.7.8-.3 1.5-.2 2.5-.1z" fill="#888f99"/><path class="st36" d="M565.4 394.3h-1.8c-.4 0-1.2.3-1.2-.5s.8-1.6 1.3-1.5c1.3.5 1.6-.7 2.3-1.1.4-.3.6-.9 1.2-.3.8.8 1.7 1.4 1.5 2.8-.2.8-.8.6-1.3.6h-2z"/><path d="M563.9 390.6c0 .5-.3.8-.8.8-.4 0-.7-.2-.8-.7 0-.5.3-.8.8-.8s.7.3.8.7z" fill="#8f969f"/></g><path id="XMLID_32_" class="st63" d="M400.5 462.7h33.8"/><path id="XMLID_34_" class="st64" d="M400.5 476.2h139.1"/><path id="XMLID_38_" class="st64" d="M400.5 489.7h92.2"/><path id="XMLID_846_" class="st63" d="M500.9 489.7h35.9"/><path id="XMLID_43_" class="st63" d="M400.5 503.2h33.8"/><path id="XMLID_849_" class="st64" d="M443.4 503.2h140.2"/><path id="XMLID_30_" class="st64" d="M447.2 462.7h62.9"/><g style="animation:translate 5000ms ease 0ms infinite"><path id="XMLID_29_" d="M575.5 227.8H419.2a7 7 0 01-6.9-6.9V107.3a7 7 0 016.9-6.9h156.3a7 7 0 016.9 6.9v113.6a7 7 0 01-6.9 6.9z" fill="#6442fb"/><text id="XMLID_31_" transform="matrix(1 4.554982e-03 -4.554982e-03 1 443.5329 191.5759)" class="st4" font-size="84.3" font-family="Poppins-Bold">&lt;/&gt;</text></g></svg>
